<?xml version="1.0" encoding="utf-8"?>
<!-- Generator: Adobe Illustrator 16.0.0, SVG Export Plug-In . SVG Version: 6.00 Build 0)  -->
<!DOCTYPE svg PUBLIC "-//W3C//DTD SVG 1.1//EN" "http://www.w3.org/Graphics/SVG/1.1/DTD/svg11.dtd">
<svg version="1.1" id="Layer_1" xmlns="http://www.w3.org/2000/svg" xmlns:xlink="http://www.w3.org/1999/xlink" x="0px" y="0px"
	 width="468.214px" height="151.234px" viewBox="74.344 309.278 468.214 151.234"
	 enable-background="new 74.344 309.278 468.214 151.234" xml:space="preserve">
<text transform="matrix(1 0 0 1 200.958 437.2412)" fill="#A7A9AC" font-family="'MyriadPro-Semibold'" font-size="16.455">Δ</text>
<text transform="matrix(1 0 0 1 211.5879 437.2412)" fill="#A7A9AC" font-family="'MyriadPro-Semibold'" font-size="16.455">ι</text>
<text transform="matrix(1 0 0 1 216.0137 437.2412)" fill="#A7A9AC" font-family="'MyriadPro-Semibold'" font-size="16.455">ασ</text>
<text transform="matrix(1 0 0 1 235.167 437.2412)" fill="#A7A9AC" font-family="'MyriadPro-Semibold'" font-size="16.455">υ</text>
<text transform="matrix(1 0 0 1 244.25 437.2412)" fill="#A7A9AC" font-family="'MyriadPro-Semibold'" font-size="16.455">νδέο</text>
<text transform="matrix(1 0 0 1 279.02 437.2412)" fill="#A7A9AC" font-family="'MyriadPro-Semibold'" font-size="16.455">ν</text>
<text transform="matrix(1 0 0 1 287.5918 437.2412)" fill="#A7A9AC" font-family="'MyriadPro-Semibold'" font-size="16.455">τ</text>
<text transform="matrix(1 0 0 1 294.7329 437.2412)" fill="#A7A9AC" font-family="'MyriadPro-Semibold'" font-size="16.455">ας τ</text>
<text transform="matrix(1 0 0 1 322.5254 437.2412)" fill="#A7A9AC" font-family="'MyriadPro-Semibold'" font-size="16.455">η</text>
<text transform="matrix(1 0 0 1 331.9541 437.2412)" fill="#A7A9AC" font-family="'MyriadPro-Semibold'" font-size="16.455">ν Έρευνα </text>
<text transform="matrix(1 0 0 1 401.7051 437.2412)" fill="#A7A9AC" font-family="'MyriadPro-Semibold'" font-size="16.455">κ</text>
<text transform="matrix(1 0 0 1 410.1797 437.2412)" fill="#A7A9AC" font-family="'MyriadPro-Semibold'" font-size="16.455">α</text>
<text transform="matrix(1 0 0 1 419.6895 437.2412)" fill="#A7A9AC" font-family="'MyriadPro-Semibold'" font-size="16.455">ι</text>
<text transform="matrix(1 0 0 1 424.1172 437.2412)" fill="#A7A9AC" font-family="'MyriadPro-Semibold'" font-size="16.455"> τ</text>
<text transform="matrix(1 0 0 1 435.0098 437.2412)" fill="#A7A9AC" font-family="'MyriadPro-Semibold'" font-size="16.455">η</text>
<text transform="matrix(1 0 0 1 444.4375 437.2412)" fill="#A7A9AC" font-family="'MyriadPro-Semibold'" font-size="16.455">ν Εκπαίδευσ</text>
<text transform="matrix(1 0 0 1 533.1465 437.2412)" fill="#A7A9AC" font-family="'MyriadPro-Semibold'" font-size="16.455">η</text>
<g>
	<g>
		<defs>
			<path id="SVGID_1_" d="M160.957,377.691c-27.194-8.789-46.211-12.21-59.361-12.21c-0.533,0-1.05,0.006-1.564,0.017
				c3.287-9.206,8.906-17.31,16.141-23.595c-1.756,5.546-3.54,11.878-5.356,19.069c0,0,4.077-13.768,10.682-23.166
				c4.905-3.329,10.363-5.904,16.207-7.559C144.812,333.74,152.79,346.866,160.957,377.691 M193.107,389.167
				c-10.217-3.943-19.608-7.322-28.2-10.18c-3.648-19.083-8.095-37.675-13.249-50.847c0.474-0.012,0.946-0.018,1.423-0.018
				c11.233,0,21.697,3.289,30.482,8.956c-3.625-0.217-6.22-0.236-7.009-0.236c-0.166,0-0.253,0.001-0.253,0.001
				c3.372,0.435,6.456,0.967,9.262,1.587c10.337,7.312,18.101,18.021,21.668,30.498
				C204.418,375.323,199.403,382.204,193.107,389.167 M208.361,395.225c-1.611-0.657-3.194-1.298-4.768-1.929
				c2.04-1.762,3.933-3.472,5.679-5.126C209.115,390.566,208.809,392.92,208.361,395.225 M170.29,410.743
				c-1.274-8.438-2.731-17.368-4.36-26.287c8.42,2.171,16.837,4.623,24.914,7.159C184.754,398.069,177.66,404.551,170.29,410.743
				 M173.9,436.783c-0.739-5.821-1.623-12.436-2.646-19.514c12.408-8.208,22.374-15.583,30.256-22.201
				c2.183,0.727,4.324,1.455,6.421,2.176C203.73,415.31,190.838,430.038,173.9,436.783 M134.682,437.682
				c-22.067-7.626-37.914-28.585-37.914-53.247c0-2.035,0.108-4.046,0.319-6.025c4.91-1.436,10.734-2.07,17.203-2.07
				c14,0,31.007,2.977,48.175,7.239c2.06,8.314,4.129,17.777,6.196,28.523C156.925,421.845,144.635,430.794,134.682,437.682
				 M153.081,440.757c-5.606,0-11.02-0.819-16.13-2.344c12.468-7.239,23.355-13.949,32.862-20.193
				c1.09,5.927,2.179,12.209,3.266,18.881C166.865,439.464,160.124,440.757,153.081,440.757"/>
		</defs>
		<clipPath id="SVGID_2_">
			<use xlink:href="#SVGID_1_"  overflow="visible"/>
		</clipPath>
		
			<radialGradient id="SVGID_3_" cx="278.1406" cy="-400.9521" r="0.9995" gradientTransform="matrix(56.314 0 0 56.314 -15510.1982 22963.6816)" gradientUnits="userSpaceOnUse">
			<stop  offset="0" style="stop-color:#939598"/>
			<stop  offset="0.1044" style="stop-color:#939598"/>
			<stop  offset="0.296" style="stop-color:#ADAFB2"/>
			<stop  offset="0.6194" style="stop-color:#D7D9DA"/>
			<stop  offset="0.8642" style="stop-color:#F2F2F3"/>
			<stop  offset="1" style="stop-color:#FFFFFF"/>
		</radialGradient>
		<rect x="96.768" y="328.122" clip-path="url(#SVGID_2_)" fill="url(#SVGID_3_)" width="112.504" height="112.635"/>
	</g>
</g>
<path fill="#BCBEC0" d="M113.976,451.359c0,0,164.439-101.351,62.325-114.518C176.301,336.843,325.494,335.412,113.976,451.359"/>
<path fill="#7B7D7F" d="M176.652,460.512c-1.185-8.275-2.379-16.081-3.573-23.41c0.275-0.104,0.549-0.211,0.821-0.317
	C175.708,451.016,176.652,460.512,176.652,460.512"/>
<g>
	<g>
		<defs>
			<path id="SVGID_4_" d="M168.661,412.103c-2.067-10.746-4.136-20.209-6.196-28.523c1.156,0.287,2.308,0.579,3.465,0.877
				c1.629,8.919,3.086,17.849,4.36,26.287C169.75,411.197,169.204,411.653,168.661,412.103 M173.079,437.102
				c-1.087-6.672-2.176-12.954-3.266-18.881c0.48-0.314,0.967-0.637,1.441-0.95c1.023,7.079,1.907,13.692,2.646,19.514
				C173.628,436.891,173.354,436.998,173.079,437.102"/>
		</defs>
		<clipPath id="SVGID_5_">
			<use xlink:href="#SVGID_4_"  overflow="visible"/>
		</clipPath>
		
			<radialGradient id="SVGID_6_" cx="278.1426" cy="-400.9526" r="0.9998" gradientTransform="matrix(56.314 0 0 56.314 -15510.1982 22963.6816)" gradientUnits="userSpaceOnUse">
			<stop  offset="0" style="stop-color:#5C5D60"/>
			<stop  offset="0.1044" style="stop-color:#5D5E60"/>
			<stop  offset="0.626" style="stop-color:#717375"/>
			<stop  offset="1" style="stop-color:#7B7D7F"/>
		</radialGradient>
		<rect x="162.465" y="383.579" clip-path="url(#SVGID_5_)" fill="url(#SVGID_6_)" width="11.435" height="53.521"/>
	</g>
</g>
<path fill="#6A6B6D" d="M169.813,418.22c-0.383-2.083-0.767-4.123-1.151-6.117c0.543-0.45,1.088-0.905,1.628-1.359
	c0.334,2.209,0.656,4.393,0.964,6.526C170.781,417.583,170.293,417.904,169.813,418.22"/>
<path fill="#7B7D7F" d="M116.173,341.903c7.375-23.298,14.208-32.625,20.425-32.625c5.527,0,10.564,7.368,15.06,18.862
	c-4.825,0.119-9.501,0.846-13.952,2.107c-1.406-0.692-2.78-1.008-4.113-1.008c-4.568,0-8.671,3.696-12.094,8.567
	C119.641,339.067,117.863,340.435,116.173,341.903"/>
<g>
	<g>
		<defs>
			<path id="SVGID_7_" d="M110.817,360.972c1.816-7.191,3.6-13.523,5.356-19.069c1.69-1.468,3.468-2.836,5.326-4.097
				C114.894,347.204,110.817,360.972,110.817,360.972 M164.907,378.987c-1.336-0.445-2.651-0.876-3.95-1.296
				c-8.167-30.825-16.145-43.951-23.251-47.444c4.45-1.261,9.127-1.987,13.952-2.107
				C156.812,341.312,161.259,359.904,164.907,378.987"/>
		</defs>
		<clipPath id="SVGID_8_">
			<use xlink:href="#SVGID_7_"  overflow="visible"/>
		</clipPath>
		
			<radialGradient id="SVGID_9_" cx="278.1416" cy="-400.9521" r="1.0028" gradientTransform="matrix(56.314 0 0 56.314 -15510.1982 22963.6816)" gradientUnits="userSpaceOnUse">
			<stop  offset="0" style="stop-color:#5C5D60"/>
			<stop  offset="0.1044" style="stop-color:#5D5E60"/>
			<stop  offset="0.626" style="stop-color:#717375"/>
			<stop  offset="1" style="stop-color:#7B7D7F"/>
		</radialGradient>
		<rect x="110.817" y="328.14" clip-path="url(#SVGID_8_)" fill="url(#SVGID_9_)" width="54.09" height="50.847"/>
	</g>
</g>
<path fill="#A3A5A8" d="M250.245,413.307c0,0-18.026-7.693-42.314-16.062c0.155-0.668,0.299-1.343,0.43-2.02
	C221.121,400.427,235.042,406.423,250.245,413.307"/>
<g>
	<g>
		<defs>
			<path id="SVGID_10_" d="M190.844,391.615c-8.077-2.536-16.494-4.988-24.914-7.159c-0.334-1.828-0.674-3.646-1.023-5.469
				c8.592,2.858,17.983,6.237,28.2,10.18C192.37,389.982,191.615,390.798,190.844,391.615 M207.931,397.245
				c-2.097-0.722-4.238-1.449-6.421-2.176c0.714-0.6,1.403-1.186,2.083-1.773c1.574,0.631,3.157,1.272,4.768,1.929
				C208.23,395.902,208.086,396.577,207.931,397.245"/>
		</defs>
		<clipPath id="SVGID_11_">
			<use xlink:href="#SVGID_10_"  overflow="visible"/>
		</clipPath>
		
			<radialGradient id="SVGID_12_" cx="278.1416" cy="-400.9526" r="1.0005" gradientTransform="matrix(56.314 0 0 56.314 -15510.1982 22963.6816)" gradientUnits="userSpaceOnUse">
			<stop  offset="0" style="stop-color:#86888B"/>
			<stop  offset="0.1044" style="stop-color:#86888B"/>
			<stop  offset="0.631" style="stop-color:#999B9E"/>
			<stop  offset="1" style="stop-color:#A3A5A8"/>
		</radialGradient>
		<rect x="164.907" y="378.987" clip-path="url(#SVGID_11_)" fill="url(#SVGID_12_)" width="43.454" height="18.258"/>
	</g>
</g>
<path fill="#919396" d="M201.51,395.069c-3.465-1.156-7.034-2.314-10.666-3.454c0.771-0.817,1.526-1.633,2.263-2.448
	c3.398,1.311,6.898,2.689,10.486,4.129C202.912,393.883,202.224,394.469,201.51,395.069"/>
<path fill="#A3A5A8" d="M82.251,408.492c0,0-26.602-42.025,17.781-42.994c-1.467,4.106-2.468,8.429-2.945,12.912
	C84.393,382.122,77.844,391.191,82.251,408.492"/>
<g>
	<g>
		<defs>
			<path id="SVGID_13_" d="M162.465,383.579c-17.168-4.262-34.175-7.239-48.175-7.239c-6.469,0-12.293,0.634-17.203,2.07
				c0.477-4.483,1.479-8.806,2.945-12.912c0.514-0.011,1.031-0.017,1.564-0.017c13.15,0,32.167,3.421,59.361,12.21
				C161.46,379.591,161.96,381.543,162.465,383.579"/>
		</defs>
		<clipPath id="SVGID_14_">
			<use xlink:href="#SVGID_13_"  overflow="visible"/>
		</clipPath>
		
			<radialGradient id="SVGID_15_" cx="278.1421" cy="-400.9521" r="1.0003" gradientTransform="matrix(56.314 0 0 56.314 -15510.1982 22963.6816)" gradientUnits="userSpaceOnUse">
			<stop  offset="0" style="stop-color:#86888B"/>
			<stop  offset="0.1044" style="stop-color:#86888B"/>
			<stop  offset="0.631" style="stop-color:#999B9E"/>
			<stop  offset="1" style="stop-color:#A3A5A8"/>
		</radialGradient>
		<rect x="97.087" y="365.481" clip-path="url(#SVGID_14_)" fill="url(#SVGID_15_)" width="65.378" height="18.098"/>
	</g>
</g>
<g>
	<g>
		<defs>
			<path id="SVGID_16_" d="M165.93,384.456c-1.157-0.298-2.309-0.59-3.465-0.877c-0.505-2.036-1.005-3.988-1.508-5.888
				c1.299,0.42,2.614,0.851,3.95,1.296C165.256,380.81,165.596,382.628,165.93,384.456"/>
		</defs>
		<clipPath id="SVGID_17_">
			<use xlink:href="#SVGID_16_"  overflow="visible"/>
		</clipPath>
		
			<radialGradient id="SVGID_18_" cx="278.1426" cy="-400.9531" r="0.9979" gradientTransform="matrix(56.314 0 0 56.314 -15510.1982 22963.6816)" gradientUnits="userSpaceOnUse">
			<stop  offset="0" style="stop-color:#76777A"/>
			<stop  offset="0.1044" style="stop-color:#76777A"/>
			<stop  offset="0.2475" style="stop-color:#78797C"/>
			<stop  offset="1" style="stop-color:#7F8183"/>
		</radialGradient>
		<rect x="160.957" y="377.691" clip-path="url(#SVGID_17_)" fill="url(#SVGID_18_)" width="4.973" height="6.765"/>
	</g>
</g>
<text transform="matrix(1 0 0 1 243.1865 400.6816)" fill="#A7A9AC" font-family="'ArialMT'" font-size="71.2916">gr</text>
<text transform="matrix(1 0 0 1 307.9199 400.6816)" fill="#D1D3D4" font-family="'ArialMT'" font-size="71.2916">net</text>
</svg>
