<?xml version="1.0" encoding="utf-8"?>
<!-- Generator: Adobe Illustrator 16.0.0, SVG Export Plug-In . SVG Version: 6.00 Build 0)  -->
<!DOCTYPE svg PUBLIC "-//W3C//DTD SVG 1.1//EN" "http://www.w3.org/Graphics/SVG/1.1/DTD/svg11.dtd">
<svg version="1.1" id="Layer_1" xmlns="http://www.w3.org/2000/svg" xmlns:xlink="http://www.w3.org/1999/xlink" x="0px" y="0px"
	 width="229.367px" height="74.228px" viewBox="311.943 165.206 229.367 74.228"
	 enable-background="new 311.943 165.206 229.367 74.228" xml:space="preserve">
<g>
	<g>
		<path fill="#999999" d="M374.254,227.496l1.816-4.924h1.179l1.784,4.916v0.525h-4.778L374.254,227.496L374.254,227.496z
			 M377.903,227.197l-0.92-2.599c-0.121-0.371-0.274-0.847-0.363-1.194h-0.024c-0.072,0.274-0.21,0.734-0.331,1.105l-0.937,2.688
			H377.903z"/>
		<path fill="#999999" d="M380.843,226.907c0,0.323,0.098,0.452,0.371,0.436l-0.056,0.694c-0.089,0.04-0.268,0.064-0.428,0.064
			c-0.533,0-0.889-0.226-0.889-1.098v-2.922h1.001V226.907z"/>
		<path fill="#999999" d="M385.631,224.082c-0.049,0.533-0.113,1.744-0.113,2.68c0,0.444,0.138,0.597,0.38,0.589l-0.064,0.703
			c-0.057,0.024-0.218,0.048-0.347,0.048c-0.404,0-0.694-0.234-0.768-0.767h-0.023c-0.268,0.477-0.728,0.767-1.3,0.767
			c-0.921,0-1.622-0.775-1.622-1.978c0-1.3,0.88-2.131,1.774-2.131c0.5,0,0.912,0.242,1.13,0.687h0.032
			c0.024-0.242,0.057-0.428,0.089-0.598H385.631z M382.782,226.092c0,0.662,0.339,1.219,0.88,1.219c0.42,0,0.767-0.404,0.872-0.848
			c0.023-0.153,0.032-0.283,0.032-0.46c0-0.146,0-0.258-0.024-0.372c-0.081-0.484-0.404-0.872-0.832-0.872
			c-0.557,0-0.928,0.589-0.928,1.324V226.092L382.782,226.092z"/>
		<path fill="#999999" d="M389.742,224.719c0.402,0.315,0.613,0.839,0.613,1.324c0,1.429-0.978,2.059-1.945,2.059
			c-1.114,0-1.969-0.751-1.969-2.01c0-1.292,0.831-2.099,2.105-2.099c0.227,0,0.646,0,0.751,0h0.533c0.266,0,0.734,0,0.896,0
			l-0.041,0.727c-0.193,0-0.46,0-0.937-0.032L389.742,224.719z M388.435,227.383c0.55,0,0.937-0.565,0.937-1.348
			c0-0.622-0.266-1.316-0.928-1.316c-0.694,0-0.978,0.678-0.978,1.332c0,0.759,0.379,1.332,0.96,1.332H388.435z"/>
		<path fill="#999999" d="M394.636,224.082c0.139,0.267,0.299,0.848,0.299,1.518c0,1.195-0.436,2.502-1.912,2.502
			c-0.921,0-1.655-0.533-1.655-1.647v-1.057c0-0.63-0.017-1.074-0.088-1.316h0.96c0.089,0.097,0.121,0.315,0.121,0.751v1.534
			c0,0.638,0.362,0.928,0.742,0.928c0.59,0,0.855-0.686,0.855-1.623c0-0.71-0.162-1.372-0.25-1.59H394.636z"/>
		<path fill="#999999" d="M396.431,224.082l0.629,1.994c0.113,0.347,0.187,0.662,0.283,1.001h0.032
			c0.323-0.662,0.823-1.792,0.823-2.655c0-0.121,0-0.226,0-0.339h0.928c0.016,0.089,0.024,0.194,0.024,0.299
			c0,1.114-0.71,2.43-1.43,3.632h-0.961l-1.396-3.931L396.431,224.082L396.431,224.082z"/>
		<path fill="#999999" d="M403.036,223.218c-0.153-0.113-0.605-0.307-1.033-0.307c-0.363,0-0.541,0.121-0.541,0.283
			c0,0.161,0.187,0.298,0.518,0.557l0.653,0.524c0.629,0.492,1.009,1.065,1.009,1.808c0,1.227-0.888,2.018-2.002,2.018
			c-1.072,0-1.969-0.743-1.969-1.961c0-0.993,0.687-1.615,1.404-1.961v-0.032l-0.169-0.138c-0.162-0.153-0.468-0.436-0.468-0.815
			c0-0.484,0.509-1.001,1.501-1.001c0.621,0,1.13,0.21,1.371,0.396L403.036,223.218z M401.623,224.646
			c-0.5,0.275-0.937,0.743-0.937,1.485c0,0.742,0.477,1.251,1.01,1.251c0.523,0,0.943-0.468,0.943-1.219
			c0-0.452-0.218-0.863-0.622-1.194L401.623,224.646z"/>
		<path fill="#999999" d="M405.21,225.898c-0.476-0.129-0.727-0.436-0.727-0.823c0-0.533,0.532-1.082,1.654-1.082
			c0.541,0,0.938,0.105,1.26,0.299l-0.187,0.638c-0.194-0.113-0.581-0.234-0.953-0.234c-0.476,0-0.774,0.193-0.774,0.468
			c0,0.315,0.396,0.444,0.984,0.452h0.429v0.662h-0.437c-0.63,0.008-1.106,0.137-1.106,0.517c0,0.371,0.429,0.565,0.912,0.565
			c0.388,0,0.849-0.137,1.106-0.267l0.145,0.654c-0.362,0.234-0.977,0.355-1.492,0.355c-0.832,0-1.729-0.315-1.729-1.203
			c0-0.484,0.396-0.864,0.912-0.961v-0.04H405.21z M406.945,222.411l-0.662,1.195h-0.654l0.396-1.195H406.945z"/>
		<path fill="#999999" d="M409.982,228.102c-1.114,0-1.97-0.767-1.97-2.026c0-1.291,0.848-2.083,2.034-2.083
			c1.171,0,1.954,0.824,1.954,2.018c0,1.445-1.017,2.091-2.01,2.091H409.982L409.982,228.102z M410.014,227.383
			c0.565,0,0.961-0.557,0.961-1.348c0-0.614-0.273-1.316-0.952-1.316c-0.702,0-0.985,0.678-0.985,1.332
			c0,0.759,0.371,1.332,0.969,1.332H410.014z"/>
		<path fill="#999999" d="M413.416,224.082l0.629,1.994c0.113,0.347,0.187,0.662,0.283,1.001h0.032
			c0.322-0.662,0.822-1.792,0.822-2.655c0-0.121,0-0.226,0-0.339h0.929c0.016,0.089,0.023,0.194,0.023,0.299
			c0,1.114-0.71,2.43-1.429,3.632h-0.961l-1.396-3.931L413.416,224.082L413.416,224.082z"/>
		<path fill="#999999" d="M419.286,228.021c-0.089,0.048-0.274,0.081-0.484,0.081c-0.767,0-1.049-0.436-1.049-1.308v-1.954h-0.371
			c-0.396,0-0.598,0.032-0.767,0.064l-0.129-0.581c0.152-0.113,0.46-0.242,1.242-0.242h2.261l-0.105,0.759h-1.138v1.897
			c0,0.46,0.186,0.589,0.428,0.589c0.064,0,0.121,0,0.161-0.008L419.286,228.021z"/>
		<path fill="#999999" d="M424.195,224.082c-0.047,0.533-0.111,1.744-0.111,2.68c0,0.444,0.137,0.597,0.379,0.589l-0.062,0.703
			c-0.059,0.024-0.221,0.048-0.35,0.048c-0.402,0-0.691-0.234-0.768-0.767h-0.023c-0.266,0.477-0.727,0.767-1.299,0.767
			c-0.92,0-1.623-0.775-1.623-1.978c0-1.3,0.88-2.131,1.777-2.131c0.5,0,0.912,0.242,1.131,0.687h0.031
			c0.023-0.242,0.057-0.428,0.09-0.598H424.195z M421.347,226.092c0,0.662,0.338,1.219,0.879,1.219c0.42,0,0.768-0.404,0.871-0.848
			c0.025-0.153,0.033-0.283,0.033-0.46c0-0.146,0-0.258-0.025-0.372c-0.08-0.484-0.402-0.872-0.83-0.872
			c-0.557,0-0.928,0.589-0.928,1.324V226.092z"/>
		<path fill="#999999" d="M427.976,224.889c-0.191-0.081-0.428-0.137-0.719-0.137c-0.732,0-1.227,0.582-1.227,1.324
			c0,0.662,0.355,1.025,0.951,1.211c0.381,0.113,0.703,0.169,1.09,0.234c0.049,0.008,0.074,0.048,0.074,0.113
			c0,0.508-0.275,1.284-0.525,1.582l-0.639-0.202c0.098-0.178,0.219-0.638,0.234-0.832c-0.217-0.041-0.467-0.089-0.693-0.153
			c-0.832-0.234-1.518-0.791-1.518-1.881c0-1.082,0.791-2.155,2.229-2.155c0.371,0,0.717,0.073,0.943,0.186L427.976,224.889z"/>
		<path fill="#999999" d="M432.839,228.021c-0.09,0.048-0.273,0.081-0.482,0.081c-0.77,0-1.051-0.436-1.051-1.308v-1.954h-0.373
			c-0.395,0-0.596,0.032-0.766,0.064l-0.129-0.581c0.152-0.113,0.459-0.242,1.242-0.242h2.26l-0.104,0.759h-1.139v1.897
			c0,0.46,0.186,0.589,0.428,0.589c0.064,0,0.121,0,0.162-0.008L432.839,228.021z"/>
		<path fill="#999999" d="M435.142,224.671c0.168-0.307,0.598-0.678,1.25-0.678c0.688,0,1.396,0.444,1.396,1.687v2.511
			c0,0.468,0,1.105,0.09,1.42h-0.953c-0.104-0.218-0.129-0.888-0.129-1.413v-2.405c0-0.565-0.211-0.993-0.752-0.993
			c-0.395,0-0.67,0.282-0.773,0.581c-0.031,0.089-0.039,0.21-0.039,0.323v2.309h-1v-2.761c0-0.452-0.025-0.88-0.121-1.17h0.887
			c0.072,0.146,0.113,0.363,0.121,0.589H435.142L435.142,224.671z"/>
		<path fill="#999999" d="M439.396,224.082l0.631,1.994c0.113,0.347,0.186,0.662,0.281,1.001h0.033
			c0.322-0.662,0.824-1.792,0.824-2.655c0-0.121,0-0.226,0-0.339h0.928c0.016,0.089,0.023,0.194,0.023,0.299
			c0,1.114-0.711,2.43-1.428,3.632h-0.963l-1.395-3.931L439.396,224.082L439.396,224.082z"/>
		<path fill="#999999" d="M444.994,222.572l-0.289,1.332h-0.574l0.041-1.332H444.994z M448.482,225.599h-2.051v1.598h2.293v0.815
			h-3.293v-5.44h3.172v0.815h-2.172v1.404h2.051V225.599z"/>
		<path fill="#999999" d="M450.599,227.633v0.557c0,0.468,0,1.105,0.059,1.42h-0.961c-0.064-0.218-0.09-0.823-0.09-1.404v-1.8
			c0-1.089,0.314-1.574,0.672-1.897c0.33-0.314,0.771-0.517,1.34-0.517c1.137,0,1.881,0.815,1.881,2.018
			c0,1.389-0.914,2.091-1.816,2.091c-0.469,0-0.865-0.178-1.066-0.468H450.599z M450.599,226.455c0,0.097,0.01,0.17,0.023,0.258
			c0.098,0.331,0.453,0.622,0.873,0.622c0.629,0,0.992-0.557,0.992-1.299c0-0.694-0.348-1.227-0.938-1.227
			c-0.5,0-0.951,0.436-0.951,1.34V226.455L450.599,226.455z"/>
		<path fill="#999999" d="M455.066,225.898c-0.469-0.129-0.727-0.436-0.727-0.823c0-0.533,0.531-1.082,1.654-1.082
			c0.541,0,0.941,0.105,1.26,0.299l-0.188,0.638c-0.193-0.113-0.58-0.234-0.951-0.234c-0.479,0-0.775,0.193-0.775,0.468
			c0,0.315,0.396,0.444,0.984,0.452h0.428v0.662h-0.436c-0.629,0.008-1.105,0.137-1.105,0.517c0,0.371,0.428,0.565,0.912,0.565
			c0.387,0,0.848-0.137,1.104-0.274l0.146,0.662c-0.363,0.234-0.979,0.355-1.494,0.355c-0.832,0-1.727-0.315-1.727-1.203
			c0-0.484,0.395-0.872,0.912-0.969v-0.033H455.066z"/>
		<path fill="#999999" d="M461.363,224.082c0.139,0.267,0.299,0.848,0.299,1.518c0,1.195-0.436,2.502-1.912,2.502
			c-0.92,0-1.654-0.533-1.654-1.647v-1.057c0-0.63-0.018-1.074-0.09-1.316h0.961c0.088,0.097,0.121,0.315,0.121,0.751v1.534
			c0,0.638,0.363,0.928,0.742,0.928c0.59,0,0.855-0.686,0.855-1.623c0-0.71-0.16-1.372-0.25-1.59H461.363z"/>
		<path fill="#999999" d="M463.158,224.082l0.629,1.994c0.113,0.347,0.186,0.662,0.283,1.001h0.031
			c0.324-0.662,0.824-1.792,0.824-2.655c0-0.121,0-0.226,0-0.339h0.928c0.018,0.089,0.025,0.194,0.025,0.299
			c0,1.114-0.711,2.43-1.43,3.632h-0.961l-1.396-3.931L463.158,224.082L463.158,224.082z"/>
		<path fill="#999999" d="M470.255,224.082c-0.047,0.533-0.111,1.744-0.111,2.68c0,0.444,0.139,0.597,0.381,0.589l-0.064,0.703
			c-0.057,0.024-0.219,0.048-0.348,0.048c-0.404,0-0.693-0.234-0.77-0.767h-0.021c-0.268,0.477-0.729,0.767-1.299,0.767
			c-0.924,0-1.623-0.775-1.623-1.978c0-1.3,0.879-2.131,1.773-2.131c0.5,0,0.912,0.242,1.131,0.687h0.031
			c0.025-0.242,0.057-0.428,0.09-0.598H470.255z M467.408,226.092c0,0.662,0.338,1.219,0.879,1.219c0.42,0,0.768-0.404,0.871-0.848
			c0.025-0.153,0.033-0.283,0.033-0.46c0-0.146,0-0.258-0.025-0.372c-0.08-0.484-0.402-0.872-0.83-0.872
			c-0.557,0-0.928,0.589-0.928,1.324V226.092z"/>
		<path fill="#999999" d="M474.972,225.906c0.381,0.097,0.729,0.557,1.066,1.074l0.67,1.033h-1.145l-0.51-0.807
			c-0.34-0.5-0.611-0.848-0.93-0.864h-0.057v1.671h-1v-2.995c0-0.355-0.033-0.799-0.098-0.937h0.969
			c0.074,0.081,0.129,0.339,0.129,0.686v1.001h0.025c0.557-0.597,1.041-1.219,1.428-1.687h1.131v0.041
			c-0.508,0.533-1.074,1.13-1.68,1.751V225.906L474.972,225.906z"/>
		<path fill="#999999" d="M480.835,224.082c-0.049,0.533-0.113,1.744-0.113,2.68c0,0.444,0.139,0.597,0.379,0.589l-0.062,0.703
			c-0.057,0.024-0.217,0.048-0.348,0.048c-0.402,0-0.693-0.234-0.768-0.767H479.9c-0.268,0.477-0.727,0.767-1.301,0.767
			c-0.92,0-1.623-0.775-1.623-1.978c0-1.3,0.883-2.131,1.777-2.131c0.5,0,0.912,0.242,1.129,0.687h0.033
			c0.023-0.242,0.057-0.428,0.088-0.598H480.835z M477.986,226.092c0,0.662,0.34,1.219,0.879,1.219c0.42,0,0.768-0.404,0.873-0.848
			c0.023-0.153,0.031-0.283,0.031-0.46c0-0.146,0-0.258-0.023-0.372c-0.08-0.484-0.404-0.872-0.832-0.872
			c-0.557,0-0.928,0.589-0.928,1.324V226.092L477.986,226.092z"/>
		<path fill="#999999" d="M482.896,226.907c0,0.323,0.098,0.452,0.371,0.436l-0.057,0.694c-0.088,0.04-0.266,0.064-0.428,0.064
			c-0.533,0-0.889-0.226-0.889-1.098v-2.922h1v2.826H482.896z"/>
		<path fill="#999999" d="M488.031,228.021c-0.088,0.048-0.273,0.081-0.484,0.081c-0.766,0-1.049-0.436-1.049-1.308v-1.954h-0.371
			c-0.395,0-0.598,0.032-0.768,0.064l-0.129-0.581c0.154-0.113,0.461-0.242,1.244-0.242h2.26l-0.105,0.759h-1.139v1.897
			c0,0.46,0.186,0.589,0.428,0.589c0.064,0,0.121,0,0.162-0.008L488.031,228.021z"/>
		<path fill="#999999" d="M490.335,224.671c0.168-0.307,0.596-0.678,1.25-0.678c0.688,0,1.396,0.444,1.396,1.687v2.511
			c0,0.468,0,1.105,0.09,1.42h-0.953c-0.105-0.218-0.129-0.888-0.129-1.413v-2.405c0-0.565-0.211-0.993-0.752-0.993
			c-0.395,0-0.67,0.282-0.773,0.581c-0.033,0.089-0.041,0.21-0.041,0.323v2.309h-1v-2.761c0-0.452-0.023-0.88-0.121-1.17h0.889
			c0.07,0.146,0.111,0.363,0.119,0.589H490.335L490.335,224.671z"/>
		<path fill="#999999" d="M494.591,224.082l0.629,1.994c0.113,0.347,0.188,0.662,0.283,1.001h0.031
			c0.324-0.662,0.824-1.792,0.824-2.655c0-0.121,0-0.226,0-0.339h0.928c0.018,0.089,0.025,0.194,0.025,0.299
			c0,1.114-0.711,2.43-1.43,3.632h-0.961l-1.396-3.931L494.591,224.082L494.591,224.082z"/>
		<path fill="#999999" d="M502.941,225.599h-2.051v1.598h2.293v0.815h-3.285v-5.44h3.164v0.815h-2.172v1.404h2.051V225.599z"/>
		<path fill="#999999" d="M506.001,225.906c0.381,0.097,0.727,0.557,1.066,1.074l0.67,1.033h-1.146l-0.508-0.807
			c-0.34-0.5-0.613-0.848-0.93-0.864h-0.057v1.671h-1v-2.995c0-0.355-0.033-0.799-0.098-0.937h0.969
			c0.074,0.081,0.129,0.339,0.129,0.686v1.001h0.025c0.557-0.597,1.041-1.219,1.428-1.687h1.131v0.041
			c-0.508,0.533-1.074,1.13-1.68,1.751V225.906L506.001,225.906z"/>
		<path fill="#999999" d="M511.816,224.84v1.97c0,0.581,0.047,0.977,0.104,1.203h-0.951c-0.09-0.137-0.139-0.565-0.139-1.122v-2.05
			h-1.041c-0.023,0.969-0.227,2.543-0.492,3.172h-0.953c0.27-0.775,0.479-2.244,0.484-3.172c-0.266,0-0.541,0.016-0.742,0.064
			l-0.113-0.581c0.17-0.145,0.566-0.242,1.275-0.242h3.172l-0.096,0.759L511.816,224.84L511.816,224.84z"/>
		<path fill="#999999" d="M516.773,224.082c-0.047,0.533-0.111,1.744-0.111,2.68c0,0.444,0.137,0.597,0.379,0.589l-0.064,0.703
			c-0.057,0.024-0.219,0.048-0.348,0.048c-0.404,0-0.693-0.234-0.768-0.767h-0.023c-0.266,0.477-0.727,0.767-1.299,0.767
			c-0.922,0-1.623-0.775-1.623-1.978c0-1.3,0.879-2.131,1.775-2.131c0.5,0,0.912,0.242,1.131,0.687h0.031
			c0.025-0.242,0.057-0.428,0.09-0.598H516.773z M513.925,226.092c0,0.662,0.338,1.219,0.879,1.219c0.42,0,0.77-0.404,0.871-0.848
			c0.025-0.153,0.033-0.283,0.033-0.46c0-0.146,0-0.258-0.025-0.372c-0.08-0.484-0.4-0.872-0.83-0.872
			c-0.557,0-0.928,0.589-0.928,1.324V226.092z"/>
		<path fill="#999999" d="M518.835,226.907c0,0.323,0.098,0.452,0.371,0.436l-0.057,0.694c-0.088,0.04-0.266,0.064-0.428,0.064
			c-0.533,0-0.887-0.226-0.887-1.098v-2.922h1V226.907L518.835,226.907z M519.287,222.411l-0.66,1.187h-0.662l0.396-1.187H519.287z"
			/>
		<path fill="#999999" d="M523.13,223.218c-0.152-0.113-0.604-0.307-1.033-0.307c-0.361,0-0.541,0.121-0.541,0.283
			c0,0.161,0.188,0.298,0.52,0.557l0.652,0.524c0.631,0.492,1.01,1.065,1.01,1.808c0,1.227-0.889,2.018-2.002,2.018
			c-1.072,0-1.971-0.743-1.971-1.961c0-0.993,0.688-1.615,1.404-1.961v-0.032l-0.17-0.138c-0.16-0.153-0.467-0.436-0.467-0.815
			c0-0.484,0.508-1.001,1.5-1.001c0.621,0,1.131,0.21,1.373,0.396L523.13,223.218z M521.718,224.646
			c-0.5,0.275-0.936,0.743-0.936,1.485c0,0.742,0.475,1.251,1.008,1.251c0.525,0,0.945-0.468,0.945-1.219
			c0-0.452-0.219-0.863-0.621-1.194L521.718,224.646z"/>
		<path fill="#999999" d="M525.304,225.898c-0.469-0.129-0.727-0.436-0.727-0.823c0-0.533,0.533-1.082,1.654-1.082
			c0.541,0,0.945,0.105,1.26,0.299l-0.186,0.638c-0.193-0.113-0.582-0.234-0.953-0.234c-0.477,0-0.773,0.193-0.773,0.468
			c0,0.315,0.395,0.444,0.984,0.452h0.428v0.662h-0.436c-0.631,0.008-1.107,0.137-1.107,0.517c0,0.371,0.428,0.565,0.912,0.565
			c0.389,0,0.848-0.137,1.107-0.274l0.145,0.662c-0.363,0.234-0.977,0.355-1.494,0.355c-0.83,0-1.727-0.315-1.727-1.203
			c0-0.484,0.396-0.872,0.912-0.969V225.898L525.304,225.898z"/>
		<path fill="#999999" d="M531.601,224.082c0.141,0.267,0.301,0.848,0.301,1.518c0,1.195-0.438,2.502-1.912,2.502
			c-0.92,0-1.654-0.533-1.654-1.647v-1.057c0-0.63-0.018-1.074-0.09-1.316h0.961c0.088,0.097,0.121,0.315,0.121,0.751v1.534
			c0,0.638,0.361,0.928,0.742,0.928c0.59,0,0.854-0.686,0.854-1.623c0-0.71-0.16-1.372-0.25-1.59H531.601z"/>
		<path fill="#999999" d="M535.941,224.719c0.402,0.315,0.613,0.839,0.613,1.324c0,1.429-0.977,2.059-1.945,2.059
			c-1.115,0-1.971-0.751-1.971-2.01c0-1.292,0.832-2.099,2.107-2.099c0.227,0,0.645,0,0.75,0h0.533c0.268,0,0.732,0,0.895,0
			l-0.041,0.727c-0.193,0-0.459,0-0.936-0.032L535.941,224.719z M534.632,227.383c0.549,0,0.939-0.565,0.939-1.348
			c0-0.622-0.27-1.316-0.932-1.316c-0.691,0-0.977,0.678-0.977,1.332c0,0.759,0.381,1.332,0.961,1.332H534.632z"/>
		<path fill="#999999" d="M538.574,224.671c0.17-0.307,0.598-0.678,1.252-0.678c0.686,0,1.396,0.444,1.396,1.687v2.511
			c0,0.468,0,1.105,0.088,1.42h-0.953c-0.104-0.218-0.129-0.888-0.129-1.413v-2.405c0-0.565-0.209-0.993-0.75-0.993
			c-0.396,0-0.67,0.282-0.775,0.581c-0.031,0.089-0.041,0.21-0.041,0.323v2.309h-1v-2.761c0-0.452-0.023-0.88-0.121-1.17h0.889
			c0.072,0.146,0.111,0.363,0.121,0.589H538.574L538.574,224.671z"/>
	</g>
</g>
<radialGradient id="SVGID_1_" cx="636.5942" cy="18.1797" r="27.6396" gradientTransform="matrix(1 0 0 -1 -286 220.2754)" gradientUnits="userSpaceOnUse">
	<stop  offset="0.1044" style="stop-color:#F7941E"/>
	<stop  offset="0.3007" style="stop-color:#F9B15A"/>
	<stop  offset="0.5494" style="stop-color:#FCD2A0"/>
	<stop  offset="0.7572" style="stop-color:#FDEAD4"/>
	<stop  offset="0.9134" style="stop-color:#FFF9F3"/>
	<stop  offset="1" style="stop-color:#FFFFFF"/>
</radialGradient>
<circle fill="url(#SVGID_1_)" cx="350.594" cy="202.096" r="27.64"/>
<linearGradient id="SVGID_2_" gradientUnits="userSpaceOnUse" x1="599.8481" y1="-7.3774" x2="629.8329" y2="11.2338" gradientTransform="matrix(1 0 0 -1 -286 220.2754)">
	<stop  offset="0" style="stop-color:#FFFFFF"/>
	<stop  offset="1" style="stop-color:#92C5EB"/>
</linearGradient>
<path fill="url(#SVGID_2_)" d="M331.4,234.94c0,0,80.71-49.741,30.592-56.204C361.992,178.736,435.216,178.034,331.4,234.94z"/>
<linearGradient id="SVGID_3_" gradientUnits="userSpaceOnUse" x1="635.5933" y1="-20.1631" x2="631.7478" y2="8.102" gradientTransform="matrix(1 0 0 -1 -286 220.2754)">
	<stop  offset="0" style="stop-color:#FFFFFF"/>
	<stop  offset="1" style="stop-color:#2B3990"/>
</linearGradient>
<path opacity="0.7" fill="url(#SVGID_3_)" enable-background="new    " d="M329.849,190.577c0,0,17.062-57.642,32.312,48.856
	C362.162,239.434,349.554,112.538,329.849,190.577z"/>
<linearGradient id="SVGID_4_" gradientUnits="userSpaceOnUse" x1="680.8442" y1="-10.2119" x2="648.1137" y2="3.3018" gradientTransform="matrix(1 0 0 -1 -286 220.2754)">
	<stop  offset="0" style="stop-color:#FFFFFF"/>
	<stop  offset="1" style="stop-color:#1C75BC"/>
</linearGradient>
<path opacity="0.7" fill="url(#SVGID_4_)" enable-background="new    " d="M398.285,216.264c0,0-91.84-39.199-82.456-2.361
	C315.829,213.902,284.766,164.866,398.285,216.264z"/>
<g>
	<g>
		<path fill="#27AAE1" d="M410.67,209.649c0,1.33-0.21,2.484-0.63,3.464c-0.42,0.979-0.986,1.79-1.697,2.432
			c-0.712,0.641-1.527,1.12-2.449,1.435s-1.896,0.473-2.922,0.473c-1.143,0-2.257-0.274-3.342-0.822
			c-1.084-0.548-2.023-1.266-2.815-2.152l2.764-2.204c0.443,0.443,0.962,0.822,1.557,1.137c0.596,0.315,1.23,0.472,1.907,0.472
			c1.189,0,2.163-0.327,2.921-0.979c0.758-0.653,1.137-1.61,1.137-2.87v-1.819c-0.56,0.607-1.236,1.102-2.028,1.487
			c-0.793,0.385-1.646,0.577-2.555,0.577c-1.189,0-2.169-0.233-2.938-0.7c-0.771-0.466-1.354-0.957-1.75-1.47
			c-0.257-0.327-0.467-0.641-0.63-0.945c-0.164-0.303-0.297-0.694-0.402-1.172c-0.104-0.478-0.181-1.09-0.228-1.837
			c-0.047-0.746-0.07-1.726-0.07-2.939c0-1.236,0.023-2.228,0.07-2.975c0.046-0.746,0.123-1.358,0.228-1.837
			c0.105-0.478,0.239-0.869,0.402-1.172c0.163-0.303,0.373-0.618,0.63-0.944c0.396-0.513,0.979-1.003,1.75-1.47
			c0.77-0.466,1.75-0.7,2.938-0.7c0.91,0,1.732,0.175,2.468,0.524c0.734,0.35,1.439,0.875,2.116,1.575v-1.89h3.569V209.649
			L410.67,209.649z M407.101,201.217c0-0.723-0.006-1.306-0.018-1.75c-0.012-0.442-0.041-0.81-0.087-1.102
			c-0.047-0.292-0.117-0.53-0.21-0.717s-0.222-0.385-0.385-0.595c-0.258-0.327-0.612-0.635-1.067-0.927s-1.032-0.438-1.732-0.438
			c-0.723,0-1.312,0.146-1.767,0.438s-0.811,0.601-1.067,0.927c-0.163,0.21-0.292,0.408-0.385,0.595s-0.164,0.426-0.21,0.717
			c-0.047,0.292-0.076,0.66-0.087,1.102c-0.012,0.444-0.018,1.027-0.018,1.75c0,0.7,0.005,1.271,0.018,1.714
			c0.012,0.443,0.041,0.811,0.087,1.102c0.046,0.292,0.117,0.531,0.21,0.717c0.093,0.187,0.223,0.385,0.385,0.595
			c0.257,0.327,0.612,0.636,1.067,0.927c0.455,0.292,1.044,0.437,1.767,0.437c0.7,0,1.277-0.145,1.732-0.437
			s0.811-0.601,1.067-0.927c0.163-0.21,0.292-0.408,0.385-0.595c0.093-0.186,0.163-0.425,0.21-0.717
			c0.046-0.291,0.076-0.659,0.087-1.102C407.095,202.488,407.101,201.917,407.101,201.217z"/>
		<path fill="#27AAE1" d="M424.667,196.563c-0.42-0.327-0.801-0.554-1.139-0.683c-0.338-0.128-0.74-0.192-1.207-0.192
			c-0.443,0-0.869,0.07-1.278,0.21c-0.408,0.14-0.775,0.362-1.102,0.665c-0.327,0.303-0.59,0.688-0.788,1.154
			c-0.198,0.467-0.297,1.027-0.297,1.68v10.672h-3.569v-17.741h3.569v1.89h0.069c1.12-1.399,2.659-2.099,4.62-2.099
			c0.723,0,1.389,0.122,1.994,0.367c0.605,0.245,1.178,0.577,1.715,0.997L424.667,196.563z"/>
		<path fill="#92C5EB" d="M439.501,210.069v-10.567c0-1.212-0.332-2.152-0.998-2.817c-0.664-0.665-1.498-0.997-2.5-0.997
			c-1.051,0-1.902,0.333-2.555,0.997c-0.654,0.665-0.98,1.604-0.98,2.817v10.567H428.9v-17.741h3.568v1.89h0.07
			c1.119-1.399,2.658-2.099,4.619-2.099c0.699,0,1.396,0.134,2.1,0.402c0.699,0.268,1.328,0.659,1.889,1.172
			c0.561,0.514,1.02,1.155,1.383,1.925c0.361,0.77,0.541,1.656,0.541,2.659v11.792H439.501z"/>
		<path fill="#92C5EB" d="M450.384,202.546c0,1.47,0.393,2.566,1.172,3.289c0.781,0.723,1.803,1.084,3.062,1.084
			c0.678,0,1.357-0.151,2.047-0.455c0.688-0.303,1.301-0.723,1.838-1.26l2.59,2.205c-0.887,1.05-1.879,1.791-2.975,2.222
			c-1.1,0.432-2.24,0.647-3.43,0.647c-0.91,0-1.832-0.128-2.766-0.385c-0.934-0.256-1.779-0.723-2.537-1.4
			c-0.758-0.676-1.377-1.598-1.854-2.764c-0.479-1.166-0.719-2.659-0.719-4.479c0-1.726,0.223-3.172,0.666-4.339
			c0.441-1.166,1.014-2.105,1.715-2.817c0.699-0.711,1.48-1.218,2.344-1.522c0.863-0.303,1.727-0.455,2.59-0.455
			c0.98,0,1.912,0.175,2.799,0.524c0.889,0.35,1.662,0.852,2.326,1.505c0.666,0.653,1.195,1.44,1.592,2.362
			c0.396,0.922,0.598,1.954,0.598,3.097v2.939h-11.059V202.546z M457.873,199.607c-0.049-1.353-0.42-2.379-1.121-3.079
			c-0.699-0.7-1.574-1.05-2.623-1.05c-1.051,0-1.926,0.35-2.625,1.05c-0.699,0.7-1.074,1.727-1.119,3.079H457.873z"/>
		<path fill="#92C5EB" d="M469.699,210.069c-1.26,0-2.293-0.379-3.098-1.137c-0.805-0.758-1.207-1.837-1.207-3.237v-10.637h-1.785
			v-2.729h1.785v-5.388h3.57v5.388h2.588v2.729h-2.588v10.322c0,0.49,0.098,0.834,0.297,1.032c0.197,0.199,0.518,0.297,0.961,0.297
			h1.33v3.359L469.699,210.069L469.699,210.069z"/>
	</g>
</g>
</svg>
