<?xml version="1.0" encoding="utf-8"?>
<!-- Generator: Adobe Illustrator 16.0.0, SVG Export Plug-In . SVG Version: 6.00 Build 0)  -->
<!DOCTYPE svg PUBLIC "-//W3C//DTD SVG 1.1//EN" "http://www.w3.org/Graphics/SVG/1.1/DTD/svg11.dtd">
<svg version="1.1" id="Layer_1" xmlns="http://www.w3.org/2000/svg" xmlns:xlink="http://www.w3.org/1999/xlink" x="0px" y="0px"
	 width="420.527px" height="159.52px" viewBox="103.583 297.599 420.527 159.52"
	 enable-background="new 103.583 297.599 420.527 159.52" xml:space="preserve">
<text transform="matrix(1 0 0 1 246.7881 432.5771)" fill="#A7A9AC" font-family="'MyriadPro-Semibold'" font-size="17.3567">Ne</text>
<text transform="matrix(1 0 0 1 267.8242 432.5771)" fill="#A7A9AC" font-family="'MyriadPro-Semibold'" font-size="17.3567">t</text>
<text transform="matrix(1 0 0 1 274.2109 432.5771)" fill="#A7A9AC" font-family="'MyriadPro-Semibold'" font-size="17.3567">w</text>
<text transform="matrix(1 0 0 1 287.1592 432.5771)" fill="#A7A9AC" font-family="'MyriadPro-Semibold'" font-size="17.3567">o</text>
<text transform="matrix(1 0 0 1 297.104 432.5771)" fill="#A7A9AC" font-family="'MyriadPro-Semibold'" font-size="17.3567">r</text>
<text transform="matrix(1 0 0 1 303.457 432.5771)" fill="#A7A9AC" font-family="'MyriadPro-Semibold'" font-size="17.3567">k</text>
<text transform="matrix(1 0 0 1 312.6895 432.5771)" fill="#A7A9AC" font-family="'MyriadPro-Semibold'" font-size="17.3567">i</text>
<text transform="matrix(1 0 0 1 317.29 432.5771)" fill="#A7A9AC" font-family="'MyriadPro-Semibold'" font-size="17.3567">n</text>
<text transform="matrix(1 0 0 1 327.3926 432.5771)" fill="#A7A9AC" font-family="'MyriadPro-Semibold'" font-size="17.3567">g</text>
<text transform="matrix(1 0 0 1 337.4932 432.5771)" fill="#A7A9AC" font-family="'MyriadPro-Semibold'" font-size="17.3567"> Resea</text>
<text transform="matrix(1 0 0 1 385.9688 432.5771)" fill="#A7A9AC" font-family="'MyriadPro-Semibold'" font-size="17.3567">r</text>
<text transform="matrix(1 0 0 1 392.165 432.5771)" fill="#A7A9AC" font-family="'MyriadPro-Semibold'" font-size="17.3567">ch and </text>
<text transform="matrix(1 0 0 1 447.1152 432.5771)" fill="#A7A9AC" font-family="'MyriadPro-Semibold'" font-size="17.3567">Ed</text>
<text transform="matrix(1 0 0 1 466.4502 432.5771)" fill="#A7A9AC" font-family="'MyriadPro-Semibold'" font-size="17.3567">uc</text>
<text transform="matrix(1 0 0 1 484.4668 432.5771)" fill="#A7A9AC" font-family="'MyriadPro-Semibold'" font-size="17.3567">a</text>
<text transform="matrix(1 0 0 1 493.3516 432.5771)" fill="#A7A9AC" font-family="'MyriadPro-Semibold'" font-size="17.3567">t</text>
<text transform="matrix(1 0 0 1 499.6016 432.5771)" fill="#A7A9AC" font-family="'MyriadPro-Semibold'" font-size="17.3567">io</text>
<text transform="matrix(1 0 0 1 514.1816 432.5771)" fill="#A7A9AC" font-family="'MyriadPro-Semibold'" font-size="17.3567">n</text>
<g>
	<g>
		<defs>
			<path id="SVGID_1_" d="M194.956,369.766c-28.677-9.267-48.746-12.878-62.616-12.878c-0.563,0-1.112,0.006-1.654,0.017
				c3.468-9.711,9.393-18.257,17.025-24.885c-1.849,5.843-3.733,12.53-5.646,20.105c0,0,4.297-14.511,11.26-24.424
				c5.18-3.516,10.941-6.234,17.114-7.98C177.933,323.414,186.343,337.251,194.956,369.766 M228.866,381.868
				c-10.778-4.159-20.683-7.722-29.746-10.736c-3.85-20.136-8.536-39.731-13.974-53.629c0.498-0.013,0.995-0.019,1.496-0.019
				c11.851,0,22.888,3.469,32.155,9.446c-3.821-0.229-6.555-0.249-7.39-0.249c-0.175,0-0.267,0.001-0.267,0.001
				c3.557,0.459,6.806,1.019,9.766,1.673c10.904,7.713,19.095,19.01,22.856,32.174C240.794,367.271,235.504,374.527,228.866,381.868
				 M244.954,388.256c-1.699-0.693-3.37-1.368-5.03-2.035c2.152-1.858,4.148-3.661,5.99-5.405
				C245.749,383.343,245.426,385.825,244.954,388.256 M204.797,404.624c-1.343-8.9-2.88-18.32-4.599-27.728
				c8.882,2.29,17.762,4.877,26.283,7.552C220.056,391.255,212.572,398.093,204.797,404.624 M208.606,432.092
				c-0.78-6.139-1.713-13.118-2.792-20.585c13.088-8.658,23.6-16.436,31.914-23.417c2.303,0.768,4.561,1.534,6.773,2.296
				C240.072,409.441,226.475,424.979,208.606,432.092 M167.232,433.04c-23.273-8.044-39.99-30.149-39.99-56.156
				c0-2.148,0.115-4.273,0.337-6.363c5.179-1.514,11.327-2.185,18.15-2.185c14.769,0,32.706,3.14,50.816,7.636
				c2.173,8.769,4.355,18.749,6.536,30.084C190.7,416.333,177.731,425.775,167.232,433.04 M186.642,436.284
				c-5.915,0-11.626-0.864-17.018-2.476c13.152-7.635,24.643-14.716,34.671-21.302c1.15,6.251,2.299,12.883,3.446,19.921
				C201.186,434.919,194.072,436.284,186.642,436.284"/>
		</defs>
		<clipPath id="SVGID_2_">
			<use xlink:href="#SVGID_1_"  overflow="visible"/>
		</clipPath>
		
			<radialGradient id="SVGID_3_" cx="278.1338" cy="-400.9292" r="0.9995" gradientTransform="matrix(59.4 0 0 59.4 -16334.5449 24192.0859)" gradientUnits="userSpaceOnUse">
			<stop  offset="0" style="stop-color:#939598"/>
			<stop  offset="0.1044" style="stop-color:#939598"/>
			<stop  offset="0.296" style="stop-color:#ADAFB2"/>
			<stop  offset="0.6194" style="stop-color:#D7D9DA"/>
			<stop  offset="0.8642" style="stop-color:#F2F2F3"/>
			<stop  offset="1" style="stop-color:#FFFFFF"/>
		</radialGradient>
		<rect x="127.242" y="317.484" clip-path="url(#SVGID_2_)" fill="url(#SVGID_3_)" width="118.672" height="118.8"/>
	</g>
</g>
<path fill="#BCBEC0" d="M145.395,447.462c0,0,173.457-106.893,65.745-120.78C211.14,326.682,368.505,325.17,145.395,447.462"/>
<path fill="#7B7D7F" d="M211.509,457.119c-1.25-8.731-2.509-16.96-3.768-24.69c0.29-0.108,0.578-0.223,0.865-0.337
	C210.514,447.105,211.509,457.119,211.509,457.119"/>
<g>
	<g>
		<defs>
			<path id="SVGID_4_" d="M203.081,406.057c-2.181-11.335-4.363-21.315-6.536-30.084c1.22,0.303,2.432,0.61,3.653,0.924
				c1.719,9.408,3.256,18.828,4.599,27.728C204.228,405.103,203.653,405.582,203.081,406.057 M207.741,432.429
				c-1.147-7.038-2.296-13.67-3.446-19.921c0.507-0.333,1.019-0.671,1.519-1.001c1.079,7.467,2.012,14.446,2.792,20.585
				C208.319,432.206,208.031,432.319,207.741,432.429"/>
		</defs>
		<clipPath id="SVGID_5_">
			<use xlink:href="#SVGID_4_"  overflow="visible"/>
		</clipPath>
		
			<radialGradient id="SVGID_6_" cx="278.1348" cy="-400.9287" r="0.9995" gradientTransform="matrix(59.4 0 0 59.4 -16334.5449 24192.0859)" gradientUnits="userSpaceOnUse">
			<stop  offset="0" style="stop-color:#5C5D60"/>
			<stop  offset="0.1044" style="stop-color:#5D5E60"/>
			<stop  offset="0.626" style="stop-color:#717375"/>
			<stop  offset="1" style="stop-color:#7B7D7F"/>
		</radialGradient>
		<rect x="196.545" y="375.972" clip-path="url(#SVGID_5_)" fill="url(#SVGID_6_)" width="12.061" height="56.457"/>
	</g>
</g>
<path fill="#6A6B6D" d="M204.295,412.508c-0.404-2.197-0.809-4.347-1.214-6.45c0.573-0.476,1.147-0.955,1.716-1.433
	c0.352,2.33,0.692,4.631,1.017,6.882C205.315,411.837,204.802,412.175,204.295,412.508"/>
<path fill="#7B7D7F" d="M147.711,332.02c7.782-24.591,14.986-34.421,21.546-34.421c5.829,0,11.146,7.78,15.889,19.904
	c-5.085,0.126-10.016,0.891-14.707,2.218c-1.487-0.733-2.94-1.067-4.349-1.067c-4.822,0-9.153,3.904-12.765,9.047
	C151.367,329.03,149.493,330.473,147.711,332.02"/>
<g>
	<g>
		<defs>
			<path id="SVGID_7_" d="M142.065,352.125c1.913-7.575,3.797-14.262,5.646-20.105c1.782-1.548,3.656-2.99,5.614-4.319
				C146.362,337.614,142.065,352.125,142.065,352.125 M199.12,371.132c-1.41-0.469-2.794-0.923-4.164-1.366
				c-8.613-32.515-17.023-46.352-24.517-50.045c4.691-1.327,9.622-2.093,14.707-2.218
				C190.584,331.401,195.27,350.996,199.12,371.132"/>
		</defs>
		<clipPath id="SVGID_8_">
			<use xlink:href="#SVGID_7_"  overflow="visible"/>
		</clipPath>
		
			<radialGradient id="SVGID_9_" cx="278.1343" cy="-400.9297" r="1.001" gradientTransform="matrix(59.4 0 0 59.4 -16334.5449 24192.0859)" gradientUnits="userSpaceOnUse">
			<stop  offset="0" style="stop-color:#5C5D60"/>
			<stop  offset="0.1044" style="stop-color:#5D5E60"/>
			<stop  offset="0.626" style="stop-color:#717375"/>
			<stop  offset="1" style="stop-color:#7B7D7F"/>
		</radialGradient>
		<rect x="142.065" y="317.503" clip-path="url(#SVGID_8_)" fill="url(#SVGID_9_)" width="57.055" height="53.629"/>
	</g>
</g>
<path fill="#A3A5A8" d="M289.143,407.331c0,0-19.022-8.119-44.642-16.945c0.164-0.705,0.315-1.415,0.453-2.13
	C258.414,393.743,273.106,400.07,289.143,407.331"/>
<g>
	<g>
		<defs>
			<path id="SVGID_10_" d="M226.481,384.448c-8.521-2.675-17.401-5.262-26.283-7.552c-0.352-1.922-0.711-3.847-1.078-5.764
				c9.063,3.014,18.968,6.577,29.746,10.736C228.088,382.727,227.294,383.586,226.481,384.448 M244.501,390.386
				c-2.212-0.762-4.47-1.528-6.773-2.296c0.754-0.632,1.478-1.249,2.196-1.869c1.66,0.667,3.331,1.342,5.03,2.035
				C244.816,388.971,244.665,389.681,244.501,390.386"/>
		</defs>
		<clipPath id="SVGID_11_">
			<use xlink:href="#SVGID_10_"  overflow="visible"/>
		</clipPath>
		
			<radialGradient id="SVGID_12_" cx="278.1348" cy="-400.9292" r="1" gradientTransform="matrix(59.4 0 0 59.4 -16334.5449 24192.0859)" gradientUnits="userSpaceOnUse">
			<stop  offset="0" style="stop-color:#86888B"/>
			<stop  offset="0.1044" style="stop-color:#86888B"/>
			<stop  offset="0.631" style="stop-color:#999B9E"/>
			<stop  offset="1" style="stop-color:#A3A5A8"/>
		</radialGradient>
		<rect x="199.12" y="371.132" clip-path="url(#SVGID_11_)" fill="url(#SVGID_12_)" width="45.834" height="19.254"/>
	</g>
</g>
<path fill="#919396" d="M237.728,388.09c-3.656-1.219-7.416-2.44-11.248-3.642c0.813-0.862,1.608-1.721,2.385-2.58
	c3.585,1.383,7.274,2.835,11.058,4.353C239.206,386.841,238.481,387.458,237.728,388.09"/>
<path fill="#A3A5A8" d="M111.933,402.255c0,0-28.084-44.335,18.753-45.35c-1.547,4.331-2.604,8.888-3.107,13.616
	C114.189,374.438,107.283,384.003,111.933,402.255"/>
<g>
	<g>
		<defs>
			<path id="SVGID_13_" d="M196.545,375.972c-18.11-4.496-36.047-7.636-50.816-7.636c-6.823,0-12.971,0.671-18.15,2.185
				c0.503-4.728,1.56-9.285,3.107-13.616c0.542-0.011,1.091-0.017,1.654-0.017c13.87,0,33.939,3.611,62.616,12.878
				C195.485,371.763,196.015,373.833,196.545,375.972"/>
		</defs>
		<clipPath id="SVGID_14_">
			<use xlink:href="#SVGID_13_"  overflow="visible"/>
		</clipPath>
		
			<radialGradient id="SVGID_15_" cx="278.1348" cy="-400.9292" r="1" gradientTransform="matrix(59.4 0 0 59.4 -16334.5449 24192.0859)" gradientUnits="userSpaceOnUse">
			<stop  offset="0" style="stop-color:#86888B"/>
			<stop  offset="0.1044" style="stop-color:#86888B"/>
			<stop  offset="0.631" style="stop-color:#999B9E"/>
			<stop  offset="1" style="stop-color:#A3A5A8"/>
		</radialGradient>
		<rect x="127.579" y="356.888" clip-path="url(#SVGID_14_)" fill="url(#SVGID_15_)" width="68.966" height="19.084"/>
	</g>
</g>
<g>
	<g>
		<defs>
			<path id="SVGID_16_" d="M200.198,376.896c-1.221-0.314-2.433-0.621-3.653-0.924c-0.53-2.139-1.06-4.209-1.589-6.206
				c1.37,0.443,2.754,0.897,4.164,1.366C199.487,373.049,199.846,374.974,200.198,376.896"/>
		</defs>
		<clipPath id="SVGID_17_">
			<use xlink:href="#SVGID_16_"  overflow="visible"/>
		</clipPath>
		
			<radialGradient id="SVGID_18_" cx="278.1348" cy="-400.9292" r="1" gradientTransform="matrix(59.4 0 0 59.4 -16334.5449 24192.0859)" gradientUnits="userSpaceOnUse">
			<stop  offset="0" style="stop-color:#76777A"/>
			<stop  offset="0.1044" style="stop-color:#76777A"/>
			<stop  offset="0.2475" style="stop-color:#78797C"/>
			<stop  offset="1" style="stop-color:#7F8183"/>
		</radialGradient>
		<rect x="194.956" y="369.766" clip-path="url(#SVGID_17_)" fill="url(#SVGID_18_)" width="5.242" height="7.13"/>
	</g>
</g>
<text transform="matrix(1 0 0 1 281.6909 394.0156)" fill="#A7A9AC" font-family="'ArialMT'" font-size="75.1984">gr</text>
<text transform="matrix(1 0 0 1 349.9707 394.0156)" fill="#D1D3D4" font-family="'ArialMT'" font-size="75.1984">net</text>
</svg>
