<?xml version="1.0" encoding="UTF-8" standalone="no"?>
<!-- Created with Inkscape (http://www.inkscape.org/) -->

<svg
   xmlns:dc="http://purl.org/dc/elements/1.1/"
   xmlns:cc="http://creativecommons.org/ns#"
   xmlns:rdf="http://www.w3.org/1999/02/22-rdf-syntax-ns#"
   xmlns:svg="http://www.w3.org/2000/svg"
   xmlns="http://www.w3.org/2000/svg"
   xmlns:xlink="http://www.w3.org/1999/xlink"
   xmlns:sodipodi="http://sodipodi.sourceforge.net/DTD/sodipodi-0.dtd"
   xmlns:inkscape="http://www.inkscape.org/namespaces/inkscape"
   version="1.2"
   width="777.05945"
   height="171.34457"
   id="svg2"
   inkscape:version="0.48.1 r9760"
   sodipodi:docname="pithos_logo-title-padding.svg">
  <metadata
     id="metadata107">
    <rdf:RDF>
      <cc:Work
         rdf:about="">
        <dc:format>image/svg+xml</dc:format>
        <dc:type
           rdf:resource="http://purl.org/dc/dcmitype/StillImage" />
        <dc:title></dc:title>
      </cc:Work>
    </rdf:RDF>
  </metadata>
  <sodipodi:namedview
     pagecolor="#ffffff"
     bordercolor="#666666"
     borderopacity="1"
     objecttolerance="10"
     gridtolerance="10"
     guidetolerance="10"
     inkscape:pageopacity="0"
     inkscape:pageshadow="2"
     inkscape:window-width="1713"
     inkscape:window-height="857"
     id="namedview105"
     showgrid="false"
     inkscape:zoom="0.5472913"
     inkscape:cx="182.41562"
     inkscape:cy="112.30724"
     inkscape:window-x="0"
     inkscape:window-y="24"
     inkscape:window-maximized="0"
     inkscape:current-layer="g3951"
     fit-margin-top="0"
     fit-margin-left="0"
     fit-margin-right="0"
     fit-margin-bottom="0" />
  <defs
     id="defs4">
    <radialGradient
       cx="186.79543"
       cy="632.40369"
       r="33.619755"
       fx="186.79543"
       fy="632.40369"
       id="radialGradient3628"
       xlink:href="#linearGradient3622"
       gradientUnits="userSpaceOnUse" />
    <linearGradient
       x1="150.00912"
       y1="424.96896"
       x2="329.97159"
       y2="424.96896"
       id="linearGradient3461"
       xlink:href="#linearGradient3437"
       gradientUnits="userSpaceOnUse" />
    <linearGradient
       x1="200.00404"
       y1="331.03073"
       x2="279.98737"
       y2="331.03073"
       id="linearGradient3457"
       xlink:href="#linearGradient3437"
       gradientUnits="userSpaceOnUse" />
    <linearGradient
       x1="190.00456"
       y1="342.16382"
       x2="279.98581"
       y2="342.16382"
       id="linearGradient3455"
       xlink:href="#linearGradient3437"
       gradientUnits="userSpaceOnUse" />
    <linearGradient
       x1="180.00658"
       y1="357.43338"
       x2="309.97949"
       y2="357.43338"
       id="linearGradient3453"
       xlink:href="#linearGradient3437"
       gradientUnits="userSpaceOnUse" />
    <linearGradient
       x1="160.0081"
       y1="387.43338"
       x2="319.97476"
       y2="387.43338"
       id="linearGradient3451"
       xlink:href="#linearGradient3437"
       gradientUnits="userSpaceOnUse" />
    <linearGradient
       x1="170.00658"
       y1="472.50458"
       x2="305.00269"
       y2="474.45435"
       id="linearGradient3447"
       xlink:href="#linearGradient3437"
       gradientUnits="userSpaceOnUse" />
    <linearGradient
       x1="200.00404"
       y1="514.96899"
       x2="279.98737"
       y2="514.96899"
       id="linearGradient3445"
       xlink:href="#linearGradient3437"
       gradientUnits="userSpaceOnUse" />
    <linearGradient
       id="linearGradient3437">
      <stop
         id="stop3439"
         style="stop-color:#ff6600;stop-opacity:1;"
         offset="0" />
      <stop
         id="stop3441"
         style="stop-color:#b84400;stop-opacity:1;"
         offset="1" />
    </linearGradient>
    <radialGradient
       cx="186.79543"
       cy="632.40369"
       r="33.619755"
       fx="186.79543"
       fy="632.40369"
       id="radialGradient3196"
       xlink:href="#linearGradient3183"
       gradientUnits="userSpaceOnUse" />
    <linearGradient
       id="linearGradient3183">
      <stop
         id="stop3185"
         style="stop-color:#ff6600;stop-opacity:1"
         offset="0" />
      <stop
         id="stop3187"
         style="stop-color:#ff6600;stop-opacity:0"
         offset="1" />
    </linearGradient>
    <linearGradient
       id="linearGradient3622">
      <stop
         id="stop3624"
         style="stop-color:#d45500;stop-opacity:1"
         offset="0" />
      <stop
         id="stop3626"
         style="stop-color:#d45500;stop-opacity:0"
         offset="1" />
    </linearGradient>
    <linearGradient
       x1="200.00404"
       y1="331.03073"
       x2="279.98737"
       y2="331.03073"
       id="linearGradient4176"
       xlink:href="#linearGradient3437"
       gradientUnits="userSpaceOnUse" />
    <linearGradient
       x1="190.00456"
       y1="342.16382"
       x2="279.98581"
       y2="342.16382"
       id="linearGradient4178"
       xlink:href="#linearGradient3437"
       gradientUnits="userSpaceOnUse" />
    <linearGradient
       x1="180.00658"
       y1="357.43338"
       x2="309.97949"
       y2="357.43338"
       id="linearGradient4180"
       xlink:href="#linearGradient3437"
       gradientUnits="userSpaceOnUse" />
    <linearGradient
       x1="160.0081"
       y1="387.43338"
       x2="319.97476"
       y2="387.43338"
       id="linearGradient4182"
       xlink:href="#linearGradient3437"
       gradientUnits="userSpaceOnUse" />
    <linearGradient
       x1="150.00912"
       y1="424.96896"
       x2="329.97159"
       y2="424.96896"
       id="linearGradient4184"
       xlink:href="#linearGradient3437"
       gradientUnits="userSpaceOnUse" />
    <linearGradient
       x1="170.00658"
       y1="472.50458"
       x2="305.00269"
       y2="474.45435"
       id="linearGradient4186"
       xlink:href="#linearGradient3437"
       gradientUnits="userSpaceOnUse" />
    <linearGradient
       x1="200.00404"
       y1="514.96899"
       x2="279.98737"
       y2="514.96899"
       id="linearGradient4188"
       xlink:href="#linearGradient3437"
       gradientUnits="userSpaceOnUse" />
    <linearGradient
       x1="190.00249"
       y1="339.86221"
       x2="279.98581"
       y2="339.86221"
       id="linearGradient4190"
       xlink:href="#linearGradient3437"
       gradientUnits="userSpaceOnUse" />
    <radialGradient
       cx="186.79543"
       cy="632.40369"
       r="33.619755"
       fx="186.79543"
       fy="632.40369"
       id="radialGradient3628-0"
       xlink:href="#linearGradient3622-1"
       gradientUnits="userSpaceOnUse" />
    <linearGradient
       x1="150.00912"
       y1="424.96896"
       x2="329.97159"
       y2="424.96896"
       id="linearGradient3461-4"
       xlink:href="#linearGradient3437-2"
       gradientUnits="userSpaceOnUse" />
    <linearGradient
       x1="200.00404"
       y1="331.03073"
       x2="279.98737"
       y2="331.03073"
       id="linearGradient3457-9"
       xlink:href="#linearGradient3437-2"
       gradientUnits="userSpaceOnUse" />
    <linearGradient
       x1="190.00456"
       y1="342.16382"
       x2="279.98581"
       y2="342.16382"
       id="linearGradient3455-9"
       xlink:href="#linearGradient3437-2"
       gradientUnits="userSpaceOnUse" />
    <linearGradient
       x1="180.00658"
       y1="357.43338"
       x2="309.97949"
       y2="357.43338"
       id="linearGradient3453-6"
       xlink:href="#linearGradient3437-2"
       gradientUnits="userSpaceOnUse" />
    <linearGradient
       x1="160.0081"
       y1="387.43338"
       x2="319.97476"
       y2="387.43338"
       id="linearGradient3451-9"
       xlink:href="#linearGradient3437-2"
       gradientUnits="userSpaceOnUse" />
    <linearGradient
       x1="170.00658"
       y1="472.50458"
       x2="305.00269"
       y2="474.45435"
       id="linearGradient3447-6"
       xlink:href="#linearGradient3437-2"
       gradientUnits="userSpaceOnUse" />
    <linearGradient
       x1="200.00404"
       y1="514.96899"
       x2="279.98737"
       y2="514.96899"
       id="linearGradient3445-4"
       xlink:href="#linearGradient3437-2"
       gradientUnits="userSpaceOnUse" />
    <linearGradient
       x1="190.00249"
       y1="339.86221"
       x2="279.98581"
       y2="339.86221"
       id="linearGradient3443-6"
       xlink:href="#linearGradient3437-2"
       gradientUnits="userSpaceOnUse" />
    <linearGradient
       id="linearGradient3437-2">
      <stop
         id="stop3439-1"
         style="stop-color:#aa4400;stop-opacity:1"
         offset="0" />
      <stop
         id="stop3441-2"
         style="stop-color:#aa4400;stop-opacity:0"
         offset="1" />
    </linearGradient>
    <radialGradient
       cx="186.79543"
       cy="632.40369"
       r="33.619755"
       fx="186.79543"
       fy="632.40369"
       id="radialGradient3196-1"
       xlink:href="#linearGradient3183-2"
       gradientUnits="userSpaceOnUse" />
    <linearGradient
       id="linearGradient3183-2">
      <stop
         id="stop3185-5"
         style="stop-color:#ff6600;stop-opacity:1"
         offset="0" />
      <stop
         id="stop3187-3"
         style="stop-color:#ff6600;stop-opacity:0"
         offset="1" />
    </linearGradient>
    <linearGradient
       id="linearGradient3622-1">
      <stop
         id="stop3624-7"
         style="stop-color:#d45500;stop-opacity:1"
         offset="0" />
      <stop
         id="stop3626-8"
         style="stop-color:#d45500;stop-opacity:0"
         offset="1" />
    </linearGradient>
    <linearGradient
       x1="200.00404"
       y1="331.03073"
       x2="279.98737"
       y2="331.03073"
       id="linearGradient4492"
       xlink:href="#linearGradient3437"
       gradientUnits="userSpaceOnUse" />
    <linearGradient
       x1="190.00456"
       y1="342.16382"
       x2="279.98581"
       y2="342.16382"
       id="linearGradient4494"
       xlink:href="#linearGradient3437"
       gradientUnits="userSpaceOnUse" />
    <linearGradient
       x1="180.00658"
       y1="357.43338"
       x2="309.97949"
       y2="357.43338"
       id="linearGradient4496"
       xlink:href="#linearGradient3437"
       gradientUnits="userSpaceOnUse" />
    <linearGradient
       x1="160.0081"
       y1="387.43338"
       x2="319.97476"
       y2="387.43338"
       id="linearGradient4498"
       xlink:href="#linearGradient3437"
       gradientUnits="userSpaceOnUse" />
    <linearGradient
       x1="150.00912"
       y1="424.96896"
       x2="329.97159"
       y2="424.96896"
       id="linearGradient4500"
       xlink:href="#linearGradient3437"
       gradientUnits="userSpaceOnUse" />
    <linearGradient
       x1="170.00658"
       y1="472.50458"
       x2="305.00269"
       y2="474.45435"
       id="linearGradient4502"
       xlink:href="#linearGradient3437"
       gradientUnits="userSpaceOnUse" />
    <linearGradient
       x1="200.00404"
       y1="514.96899"
       x2="279.98737"
       y2="514.96899"
       id="linearGradient4504"
       xlink:href="#linearGradient3437"
       gradientUnits="userSpaceOnUse" />
    <linearGradient
       x1="190.00249"
       y1="339.86221"
       x2="279.98581"
       y2="339.86221"
       id="linearGradient4506"
       xlink:href="#linearGradient3437"
       gradientUnits="userSpaceOnUse" />
    <linearGradient
       x1="190.00249"
       y1="339.86221"
       x2="279.98581"
       y2="339.86221"
       id="linearGradient4540"
       xlink:href="#linearGradient3437"
       gradientUnits="userSpaceOnUse" />
    <linearGradient
       x1="200.00404"
       y1="514.96899"
       x2="279.98737"
       y2="514.96899"
       id="linearGradient4542"
       xlink:href="#linearGradient3437"
       gradientUnits="userSpaceOnUse" />
    <linearGradient
       x1="170.00658"
       y1="472.50458"
       x2="305.00269"
       y2="474.45435"
       id="linearGradient4544"
       xlink:href="#linearGradient3437"
       gradientUnits="userSpaceOnUse" />
    <linearGradient
       x1="150.00912"
       y1="424.96896"
       x2="329.97159"
       y2="424.96896"
       id="linearGradient4546"
       xlink:href="#linearGradient3437"
       gradientUnits="userSpaceOnUse" />
    <linearGradient
       x1="160.0081"
       y1="387.43338"
       x2="319.97476"
       y2="387.43338"
       id="linearGradient4548"
       xlink:href="#linearGradient3437"
       gradientUnits="userSpaceOnUse" />
    <linearGradient
       x1="180.00658"
       y1="357.43338"
       x2="309.97949"
       y2="357.43338"
       id="linearGradient4550"
       xlink:href="#linearGradient3437"
       gradientUnits="userSpaceOnUse" />
    <linearGradient
       x1="190.00456"
       y1="342.16382"
       x2="279.98581"
       y2="342.16382"
       id="linearGradient4552"
       xlink:href="#linearGradient3437"
       gradientUnits="userSpaceOnUse" />
    <linearGradient
       x1="200.00404"
       y1="331.03073"
       x2="279.98737"
       y2="331.03073"
       id="linearGradient4554"
       xlink:href="#linearGradient3437"
       gradientUnits="userSpaceOnUse" />
    <linearGradient
       x1="200.00404"
       y1="331.03073"
       x2="279.98737"
       y2="331.03073"
       id="linearGradient3889"
       xlink:href="#linearGradient3437"
       gradientUnits="userSpaceOnUse" />
    <linearGradient
       x1="190.00456"
       y1="342.16382"
       x2="279.98581"
       y2="342.16382"
       id="linearGradient3891"
       xlink:href="#linearGradient3437"
       gradientUnits="userSpaceOnUse" />
    <linearGradient
       x1="180.00658"
       y1="357.43338"
       x2="309.97949"
       y2="357.43338"
       id="linearGradient3893"
       xlink:href="#linearGradient3437"
       gradientUnits="userSpaceOnUse" />
    <linearGradient
       x1="160.0081"
       y1="387.43338"
       x2="319.97476"
       y2="387.43338"
       id="linearGradient3895"
       xlink:href="#linearGradient3437"
       gradientUnits="userSpaceOnUse" />
    <linearGradient
       x1="150.00912"
       y1="424.96896"
       x2="329.97159"
       y2="424.96896"
       id="linearGradient3897"
       xlink:href="#linearGradient3437"
       gradientUnits="userSpaceOnUse" />
    <linearGradient
       x1="170.00658"
       y1="472.50458"
       x2="305.00269"
       y2="474.45435"
       id="linearGradient3899"
       xlink:href="#linearGradient3437"
       gradientUnits="userSpaceOnUse" />
    <linearGradient
       x1="200.00404"
       y1="514.96899"
       x2="279.98737"
       y2="514.96899"
       id="linearGradient3901"
       xlink:href="#linearGradient3437"
       gradientUnits="userSpaceOnUse" />
    <linearGradient
       x1="190.00249"
       y1="339.86221"
       x2="279.98581"
       y2="339.86221"
       id="linearGradient3903"
       xlink:href="#linearGradient3437"
       gradientUnits="userSpaceOnUse" />
    <linearGradient
       x1="190.00249"
       y1="339.86221"
       x2="279.98581"
       y2="339.86221"
       id="linearGradient3908"
       xlink:href="#linearGradient3437"
       gradientUnits="userSpaceOnUse"
       gradientTransform="matrix(0.75243453,0,0,1.390751,-61.083887,417.66372)" />
    <linearGradient
       x1="200.00404"
       y1="514.96899"
       x2="279.98737"
       y2="514.96899"
       id="linearGradient3912"
       xlink:href="#linearGradient3437"
       gradientUnits="userSpaceOnUse"
       gradientTransform="matrix(0.56429464,0,0,0.63214328,-19.694478,679.91084)" />
    <linearGradient
       x1="170.00658"
       y1="472.50458"
       x2="305.00269"
       y2="474.45435"
       id="linearGradient3916"
       xlink:href="#linearGradient3437"
       gradientUnits="userSpaceOnUse"
       gradientTransform="matrix(0.56429464,0,0,0.63214328,-16.87149,688.70261)" />
    <linearGradient
       x1="150.00912"
       y1="424.96896"
       x2="329.97159"
       y2="424.96896"
       id="linearGradient3920"
       xlink:href="#linearGradient3437"
       gradientUnits="userSpaceOnUse"
       gradientTransform="matrix(0.56429464,0,0,1.0217391,-19.691452,534.22151)" />
    <linearGradient
       x1="160.0081"
       y1="387.43338"
       x2="319.97476"
       y2="387.43338"
       id="linearGradient3924"
       xlink:href="#linearGradient3437"
       gradientUnits="userSpaceOnUse"
       gradientTransform="matrix(0.56429464,0,0,1.3506955,-19.692058,427.05673)" />
    <linearGradient
       x1="180.00658"
       y1="357.43338"
       x2="309.97949"
       y2="357.43338"
       id="linearGradient3928"
       xlink:href="#linearGradient3437"
       gradientUnits="userSpaceOnUse"
       gradientTransform="matrix(0.56429464,0,0,1.1687805,-22.51444,514.53246)" />
    <linearGradient
       x1="190.00456"
       y1="342.16382"
       x2="279.98581"
       y2="342.16382"
       id="linearGradient3932"
       xlink:href="#linearGradient3437"
       gradientUnits="userSpaceOnUse"
       gradientTransform="matrix(0.56429464,0,0,0.70414047,-16.872701,674.87246)" />
    <linearGradient
       x1="200.00404"
       y1="331.03073"
       x2="279.98737"
       y2="331.03073"
       id="linearGradient3936"
       xlink:href="#linearGradient3437"
       gradientUnits="userSpaceOnUse"
       gradientTransform="matrix(0.56429464,0,0,1.1225121,-19.694478,530.85877)" />
  </defs>
  <g
     transform="translate(-64.95789,-874.97179)"
     id="layer1">
    <g
       id="g3951">
      <g
         transform="matrix(4.6010896,0,0,4.6010896,135.25909,782.32389)"
         id="flowRoot11246"
         style="font-size:40px;font-style:normal;font-variant:normal;font-weight:normal;font-stretch:normal;fill:#4085a5;fill-opacity:1;stroke:none;display:inline;font-family:URW Gothic L;-inkscape-font-specification:URW Gothic L Book">
        <path
           d="m 12.52,27.816078 0,29.56 2.96,0 0,-11.44 c 1.919998,2.799998 4.880004,4.28 8.52,4.28 6.519993,0 11.6,-5.000006 11.6,-11.4 0,-6.519993 -5.000007,-11.52 -11.52,-11.52 -3.719996,0 -6.760002,1.520003 -8.6,4.28 l 0,-3.76 -2.96,0 m 11.44,2.2 c 4.919995,0 8.64,3.760005 8.64,8.8 0,4.919996 -3.720005,8.68 -8.6,8.68 -4.999995,0 -8.72,-3.800005 -8.72,-8.84 0,-4.839995 3.840005,-8.64 8.68,-8.64"
           id="path3062"
           style="fill:#4085a5;fill-opacity:1"
           inkscape:connector-curvature="0" />
      </g>
      <g
         transform="matrix(4.6010896,0,0,4.6010896,487.97827,782.46129)"
         id="flowRoot11246-5"
         style="font-size:40px;font-style:normal;font-variant:normal;font-weight:normal;font-stretch:normal;fill:#4085a5;fill-opacity:1;stroke:none;display:inline;font-family:URW Gothic L;-inkscape-font-specification:URW Gothic L Book">
        <path
           d="m 23.16,27.296078 c -6.479994,0 -11.48,4.920007 -11.48,11.32 0,6.719994 4.920007,11.6 11.72,11.6 6.399994,0 11.12,-4.840006 11.12,-11.4 0,-6.679993 -4.800007,-11.52 -11.36,-11.52 m 0,2.72 c 4.799995,0 8.36,3.760006 8.36,8.84 0,4.999995 -3.440005,8.64 -8.2,8.64 -5.039995,0 -8.64,-3.680005 -8.64,-8.8 0,-4.959995 3.640005,-8.68 8.48,-8.68"
           id="path3059"
           style="fill:#4085a5;fill-opacity:1"
           inkscape:connector-curvature="0" />
      </g>
      <g
         transform="matrix(4.6010896,0,0,4.8255925,607.16848,775.83833)"
         id="flowRoot11246-5-5-2-0"
         style="font-size:40px;font-style:normal;font-variant:normal;font-weight:normal;font-stretch:normal;fill:#4085a5;fill-opacity:1;stroke:none;display:inline;font-family:URW Gothic L;-inkscape-font-specification:URW Gothic L Book">
        <path
           d="m 28.554687,43.023214 c -1.8e-5,0.989588 -0.19533,1.875004 -0.585937,2.65625 -0.377622,0.768231 -0.931007,1.419272 -1.660156,1.953125 -0.729182,0.520834 -1.627619,0.924479 -2.695313,1.210937 -1.0547,0.273437 -2.265636,0.410156 -3.632812,0.410156 -1.223967,0 -2.330737,-0.09766 -3.320313,-0.292968 -0.976568,-0.182292 -1.835942,-0.481771 -2.578125,-0.898438 -0.742191,-0.416665 -1.36719,-0.96354 -1.875,-1.640625 -0.494793,-0.690101 -0.859376,-1.529944 -1.09375,-2.519531 l 3.105469,-0.605469 c 0.299475,1.132817 0.917964,1.96615 1.855469,2.5 0.937493,0.520836 2.239575,0.781252 3.90625,0.78125 0.755197,2e-6 1.445301,-0.05208 2.070312,-0.15625 0.638008,-0.104164 1.184883,-0.279945 1.640625,-0.527344 0.455715,-0.260413 0.807277,-0.598954 1.054688,-1.015625 0.260401,-0.429683 0.39061,-0.957026 0.390625,-1.582031 -1.5e-5,-0.638015 -0.149755,-1.158847 -0.449219,-1.5625 -0.299494,-0.416659 -0.71616,-0.761711 -1.25,-1.035156 -0.533867,-0.273429 -1.184908,-0.507804 -1.953125,-0.703125 -0.755219,-0.208324 -1.588552,-0.436189 -2.5,-0.683594 -0.846362,-0.221344 -1.686205,-0.46874 -2.519531,-0.742187 -0.833339,-0.273427 -1.588547,-0.6315 -2.265625,-1.074219 -0.664066,-0.455718 -1.20443,-1.015613 -1.621094,-1.679688 -0.416669,-0.664048 -0.625002,-1.497381 -0.625,-2.5 -2e-6,-1.927066 0.683591,-3.391908 2.050781,-4.394531 1.380203,-1.015604 3.38541,-1.523416 6.015625,-1.523437 2.330717,2.1e-5 4.179674,0.410177 5.546875,1.230468 1.380192,0.820332 2.252587,2.135435 2.617188,3.945313 L 25.019531,32.96462 C 24.902329,32.417761 24.687485,31.962033 24.375,31.597432 c -0.312514,-0.377586 -0.690118,-0.677065 -1.132813,-0.898437 -0.442721,-0.234357 -0.944022,-0.397117 -1.503906,-0.488281 -0.546886,-0.104148 -1.119802,-0.156232 -1.71875,-0.15625 -1.58855,1.8e-5 -2.760424,0.240904 -3.515625,0.722656 -0.755214,0.481788 -1.132818,1.210954 -1.132812,2.1875 -6e-6,0.572932 0.136713,1.048192 0.410156,1.425781 0.286452,0.364598 0.677077,0.677097 1.171875,0.9375 0.507805,0.247409 1.113273,0.468763 1.816406,0.664063 0.703116,0.182304 1.477855,0.377616 2.324219,0.585937 0.559884,0.143241 1.1328,0.299491 1.71875,0.46875 0.585924,0.156262 1.15233,0.351574 1.699219,0.585938 0.559881,0.221365 1.080713,0.488292 1.5625,0.800781 0.494775,0.299489 0.924462,0.664072 1.289062,1.09375 0.364566,0.429696 0.651024,0.930998 0.859375,1.503906 0.221336,0.572924 0.332013,1.236986 0.332031,1.992188"
           id="path3056"
           style="fill:#4085a5;fill-opacity:1;font-family:Liberation Sans;-inkscape-font-specification:Liberation Sans"
           inkscape:connector-curvature="0" />
      </g>
      <g
         transform="matrix(4.6010896,0,0,4.6010896,261.86224,782.32389)"
         id="flowRoot2899"
         style="font-size:40px;font-style:normal;font-variant:normal;font-weight:normal;font-stretch:normal;fill:#4085a5;fill-opacity:1;stroke:none;display:inline;font-family:URW Gothic L;-inkscape-font-specification:URW Gothic L Book">
        <path
           d="m 12.52,49.696078 2.96,0 0,-21.88 -2.96,0 0,21.88 m 0,-24.52 2.96,0 0,-5.04 -2.96,0 0,5.04"
           id="path3053"
           style="fill:#4085a5;fill-opacity:1"
           inkscape:connector-curvature="0" />
      </g>
      <g
         transform="matrix(4.6010896,0,0,4.6010896,307.54003,782.32389)"
         id="flowRoot2907"
         style="font-size:40px;font-style:normal;font-variant:normal;font-weight:normal;font-stretch:normal;fill:#4085a5;fill-opacity:1;stroke:none;display:inline;font-family:URW Gothic L;-inkscape-font-specification:URW Gothic L Book">
        <path
           d="m 15.2,49.696078 2.96,0 0,-19.2 4.92,0 0,-2.68 -4.92,0 0,-7.68 -2.96,0 0,7.68 -4.72,0 0,2.68 4.72,0 0,19.2"
           id="path3050"
           style="fill:#4085a5;fill-opacity:1"
           inkscape:connector-curvature="0" />
      </g>
      <g
         transform="matrix(4.6010896,0,0,4.6010896,377.74832,782.32389)"
         id="flowRoot2915"
         style="font-size:40px;font-style:normal;font-variant:normal;font-weight:normal;font-stretch:normal;fill:#4085a5;fill-opacity:1;stroke:none;display:inline;font-family:URW Gothic L;-inkscape-font-specification:URW Gothic L Book">
        <path
           d="m 12.52,49.696078 2.96,0 0,-12 c 0,-2.359997 0.320001,-3.760001 1.2,-4.96 1.199999,-1.719998 3.240002,-2.72 5.48,-2.72 2.119998,0 4.120001,0.920002 5.28,2.4 1.039999,1.279999 1.48,2.960003 1.48,5.52 l 0,11.76 2.96,0 0,-11.76 c 0,-3.279996 -0.600001,-5.520001 -1.88,-7.24 -1.639998,-2.159997 -4.400003,-3.4 -7.56,-3.4 -2.999997,0 -5.480001,1.200003 -6.96,3.36 l 0,-10.52 -2.96,0 0,29.56"
           id="path3047"
           style="fill:#4085a5;fill-opacity:1"
           inkscape:connector-curvature="0" />
      </g>
      <path
         d="m 138.3009,898.53076 c -0.31313,4.48334 -10.66953,8.02648 -23.13165,7.91382 -12.11671,-0.10955 -21.830004,-3.64221 -22.002515,-8.00223"
         id="path2551"
         style="fill:url(#linearGradient3936);fill-opacity:1;fill-rule:evenodd;stroke:none"
         inkscape:connector-curvature="0" />
      <path
         d="m 141.12179,912.5903 c -0.35228,3.681 -12.00322,6.59005 -26.0231,6.49756 -13.63131,-0.0899 -24.558764,-2.9904 -24.752836,-6.57014"
         id="path2553"
         style="fill:url(#linearGradient3932);fill-opacity:1;fill-rule:evenodd;stroke:none"
         inkscape:connector-curvature="0" />
      <path
         d="m 152.40532,926.66009 c -0.50884,6.45297 -17.33797,11.55268 -37.58891,11.39054 -19.689672,-0.15766 -35.473771,-5.24232 -35.754102,-11.51777"
         id="path2555"
         style="fill:url(#linearGradient3928);fill-opacity:1;fill-rule:evenodd;stroke:none"
         inkscape:connector-curvature="0" />
      <path
         d="m 160.86798,943.85089 c -0.62627,7.45734 -21.33905,13.3508 -46.26329,13.16342 -24.233432,-0.1822 -43.660014,-6.05826 -44.005035,-13.31046"
         id="path2557"
         style="fill:url(#linearGradient3924);fill-opacity:1;fill-rule:evenodd;stroke:none"
         inkscape:connector-curvature="0" />
      <path
         d="m 166.50975,961.04175 c -0.70455,8.46168 -24.00642,15.14889 -52.04619,14.93627 -27.26262,-0.20673 -49.117525,-6.87419 -49.50567,-15.10311"
         id="path2559"
         style="fill:url(#linearGradient3920);fill-opacity:1;fill-rule:evenodd;stroke:none"
         inkscape:connector-curvature="0" />
      <path
         d="m 152.40533,981.29933 c -0.50884,6.98026 -17.33798,12.4967 -37.58892,12.3213 C 95.126742,993.4501 79.342642,987.94995 79.062312,981.1617"
         id="path2561"
         style="fill:url(#linearGradient3916);fill-opacity:1;fill-rule:evenodd;stroke:none"
         inkscape:connector-curvature="0" />
      <path
         d="m 138.3009,1000.8746 c -0.31313,5.2352 -10.66953,9.3725 -23.13165,9.241 -12.11671,-0.1279 -21.830004,-4.253 -22.002515,-9.3442"
         id="path2565"
         style="fill:url(#linearGradient3912);fill-opacity:1;fill-rule:evenodd;stroke:none"
         inkscape:connector-curvature="0" />
      <path
         d="m 149.5871,887.02519 c -0.46973,3.83924 -16.00517,6.87335 -34.69939,6.77688 -18.224894,-0.094 -32.815525,-3.13463 -33.007163,-6.87846 l 33.857683,-0.0731 z"
         id="path2567"
         style="fill:url(#linearGradient3908);fill-opacity:1;fill-rule:evenodd;stroke:none"
         inkscape:connector-curvature="0" />
      <g
         transform="matrix(4.6010896,0,0,4.6010896,693.86224,782.32389)"
         id="flowRoot2998"
         style="font-size:40px;font-style:normal;font-variant:normal;font-weight:normal;font-stretch:normal;fill:#4085a5;fill-opacity:1;stroke:none;display:inline;font-family:URW Gothic L;-inkscape-font-specification:URW Gothic L Book">
        <path
           d="m 20.6,36.056078 -8.56,0 0,2.96 8.56,0 0,8.72 3.08,0 0,-8.72 8.52,0 0,-2.96 -8.52,0 0,-8.64 -3.08,0 0,8.64"
           id="path3028"
           style="fill:#4085a5;fill-opacity:1"
           inkscape:connector-curvature="0" />
      </g>
    </g>
  </g>
</svg>
