<?xml version="1.0" encoding="utf-8"?>
<!-- Generator: Adobe Illustrator 16.0.0, SVG Export Plug-In . SVG Version: 6.00 Build 0)  -->
<!DOCTYPE svg PUBLIC "-//W3C//DTD SVG 1.1//EN" "http://www.w3.org/Graphics/SVG/1.1/DTD/svg11.dtd">
<svg version="1.1"
	 id="svg2" xmlns:inkscape="http://www.inkscape.org/namespaces/inkscape" xmlns:sodipodi="http://sodipodi.sourceforge.net/DTD/sodipodi-0.dtd" xmlns:rdf="http://www.w3.org/1999/02/22-rdf-syntax-ns#" xmlns:dc="http://purl.org/dc/elements/1.1/" xmlns:cc="http://creativecommons.org/ns#" xmlns:svg="http://www.w3.org/2000/svg" inkscape:version="0.48.1 r9760" sodipodi:docname="pithosplus-0.0.1-negative.svg"
	 xmlns="http://www.w3.org/2000/svg" xmlns:xlink="http://www.w3.org/1999/xlink" x="0px" y="0px" width="777.059px"
	 height="171.344px" viewBox="64.958 23.41 777.059 171.344" enable-background="new 64.958 23.41 777.059 171.344"
	 xml:space="preserve">
<sodipodi:namedview  id="namedview105" pagecolor="#ffffff" bordercolor="#666666" borderopacity="1" gridtolerance="10" guidetolerance="10" showgrid="false" inkscape:cx="57.500092" inkscape:cy="88.858449" objecttolerance="10" inkscape:zoom="2.1891652" inkscape:window-x="0" inkscape:current-layer="g3951" inkscape:window-height="857" inkscape:pageopacity="0" inkscape:window-width="1713" inkscape:window-maximized="0" inkscape:window-y="24" inkscape:pageshadow="2">
	</sodipodi:namedview>
<g id="layer1" transform="translate(0,-851.56218)">
	<g id="g3951">
		<g id="flowRoot11246" transform="matrix(4.6010896,0,0,4.6010896,135.25909,782.32389)">
			<path id="path3062" fill="#FFFFFF" d="M12.52,27.816v29.56h2.96v-11.44c1.92,2.8,4.88,4.28,8.52,4.28c6.52,0,11.6-5,11.6-11.4
				c0-6.52-5-11.52-11.52-11.52c-3.72,0-6.76,1.52-8.6,4.28v-3.76H12.52 M23.96,30.016c4.92,0,8.64,3.76,8.64,8.8
				c0,4.92-3.72,8.68-8.6,8.68c-5,0-8.72-3.8-8.72-8.84C15.28,33.816,19.12,30.016,23.96,30.016"/>
		</g>
		<g id="flowRoot11246-5" transform="matrix(4.6010896,0,0,4.6010896,487.97827,782.46129)">
			<path id="path3059" fill="#FFFFFF" d="M23.16,27.296c-6.48,0-11.48,4.92-11.48,11.32c0,6.72,4.92,11.6,11.72,11.6
				c6.4,0,11.12-4.84,11.12-11.4C34.52,32.136,29.72,27.296,23.16,27.296 M23.16,30.016c4.8,0,8.36,3.76,8.36,8.84
				c0,5-3.44,8.64-8.2,8.64c-5.04,0-8.64-3.68-8.64-8.8C14.68,33.736,18.32,30.016,23.16,30.016"/>
		</g>
		<g id="flowRoot11246-5-5-2-0" transform="matrix(4.6010896,0,0,4.8255925,607.16848,775.83833)">
			<path id="path3056" fill="#FFFFFF" d="M28.555,43.023c0,0.99-0.195,1.875-0.586,2.656c-0.377,0.768-0.931,1.419-1.66,1.953
				c-0.729,0.521-1.628,0.925-2.695,1.211c-1.055,0.273-2.266,0.41-3.633,0.41c-1.224,0-2.331-0.098-3.32-0.293
				c-0.977-0.182-1.836-0.482-2.578-0.899c-0.742-0.416-1.367-0.963-1.875-1.64c-0.495-0.69-0.859-1.53-1.093-2.52l3.105-0.605
				c0.3,1.133,0.918,1.966,1.855,2.5c0.938,0.521,2.24,0.781,3.907,0.781c0.755,0,1.445-0.052,2.07-0.156
				c0.638-0.104,1.185-0.28,1.641-0.527c0.455-0.26,0.807-0.599,1.054-1.016c0.261-0.43,0.391-0.957,0.391-1.582
				c0-0.638-0.15-1.159-0.45-1.563c-0.299-0.416-0.716-0.762-1.25-1.035c-0.534-0.274-1.185-0.508-1.954-0.703
				c-0.755-0.208-1.588-0.436-2.5-0.684c-0.846-0.221-1.686-0.469-2.519-0.742c-0.833-0.274-1.589-0.632-2.266-1.074
				c-0.664-0.456-1.204-1.016-1.621-1.68c-0.417-0.664-0.625-1.497-0.625-2.5c0-1.927,0.684-3.392,2.051-4.394
				c1.38-1.016,3.386-1.523,6.016-1.523c2.33,0,4.18,0.41,5.547,1.23c1.38,0.82,2.252,2.135,2.617,3.945l-3.164,0.391
				c-0.117-0.547-0.332-1.003-0.644-1.367c-0.312-0.378-0.69-0.677-1.133-0.898c-0.442-0.234-0.944-0.397-1.504-0.488
				c-0.547-0.104-1.12-0.156-1.719-0.156c-1.589,0-2.76,0.241-3.516,0.723c-0.755,0.482-1.133,1.211-1.133,2.188
				c0,0.573,0.137,1.048,0.41,1.426c0.287,0.365,0.677,0.677,1.172,0.937c0.508,0.248,1.113,0.469,1.816,0.664
				c0.703,0.182,1.478,0.378,2.324,0.586c0.56,0.143,1.133,0.3,1.719,0.469c0.586,0.156,1.152,0.352,1.699,0.586
				c0.56,0.221,1.081,0.488,1.563,0.801c0.495,0.3,0.925,0.664,1.289,1.094c0.365,0.43,0.651,0.931,0.859,1.504
				C28.444,41.604,28.555,42.268,28.555,43.023"/>
		</g>
		<g id="flowRoot2899" transform="matrix(4.6010896,0,0,4.6010896,261.86224,782.32389)">
			<path id="path3053" fill="#FFFFFF" d="M12.52,49.696h2.96v-21.88h-2.96V49.696 M12.52,25.176h2.96v-5.04h-2.96V25.176"/>
		</g>
		<g id="flowRoot2907" transform="matrix(4.6010896,0,0,4.6010896,307.54003,782.32389)">
			<path id="path3050" fill="#FFFFFF" d="M15.2,49.696h2.96v-19.2h4.92v-2.68h-4.92v-7.68H15.2v7.68h-4.72v2.68h4.72V49.696"/>
		</g>
		<g id="flowRoot2915" transform="matrix(4.6010896,0,0,4.6010896,377.74832,782.32389)">
			<path id="path3047" fill="#FFFFFF" d="M12.52,49.696h2.96v-12c0-2.36,0.32-3.76,1.2-4.96c1.2-1.72,3.24-2.72,5.48-2.72
				c2.12,0,4.12,0.92,5.28,2.4c1.04,1.28,1.48,2.96,1.48,5.52v11.76h2.96v-11.76c0-3.28-0.6-5.52-1.88-7.24
				c-1.64-2.16-4.4-3.4-7.56-3.4c-3,0-5.48,1.2-6.96,3.36v-10.52h-2.96V49.696"/>
		</g>
		
			<linearGradient id="path2551_1_" gradientUnits="userSpaceOnUse" x1="374.1221" y1="378.5383" x2="454.105" y2="378.5383" gradientTransform="matrix(0.5643 0 0 -1.1225 -117.9489 1327.3586)">
			<stop  offset="0" style="stop-color:#FF6600"/>
			<stop  offset="1" style="stop-color:#B84400"/>
		</linearGradient>
		<path id="path2551" fill="url(#path2551_1_)" d="M138.301,898.531c-0.313,4.483-10.669,8.026-23.131,7.914
			c-12.117-0.109-21.83-3.642-22.003-8.002"/>
		
			<linearGradient id="path2553_1_" gradientUnits="userSpaceOnUse" x1="364.1231" y1="211.2058" x2="454.1031" y2="211.2058" gradientTransform="matrix(0.5643 0 0 -0.7041 -115.1272 1064.5222)">
			<stop  offset="0" style="stop-color:#FF6600"/>
			<stop  offset="1" style="stop-color:#B84400"/>
		</linearGradient>
		<path id="path2553" fill="url(#path2553_1_)" d="M141.122,912.59c-0.352,3.681-12.003,6.59-26.023,6.498
			c-13.631-0.09-24.559-2.99-24.753-6.57"/>
		
			<linearGradient id="path2555_1_" gradientUnits="userSpaceOnUse" x1="354.1255" y1="362.5442" x2="484.0982" y2="362.5442" gradientTransform="matrix(0.5643 0 0 -1.1688 -120.7693 1356.0276)">
			<stop  offset="0" style="stop-color:#FF6600"/>
			<stop  offset="1" style="stop-color:#B84400"/>
		</linearGradient>
		<path id="path2555" fill="url(#path2555_1_)" d="M152.405,926.66c-0.509,6.453-17.338,11.553-37.589,11.391
			c-19.689-0.158-35.474-5.242-35.754-11.518"/>
		
			<linearGradient id="path2557_1_" gradientUnits="userSpaceOnUse" x1="334.1265" y1="366.5486" x2="494.0933" y2="366.5486" gradientTransform="matrix(0.5643 0 0 -1.3507 -117.9465 1445.4575)">
			<stop  offset="0" style="stop-color:#FF6600"/>
			<stop  offset="1" style="stop-color:#B84400"/>
		</linearGradient>
		<path id="path2557" fill="url(#path2557_1_)" d="M160.868,943.851c-0.626,7.458-21.339,13.352-46.264,13.164
			c-24.233-0.183-43.66-6.059-44.005-13.311"/>
		
			<linearGradient id="path2559_1_" gradientUnits="userSpaceOnUse" x1="324.128" y1="258.6721" x2="504.0894" y2="258.6721" gradientTransform="matrix(0.5643 0 0 -1.0217 -117.946 1232.724)">
			<stop  offset="0" style="stop-color:#FF6600"/>
			<stop  offset="1" style="stop-color:#B84400"/>
		</linearGradient>
		<path id="path2559" fill="url(#path2559_1_)" d="M166.51,961.042c-0.705,8.461-24.006,15.148-52.046,14.936
			c-27.262-0.207-49.117-6.874-49.505-15.104"/>
		
			<linearGradient id="path2561_1_" gradientUnits="userSpaceOnUse" x1="344.1436" y1="34.4197" x2="479.1407" y2="32.4699" gradientTransform="matrix(0.5643 0 0 -0.6321 -115.1262 1008.3377)">
			<stop  offset="0" style="stop-color:#FF6600"/>
			<stop  offset="1" style="stop-color:#B84400"/>
		</linearGradient>
		<path id="path2561" fill="url(#path2561_1_)" d="M152.405,981.3c-0.509,6.979-17.338,12.496-37.589,12.32
			c-19.689-0.17-35.474-5.67-35.754-12.459"/>
		
			<linearGradient id="path2565_1_" gradientUnits="userSpaceOnUse" x1="374.1216" y1="-9.3303" x2="454.106" y2="-9.3303" gradientTransform="matrix(0.5643 0 0 -0.6321 -117.9489 999.5467)">
			<stop  offset="0" style="stop-color:#FF6600"/>
			<stop  offset="1" style="stop-color:#B84400"/>
		</linearGradient>
		<path id="path2565" fill="url(#path2565_1_)" d="M138.301,1000.874c-0.313,5.235-10.669,9.373-23.131,9.241
			c-12.117-0.128-21.83-4.253-22.003-9.345"/>
		
			<linearGradient id="path2567_1_" gradientUnits="userSpaceOnUse" x1="428.3272" y1="420.4128" x2="518.3101" y2="420.4128" gradientTransform="matrix(0.7524 0 0 -1.3908 -240.4081 1475.0165)">
			<stop  offset="0" style="stop-color:#FF6600"/>
			<stop  offset="1" style="stop-color:#B84400"/>
		</linearGradient>
		<path id="path2567" fill="url(#path2567_1_)" d="M149.587,887.025c-0.47,3.839-16.005,6.874-34.699,6.777
			c-18.225-0.094-32.815-3.135-33.007-6.878l33.858-0.073L149.587,887.025z"/>
		<g id="flowRoot2998" transform="matrix(4.6010896,0,0,4.6010896,693.86224,782.32389)">
			<path id="path3028" fill="#FFFFFF" d="M20.6,36.056h-8.56v2.96h8.56v8.72h3.08v-8.72h8.52v-2.96h-8.52v-8.64H20.6V36.056"/>
		</g>
	</g>
</g>
</svg>
