<?xml version="1.0" encoding="utf-8"?>
<!-- Generator: Adobe Illustrator 16.0.0, SVG Export Plug-In . SVG Version: 6.00 Build 0)  -->
<!DOCTYPE svg PUBLIC "-//W3C//DTD SVG 1.1//EN" "http://www.w3.org/Graphics/SVG/1.1/DTD/svg11.dtd">
<svg version="1.1" id="Layer_1" xmlns="http://www.w3.org/2000/svg" xmlns:xlink="http://www.w3.org/1999/xlink" x="0px" y="0px"
	 width="275px" height="36.592px" viewBox="0 0 275 36.592" enable-background="new 0 0 275 36.592" xml:space="preserve">
<g>
	<g>
		<g>
			<path fill="#231F20" d="M160.41,16.954h-0.11c-0.946,1.339-2.36,2.009-4.243,2.009c-1.77,0-3.146-0.59-4.127-1.77
				c-0.982-1.178-1.476-2.855-1.476-5.029s0.494-3.862,1.479-5.065c0.987-1.203,2.361-1.805,4.121-1.805
				c1.834,0,3.24,0.649,4.219,1.949h0.16l-0.086-0.951L160.3,5.366V0h2.048v18.723h-1.666L160.41,16.954z M156.314,17.291
				c1.397,0,2.412-0.372,3.041-1.114c0.629-0.742,0.943-1.939,0.943-3.591v-0.421c0-1.869-0.318-3.203-0.957-4
				c-0.637-0.798-1.654-1.197-3.053-1.197c-1.201,0-2.12,0.455-2.758,1.366c-0.637,0.91-0.955,2.196-0.955,3.856
				c0,1.685,0.316,2.956,0.949,3.814S155.089,17.291,156.314,17.291z"/>
			<path fill="#231F20" d="M175.005,18.723l-0.407-1.877h-0.099c-0.675,0.827-1.349,1.385-2.019,1.678
				c-0.67,0.293-1.506,0.439-2.51,0.439c-1.341,0-2.392-0.337-3.152-1.011c-0.76-0.674-1.141-1.632-1.141-2.876
				c0-2.663,2.184-4.059,6.551-4.187l2.295-0.072V9.999c0-1.035-0.229-1.799-0.686-2.292c-0.457-0.493-1.188-0.74-2.189-0.74
				c-1.127,0-2.401,0.337-3.823,1.011l-0.63-1.528c0.666-0.353,1.396-0.629,2.189-0.83c0.793-0.201,1.59-0.301,2.387-0.301
				c1.611,0,2.808,0.349,3.584,1.047c0.777,0.698,1.166,1.817,1.166,3.357v9H175.005z M170.378,17.314
				c1.274,0,2.276-0.341,3.004-1.023c0.729-0.682,1.093-1.636,1.093-2.863v-1.191l-2.048,0.084c-1.629,0.057-2.803,0.303-3.522,0.74
				c-0.719,0.438-1.078,1.117-1.078,2.04c0,0.722,0.224,1.271,0.672,1.648C168.945,17.126,169.572,17.314,170.378,17.314z"/>
			<path fill="#231F20" d="M189.462,15.125c0,1.228-0.469,2.174-1.405,2.84c-0.938,0.665-2.254,0.998-3.947,0.998
				c-1.793,0-3.191-0.277-4.194-0.83V16.28c0.649,0.321,1.347,0.573,2.091,0.758s1.462,0.277,2.153,0.277
				c1.067,0,1.891-0.166,2.467-0.5c0.575-0.333,0.862-0.84,0.862-1.522c0-0.513-0.227-0.953-0.684-1.317
				c-0.457-0.365-1.348-0.796-2.672-1.293c-1.258-0.458-2.152-0.856-2.683-1.197c-0.531-0.341-0.927-0.728-1.185-1.161
				c-0.26-0.433-0.39-0.951-0.39-1.552c0-1.075,0.448-1.923,1.345-2.545s2.127-0.932,3.688-0.932c1.456,0,2.879,0.289,4.269,0.866
				l-0.728,1.624c-1.357-0.545-2.587-0.818-3.688-0.818c-0.971,0-1.703,0.148-2.195,0.445c-0.493,0.296-0.74,0.706-0.74,1.227
				c0,0.353,0.093,0.654,0.277,0.902c0.186,0.249,0.482,0.485,0.895,0.71s1.201,0.549,2.368,0.975
				c1.604,0.57,2.688,1.143,3.251,1.721C189.18,13.526,189.462,14.25,189.462,15.125z"/>
			<path fill="#231F20" d="M202.046,18.723v-8.531c0-1.075-0.251-1.877-0.753-2.407c-0.502-0.529-1.287-0.794-2.355-0.794
				c-1.424,0-2.461,0.377-3.114,1.131c-0.654,0.754-0.981,1.99-0.981,3.706v6.895h-2.048V0h2.048v5.667
				c0,0.682-0.031,1.248-0.099,1.697h0.124c0.402-0.634,0.977-1.133,1.721-1.498c0.744-0.365,1.594-0.547,2.547-0.547
				c1.653,0,2.895,0.383,3.721,1.149c0.826,0.766,1.24,1.983,1.24,3.652v8.604L202.046,18.723L202.046,18.723z"/>
			<path fill="#231F20" d="M214.592,5.318c1.776,0,3.156,0.591,4.139,1.774c0.982,1.184,1.476,2.858,1.476,5.024
				s-0.496,3.848-1.487,5.047c-0.99,1.199-2.365,1.799-4.126,1.799c-0.88,0-1.684-0.158-2.411-0.476
				c-0.729-0.316-1.339-0.804-1.832-1.462H210.2l-0.433,1.697H208.3V0h2.048v4.548c0,1.019-0.031,1.933-0.099,2.743h0.099
				C211.302,5.976,212.717,5.318,214.592,5.318z M214.296,6.991c-1.397,0-2.405,0.391-3.022,1.173
				c-0.616,0.782-0.926,2.1-0.926,3.953s0.316,3.178,0.95,3.977c0.634,0.798,1.647,1.198,3.048,1.198
				c1.258,0,2.195-0.448,2.812-1.342c0.616-0.895,0.926-2.18,0.926-3.856c0-1.716-0.31-2.996-0.926-3.838
				C216.541,7.412,215.587,6.991,214.296,6.991z"/>
			<path fill="#231F20" d="M235.453,12.117c0,2.149-0.557,3.828-1.666,5.036c-1.11,1.207-2.645,1.811-4.602,1.811
				c-1.209,0-2.283-0.277-3.221-0.83c-0.938-0.554-1.66-1.348-2.171-2.383c-0.51-1.035-0.765-2.246-0.765-3.633
				c0-2.15,0.551-3.824,1.652-5.024c1.103-1.199,2.631-1.798,4.59-1.798c1.892,0,3.395,0.613,4.508,1.841
				C234.896,8.362,235.453,10.023,235.453,12.117z M225.152,12.117c0,1.684,0.345,2.968,1.035,3.85
				c0.69,0.882,1.707,1.324,3.047,1.324c1.341,0,2.358-0.44,3.054-1.318c0.694-0.878,1.043-2.164,1.043-3.856
				c0-1.677-0.349-2.95-1.043-3.82c-0.694-0.871-1.722-1.306-3.077-1.306c-1.341,0-2.354,0.429-3.035,1.288
				C225.494,9.138,225.152,10.416,225.152,12.117z"/>
			<path fill="#231F20" d="M247.357,18.723l-0.407-1.877h-0.099c-0.676,0.827-1.348,1.385-2.019,1.678
				c-0.67,0.293-1.507,0.439-2.51,0.439c-1.341,0-2.392-0.337-3.152-1.011c-0.76-0.674-1.142-1.632-1.142-2.876
				c0-2.663,2.184-4.059,6.551-4.187l2.295-0.072V9.999c0-1.035-0.229-1.799-0.686-2.292s-1.187-0.74-2.188-0.74
				c-1.127,0-2.401,0.337-3.824,1.011l-0.63-1.528c0.666-0.353,1.396-0.629,2.189-0.83c0.793-0.201,1.59-0.301,2.388-0.301
				c1.61,0,2.808,0.349,3.584,1.047c0.776,0.698,1.165,1.817,1.165,3.357v9H247.357z M242.73,17.314
				c1.274,0,2.275-0.341,3.004-1.023s1.092-1.636,1.092-2.863v-1.191l-2.049,0.084c-1.627,0.057-2.801,0.303-3.521,0.74
				c-0.72,0.438-1.079,1.117-1.079,2.04c0,0.722,0.225,1.271,0.672,1.648C241.298,17.126,241.925,17.314,242.73,17.314z"/>
			<path fill="#231F20" d="M259.264,5.294c0.6,0,1.139,0.048,1.614,0.144l-0.282,1.853c-0.561-0.12-1.054-0.181-1.48-0.181
				c-1.094,0-2.029,0.434-2.807,1.3c-0.779,0.866-1.166,1.945-1.166,3.236v7.076h-2.049V5.535h1.69l0.233,2.443h0.1
				c0.502-0.858,1.105-1.52,1.812-1.985C257.637,5.528,258.415,5.294,259.264,5.294z"/>
			<path fill="#231F20" d="M272.609,16.954h-0.111c-0.945,1.339-2.359,2.009-4.243,2.009c-1.769,0-3.144-0.59-4.127-1.77
				c-0.981-1.178-1.474-2.855-1.474-5.029s0.492-3.862,1.479-5.065c0.986-1.203,2.36-1.805,4.12-1.805
				c1.834,0,3.24,0.649,4.219,1.949h0.16l-0.086-0.951l-0.05-0.927V0h2.048v18.723h-1.665L272.609,16.954z M268.514,17.291
				c1.398,0,2.412-0.372,3.041-1.114c0.629-0.742,0.943-1.939,0.943-3.591v-0.421c0-1.869-0.318-3.203-0.956-4
				c-0.638-0.798-1.653-1.197-3.054-1.197c-1.2,0-2.119,0.455-2.756,1.366c-0.639,0.91-0.957,2.196-0.957,3.856
				c0,1.685,0.316,2.956,0.949,3.814C266.359,16.861,267.288,17.291,268.514,17.291z"/>
		</g>
	</g>
</g>
<g>
	<path fill="#C3C1B8" d="M103.043,15.843c-2.638,0.018-9.21,0.424-11.42-2.066c2.233-0.172,4.432-0.575,6.545-1.409
		c1.901-0.75,5.386-2.342,5.578-4.768c0.358-4.532-8.213-3.657-10.621-2.838c-4.436,1.51-9.763,6.793-6.336,11.596
		c2.899,4.062,12.005,3.393,13.196,3.239c1.328-0.175,3.243-0.687,4.026-1.803C104.663,16.863,104.245,15.835,103.043,15.843z
		 M97.455,8.219c1.893,0.662,0.383,0.985-0.742,1.352c-1.582,0.516-3.353,0.565-4.999,0.584c-0.178,0.002-0.358,0.017-0.538,0.039
		c0.028-0.083,0.057-0.167,0.09-0.255C92.229,7.415,95.382,7.493,97.455,8.219z"/>
	<path fill="#C3C1B8" d="M40.904,4.52c-3.541-1.899-6.868,2.274-9.319,4.641c-1.488,1.434-2.792,3.045-4.386,4.346
		c-0.318-0.575-0.325-1.748-0.397-2.695c-0.061-2.123,0.015-2.797,0.055-4.704c0.06-2.894-5.468-1.906-5.519,0.534
		c-0.075,3.565,0.163,7.438,1.265,10.272c1.143,1.888,4.003,1.724,5.691,1.081c2.414-0.921,4.264-4.205,6.053-6.084
		c0.558-0.588,1.098-1.196,1.668-1.771c-0.626,2.88-1.87,7.189-1.997,7.71c-1.372,5.646-2.982,11.245-3.826,17.012
		c-0.404,2.785,5.163,1.916,5.519-0.533c0.947-6.473,2.821-12.747,4.326-19.09C40.527,13.17,43.524,5.925,40.904,4.52z"/>
	<path fill="#C3C1B8" d="M82.22,8.88c-0.474-2.131-1.472-4.257-3.98-4.116c-2.605,0.146-4.808,2.173-6.291,4.146
		c-0.313,0.418-0.612,0.844-0.906,1.273c-0.006-0.045-0.012-0.093-0.019-0.141c-0.292-2.034-0.643-3.998-1.347-5.931
		c-0.149-0.411-0.894-0.519-1.239-0.469c-0.143,0.022-0.287,0.042-0.431,0.062c-1.336,0.193-2.703,0.848-3.447,2.031
		c-0.458,0.726-0.28,1.526,0.409,1.74c0.593,1.829,0.823,3.727,1.098,5.63c0.21,1.453,0.02,2.848,0.175,4.274
		c0.137,1.256,1.864,0.833,2.614,0.541c3.629-1.411,5.058-5.691,7.16-8.695c0.067-0.094,0.137-0.187,0.207-0.277
		c0.024,0.013,0.048,0.028,0.075,0.041C77,9.837,77.176,11.15,77.37,12.191c0.486,2.594,1.136,5.161,1.568,7.766
		c0.371,2.237,5.409-0.222,5.096-2.102C83.537,14.863,82.877,11.844,82.22,8.88z"/>
	<path fill="#C3C1B8" d="M61.919,8.88c-0.473-2.131-1.47-4.257-3.979-4.116c-2.605,0.146-4.808,2.173-6.29,4.146
		c-0.315,0.418-0.613,0.844-0.906,1.276c-0.005-0.048-0.013-0.096-0.019-0.143c-0.293-2.034-0.642-3.998-1.348-5.931
		c-0.148-0.411-0.892-0.519-1.238-0.469c-0.143,0.022-0.287,0.042-0.432,0.062c-1.336,0.193-2.702,0.848-3.447,2.031
		c-0.457,0.726-0.281,1.526,0.41,1.74c0.593,1.829,0.823,3.727,1.098,5.63c0.21,1.453,0.021,2.845,0.174,4.274
		c0.138,1.256,1.865,0.833,2.614,0.541c3.628-1.411,5.06-5.691,7.162-8.695c0.066-0.094,0.136-0.187,0.207-0.276
		c0.023,0.012,0.048,0.026,0.073,0.04c0.704,0.846,0.879,2.159,1.074,3.201c0.486,2.594,1.134,5.161,1.566,7.766
		c0.373,2.237,5.41-0.222,5.097-2.102C63.236,14.863,62.577,11.844,61.919,8.88z"/>
	<path fill="#C3C1B8" d="M139.527,9.883c-1.579-2.47-5.375-3.644-8.04-4.262c-2.981-0.691-6.375-0.421-9.243,0.596
		c-1.972,0.699-1.112,1.138,0.227,1.292c-0.836,0.743-1.496,1.698-1.945,2.783c-0.097-0.024-0.191-0.039-0.281-0.039
		c-2.528,0-5.057,0-7.583,0c-0.202,0-0.411-0.007-0.627-0.018c0.508-1.703,1.189-3.208,2.099-4.03
		c0.898,1.574,4.064,2.678,5.015,0.996c2.234-3.947-3.46-7.007-6.854-5.542c-4.528,1.954-5.758,6.841-6.523,11.314
		c-0.866,5.077-0.835,10.575,0.182,15.618c0.452,2.232,0.565,3.994,2.867,5.141c1.417,0.709,2.982,0.592,3.791-0.821
		c0.604-1.054-0.301-2.209-1.528-2.854c-0.349-1.457-0.416-3.646-0.487-4.416c-0.216-2.283-0.029-4.682,0.081-6.969
		c0.038-0.789,0.187-2.698,0.543-4.819c0.655-0.19,1.738,0.037,2.378,0.037c1.394,0,2.788,0,4.183,0c0.693,0,1.389,0,2.083,0
		c0.288,5.206,7.923,5.91,11.764,5.389C136.081,18.675,142.956,15.245,139.527,9.883z M130.438,16.822
		c-2.74-0.127-4.785-2.16-4.955-4.594c-0.063-0.898,0.33-1.725,0.704-2.525c0.222-0.476,0.455-0.875,0.774-1.37
		c0.199-0.311,0.62-0.723,1.08-1.05c2.359,0.447,4.823,1.995,6.12,3.417C136.32,13.066,133.463,16.963,130.438,16.822z"/>
	<path fill="#C3C1B8" d="M16.354,11.38c-1.608-0.812-3.314-1.387-5.019-1.972c-0.71-0.244-1.43-0.461-2.15-0.672
		c0.36-0.076,1.616-0.469,2.896-0.504c1.5-0.041,1.978,0.088,3.383,0.497c2.107,0.614,4.828-2.429,2.138-3.526
		c-2.545-1.038-5.128-1.025-7.776-0.472c-2.697,0.562-6.13,1.912-7.884,4.156c-0.408,0.524-0.631,1.387-0.229,1.978
		c0.856,1.25,2.517,1.423,3.902,1.681c2.257,0.419,4.96,1.362,6.985,2.458c-0.688,0.135-1.391,0.207-2.078,0.273
		C8.26,15.5,6.371,14.999,4.244,14.332c-2.069-0.65-5.521,3.176-2.772,4.04c3.197,1.004,5.886,1.248,9.226,0.852
		c2.347-0.279,5.991-1.209,7.396-3.348C19.592,13.591,18.508,12.465,16.354,11.38z"/>
</g>
</svg>
