<?xml version="1.0" encoding="utf-8"?>
<!-- Generator: Adobe Illustrator 16.0.0, SVG Export Plug-In . SVG Version: 6.00 Build 0)  -->
<!DOCTYPE svg PUBLIC "-//W3C//DTD SVG 1.0//EN" "http://www.w3.org/TR/2001/REC-SVG-20010904/DTD/svg10.dtd">
<svg version="1.0" id="Layer_1" xmlns="http://www.w3.org/2000/svg" xmlns:xlink="http://www.w3.org/1999/xlink" x="0px" y="0px"
	 width="239px" height="36.592px" viewBox="0 0 239 36.592" enable-background="new 0 0 239 36.592" xml:space="preserve">
<g>
	<path fill="#FFFFFF" d="M103.043,15.843c-2.638,0.018-9.21,0.424-11.42-2.066c2.233-0.172,4.432-0.575,6.545-1.409
		c1.901-0.75,5.386-2.342,5.578-4.768c0.358-4.532-8.213-3.657-10.621-2.838c-4.436,1.51-9.763,6.793-6.336,11.596
		c2.899,4.062,12.005,3.393,13.196,3.239c1.328-0.175,3.243-0.687,4.026-1.803C104.663,16.863,104.245,15.835,103.043,15.843z
		 M97.455,8.219c1.893,0.662,0.383,0.985-0.742,1.352c-1.582,0.516-3.353,0.565-4.999,0.584c-0.178,0.002-0.358,0.017-0.538,0.039
		c0.028-0.083,0.057-0.167,0.09-0.255C92.229,7.415,95.382,7.493,97.455,8.219z"/>
	<path fill="#FFFFFF" d="M40.904,4.52c-3.541-1.899-6.868,2.274-9.319,4.641c-1.488,1.434-2.792,3.045-4.386,4.346
		c-0.318-0.575-0.325-1.748-0.397-2.695c-0.061-2.123,0.015-2.797,0.055-4.704c0.06-2.894-5.468-1.906-5.519,0.534
		c-0.075,3.565,0.163,7.438,1.265,10.272c1.143,1.888,4.003,1.724,5.691,1.081c2.414-0.921,4.264-4.205,6.053-6.084
		c0.558-0.588,1.098-1.196,1.668-1.771c-0.626,2.88-1.87,7.189-1.997,7.71c-1.372,5.646-2.982,11.245-3.826,17.012
		c-0.404,2.785,5.163,1.916,5.519-0.533c0.947-6.473,2.821-12.747,4.326-19.09C40.527,13.17,43.524,5.925,40.904,4.52z"/>
	<path fill="#FFFFFF" d="M82.22,8.88c-0.474-2.131-1.472-4.257-3.98-4.116c-2.605,0.146-4.808,2.173-6.291,4.146
		c-0.313,0.418-0.612,0.844-0.906,1.273c-0.006-0.045-0.012-0.093-0.019-0.141c-0.292-2.034-0.643-3.998-1.347-5.931
		c-0.149-0.411-0.894-0.519-1.239-0.469c-0.143,0.022-0.287,0.042-0.431,0.062c-1.336,0.193-2.703,0.848-3.447,2.031
		c-0.458,0.726-0.28,1.526,0.409,1.74c0.593,1.829,0.823,3.727,1.098,5.63c0.21,1.453,0.02,2.848,0.175,4.274
		c0.137,1.256,1.864,0.833,2.614,0.541c3.629-1.411,5.058-5.691,7.16-8.695c0.067-0.094,0.137-0.187,0.207-0.277
		c0.024,0.013,0.048,0.028,0.075,0.041C77,9.837,77.176,11.15,77.37,12.191c0.486,2.594,1.136,5.161,1.568,7.766
		c0.371,2.237,5.409-0.222,5.096-2.102C83.537,14.863,82.877,11.844,82.22,8.88z"/>
	<path fill="#FFFFFF" d="M61.919,8.88c-0.473-2.131-1.47-4.257-3.979-4.116c-2.605,0.146-4.808,2.173-6.29,4.146
		c-0.315,0.418-0.613,0.844-0.906,1.276c-0.005-0.048-0.013-0.096-0.019-0.143c-0.293-2.034-0.642-3.998-1.348-5.931
		c-0.148-0.411-0.892-0.519-1.238-0.469c-0.143,0.022-0.287,0.042-0.432,0.062c-1.336,0.193-2.702,0.848-3.447,2.031
		c-0.457,0.726-0.281,1.526,0.41,1.74c0.593,1.829,0.823,3.727,1.098,5.63c0.21,1.453,0.021,2.845,0.174,4.274
		c0.138,1.256,1.865,0.833,2.614,0.541c3.628-1.411,5.06-5.691,7.162-8.695c0.066-0.094,0.136-0.187,0.207-0.276
		c0.023,0.012,0.048,0.026,0.073,0.04c0.704,0.846,0.879,2.159,1.074,3.201c0.486,2.594,1.134,5.161,1.566,7.766
		c0.373,2.237,5.41-0.222,5.097-2.102C63.236,14.863,62.577,11.844,61.919,8.88z"/>
	<path fill="#FFFFFF" d="M139.527,9.883c-1.579-2.47-5.375-3.644-8.041-4.262c-2.98-0.691-6.375-0.421-9.242,0.596
		c-1.973,0.699-1.112,1.138,0.227,1.292c-0.836,0.743-1.496,1.698-1.945,2.783c-0.096-0.024-0.19-0.039-0.28-0.039
		c-2.528,0-5.057,0-7.583,0c-0.202,0-0.411-0.007-0.627-0.018c0.508-1.703,1.189-3.208,2.099-4.03
		c0.898,1.574,4.064,2.678,5.015,0.996c2.234-3.947-3.46-7.007-6.854-5.542c-4.528,1.954-5.758,6.841-6.523,11.314
		c-0.866,5.077-0.835,10.575,0.182,15.618c0.452,2.232,0.565,3.994,2.867,5.141c1.417,0.709,2.982,0.593,3.791-0.82
		c0.604-1.055-0.301-2.209-1.528-2.854c-0.349-1.457-0.416-3.646-0.487-4.416c-0.216-2.283-0.029-4.683,0.081-6.97
		c0.038-0.789,0.187-2.698,0.543-4.819c0.655-0.19,1.738,0.037,2.378,0.037c1.394,0,2.788,0,4.183,0c0.693,0,1.389,0,2.083,0
		c0.287,5.207,7.923,5.91,11.764,5.388C136.081,18.675,142.956,15.245,139.527,9.883z M130.438,16.822
		c-2.739-0.127-4.785-2.16-4.955-4.594c-0.062-0.898,0.33-1.725,0.705-2.525c0.222-0.476,0.455-0.875,0.773-1.37
		c0.199-0.311,0.62-0.723,1.08-1.05c2.359,0.447,4.822,1.995,6.12,3.417C136.32,13.066,133.463,16.963,130.438,16.822z"/>
	<path fill="#FFFFFF" d="M16.354,11.38c-1.608-0.812-3.314-1.387-5.019-1.972c-0.71-0.244-1.43-0.461-2.15-0.672
		c0.36-0.076,1.616-0.469,2.896-0.504c1.5-0.041,1.978,0.088,3.383,0.497c2.107,0.614,4.828-2.429,2.138-3.526
		c-2.545-1.038-5.128-1.025-7.776-0.472c-2.697,0.562-6.13,1.912-7.884,4.156c-0.408,0.524-0.631,1.387-0.229,1.978
		c0.856,1.25,2.517,1.423,3.902,1.681c2.257,0.419,4.96,1.362,6.985,2.458c-0.688,0.135-1.391,0.207-2.078,0.273
		C8.26,15.5,6.371,14.999,4.244,14.332c-2.069-0.65-5.521,3.176-2.772,4.04c3.197,1.004,5.886,1.248,9.226,0.852
		c2.347-0.279,5.991-1.208,7.396-3.348C19.592,13.591,18.508,12.465,16.354,11.38z"/>
</g>
<g>
	<g>
		<text transform="matrix(1.0253 0 0 1 148.9492 18.7246)" fill="#231F20" font-family="'OpenSans'" font-size="24.642">console</text>
	</g>
</g>
</svg>
