<?xml version="1.0" encoding="UTF-8" standalone="no"?>
<!-- Created with Inkscape (http://www.inkscape.org/) -->

<svg
   xmlns:dc="http://purl.org/dc/elements/1.1/"
   xmlns:cc="http://creativecommons.org/ns#"
   xmlns:rdf="http://www.w3.org/1999/02/22-rdf-syntax-ns#"
   xmlns:svg="http://www.w3.org/2000/svg"
   xmlns="http://www.w3.org/2000/svg"
   xmlns:xlink="http://www.w3.org/1999/xlink"
   xmlns:sodipodi="http://sodipodi.sourceforge.net/DTD/sodipodi-0.dtd"
   xmlns:inkscape="http://www.inkscape.org/namespaces/inkscape"
   width="153.1985"
   height="138.58223"
   id="svg3176"
   version="1.1"
   inkscape:version="0.48.4 r9939"
   sodipodi:docname="New document 2">
  <defs
     id="defs3178">
    <linearGradient
       x1="200.00404"
       y1="331.03073"
       x2="279.98737"
       y2="331.03073"
       id="linearGradient3135"
       xlink:href="#linearGradient3437"
       gradientUnits="userSpaceOnUse"
       gradientTransform="matrix(0.56429464,0,0,1.1225121,-84.652368,-355.99174)" />
    <linearGradient
       id="linearGradient3437">
      <stop
         id="stop3439"
         style="stop-color:#ff6600;stop-opacity:1"
         offset="0" />
      <stop
         id="stop3441"
         style="stop-color:#b84400;stop-opacity:1"
         offset="1" />
    </linearGradient>
    <linearGradient
       x1="190.00456"
       y1="342.16382"
       x2="279.98581"
       y2="342.16382"
       id="linearGradient3137"
       xlink:href="#linearGradient3437"
       gradientUnits="userSpaceOnUse"
       gradientTransform="matrix(0.56429464,0,0,0.70414047,-81.830591,-211.97805)" />
    <linearGradient
       id="linearGradient3115">
      <stop
         id="stop3117"
         style="stop-color:#ff6600;stop-opacity:1"
         offset="0" />
      <stop
         id="stop3119"
         style="stop-color:#b84400;stop-opacity:1"
         offset="1" />
    </linearGradient>
    <linearGradient
       x1="180.00658"
       y1="357.43338"
       x2="309.97949"
       y2="357.43338"
       id="linearGradient3139"
       xlink:href="#linearGradient3437"
       gradientUnits="userSpaceOnUse"
       gradientTransform="matrix(0.56429464,0,0,1.1687805,-87.47233,-372.31805)" />
    <linearGradient
       id="linearGradient3122">
      <stop
         id="stop3124"
         style="stop-color:#ff6600;stop-opacity:1"
         offset="0" />
      <stop
         id="stop3126"
         style="stop-color:#b84400;stop-opacity:1"
         offset="1" />
    </linearGradient>
    <linearGradient
       x1="160.0081"
       y1="387.43338"
       x2="319.97476"
       y2="387.43338"
       id="linearGradient3141"
       xlink:href="#linearGradient3437"
       gradientUnits="userSpaceOnUse"
       gradientTransform="matrix(0.56429464,0,0,1.3506955,-84.649948,-459.79378)" />
    <linearGradient
       id="linearGradient3129">
      <stop
         id="stop3131"
         style="stop-color:#ff6600;stop-opacity:1"
         offset="0" />
      <stop
         id="stop3133"
         style="stop-color:#b84400;stop-opacity:1"
         offset="1" />
    </linearGradient>
    <linearGradient
       x1="150.00912"
       y1="424.96896"
       x2="329.97159"
       y2="424.96896"
       id="linearGradient3143"
       xlink:href="#linearGradient3437"
       gradientUnits="userSpaceOnUse"
       gradientTransform="matrix(0.56429464,0,0,1.0217391,-84.649342,-352.629)" />
    <linearGradient
       id="linearGradient3136">
      <stop
         id="stop3138"
         style="stop-color:#ff6600;stop-opacity:1"
         offset="0" />
      <stop
         id="stop3140"
         style="stop-color:#b84400;stop-opacity:1"
         offset="1" />
    </linearGradient>
    <linearGradient
       x1="170.00658"
       y1="472.50458"
       x2="305.00269"
       y2="474.45435"
       id="linearGradient3145"
       xlink:href="#linearGradient3437"
       gradientUnits="userSpaceOnUse"
       gradientTransform="matrix(0.56429464,0,0,0.63214328,-81.82938,-198.1479)" />
    <linearGradient
       id="linearGradient3144">
      <stop
         id="stop3146"
         style="stop-color:#ff6600;stop-opacity:1"
         offset="0" />
      <stop
         id="stop3148"
         style="stop-color:#b84400;stop-opacity:1"
         offset="1" />
    </linearGradient>
    <linearGradient
       x1="200.00404"
       y1="514.96899"
       x2="279.98737"
       y2="514.96899"
       id="linearGradient3147"
       xlink:href="#linearGradient3437"
       gradientUnits="userSpaceOnUse"
       gradientTransform="matrix(0.56429464,0,0,0.63214328,-84.652368,-206.93967)" />
    <linearGradient
       id="linearGradient3151">
      <stop
         id="stop3153"
         style="stop-color:#ff6600;stop-opacity:1"
         offset="0" />
      <stop
         id="stop3155"
         style="stop-color:#b84400;stop-opacity:1"
         offset="1" />
    </linearGradient>
    <linearGradient
       x1="190.00249"
       y1="339.86221"
       x2="279.98581"
       y2="339.86221"
       id="linearGradient3149"
       xlink:href="#linearGradient3437"
       gradientUnits="userSpaceOnUse"
       gradientTransform="matrix(0.75243453,0,0,1.390751,-126.04178,-469.18679)" />
    <linearGradient
       id="linearGradient3158">
      <stop
         id="stop3160"
         style="stop-color:#ff6600;stop-opacity:1"
         offset="0" />
      <stop
         id="stop3162"
         style="stop-color:#b84400;stop-opacity:1"
         offset="1" />
    </linearGradient>
    <linearGradient
       y2="339.86221"
       x2="279.98581"
       y1="339.86221"
       x1="190.00249"
       gradientTransform="matrix(0.75243453,0,0,1.390751,-126.04178,-469.18679)"
       gradientUnits="userSpaceOnUse"
       id="linearGradient3174"
       xlink:href="#linearGradient3437"
       inkscape:collect="always" />
  </defs>
  <sodipodi:namedview
     id="base"
     pagecolor="#ffffff"
     bordercolor="#666666"
     borderopacity="1.0"
     inkscape:pageopacity="0.0"
     inkscape:pageshadow="2"
     inkscape:zoom="0.35"
     inkscape:cx="88.74211"
     inkscape:cy="-164.99461"
     inkscape:document-units="px"
     inkscape:current-layer="layer1"
     showgrid="false"
     fit-margin-top="0"
     fit-margin-left="0"
     fit-margin-right="0"
     fit-margin-bottom="0"
     inkscape:window-width="1362"
     inkscape:window-height="264"
     inkscape:window-x="556"
     inkscape:window-y="282"
     inkscape:window-maximized="0" />
  <metadata
     id="metadata3181">
    <rdf:RDF>
      <cc:Work
         rdf:about="">
        <dc:format>image/svg+xml</dc:format>
        <dc:type
           rdf:resource="http://purl.org/dc/dcmitype/StillImage" />
        <dc:title></dc:title>
      </cc:Work>
    </rdf:RDF>
  </metadata>
  <g
     inkscape:label="Layer 1"
     inkscape:groupmode="layer"
     id="layer1"
     transform="translate(-286.25789,-685.92821)">
    <g
       id="g3125"
       transform="translate(286.25789,685.92821)">
      <path
         inkscape:connector-curvature="0"
         d="M 73.34301,11.68025 C 73.02988,16.16359 62.67348,19.70673 50.21136,19.59407 38.09465,19.48452 28.381356,15.95186 28.208845,11.59184"
         id="path2551"
         style="fill:url(#linearGradient3135);fill-opacity:1;fill-rule:evenodd;stroke:none" />
      <path
         inkscape:connector-curvature="0"
         d="m 76.1639,25.73979 c -0.35228,3.681 -12.00322,6.59005 -26.0231,6.49756 -13.63131,-0.0899 -24.558764,-2.9904 -24.752836,-6.57014"
         id="path2553"
         style="fill:url(#linearGradient3137);fill-opacity:1;fill-rule:evenodd;stroke:none" />
      <path
         inkscape:connector-curvature="0"
         d="M 87.44743,39.80958 C 86.93859,46.26255 70.10946,51.36226 49.85852,51.20012 30.168848,51.04246 14.384749,45.9578 14.104418,39.68235"
         id="path2555"
         style="fill:url(#linearGradient3139);fill-opacity:1;fill-rule:evenodd;stroke:none" />
      <path
         inkscape:connector-curvature="0"
         d="M 95.91009,57.00038 C 95.28382,64.45772 74.57104,70.35118 49.6468,70.1638 25.413368,69.9816 5.986786,64.10554 5.641765,56.85334"
         id="path2557"
         style="fill:url(#linearGradient3141);fill-opacity:1;fill-rule:evenodd;stroke:none" />
      <path
         inkscape:connector-curvature="0"
         d="M 101.55186,74.19124 C 100.84731,82.65292 77.54544,89.34013 49.50567,89.12751 22.24305,88.92078 0.388145,82.25332 0,74.0244"
         id="path2559"
         style="fill:url(#linearGradient3143);fill-opacity:1;fill-rule:evenodd;stroke:none" />
      <path
         inkscape:connector-curvature="0"
         d="m 87.44744,94.44882 c -0.50884,6.98026 -17.33798,12.4967 -37.58892,12.3213 -19.689668,-0.17053 -35.473768,-5.67068 -35.754098,-12.45893"
         id="path2561"
         style="fill:url(#linearGradient3145);fill-opacity:1;fill-rule:evenodd;stroke:none" />
      <path
         inkscape:connector-curvature="0"
         d="m 73.34301,114.02409 c -0.31313,5.2352 -10.66953,9.3725 -23.13165,9.241 -12.11671,-0.1279 -21.830004,-4.253 -22.002515,-9.3442"
         id="path2565"
         style="fill:url(#linearGradient3147);fill-opacity:1;fill-rule:evenodd;stroke:none" />
      <path
         inkscape:connector-curvature="0"
         d="M 84.62921,0.17468 C 84.15948,4.01392 68.62404,7.04803 49.92982,6.95156 31.704926,6.85756 17.114295,3.81693 16.922657,0.0731 L 50.78034,0 z"
         id="path2567"
         style="fill:url(#linearGradient3174);fill-opacity:1;fill-rule:evenodd;stroke:none" />
    </g>
    <path
       inkscape:connector-curvature="0"
       d="m 378.19833,824.47657 c -0.0288,-0.045 -0.79563,-0.1347 -1.7042,-0.1983 -0.90855,-0.064 -1.97063,-0.2209 -2.36016,-0.3494 -0.38953,-0.1286 -1.06669,-0.2344 -1.5048,-0.2353 -0.4382,0 -1.55897,-0.2021 -2.4908,-0.4471 -0.93183,-0.245 -1.9139,-0.4955 -2.18239,-0.5565 -1.41011,-0.3211 -6.36054,-2.1203 -7.08441,-2.5749 -0.30475,-0.1914 -0.57826,-0.4334 -0.60783,-0.5379 -0.0295,-0.1044 -0.26432,-0.2239 -0.52169,-0.2655 -0.25738,-0.042 -0.51587,-0.1514 -0.57445,-0.244 -0.0586,-0.093 -0.47358,-0.3623 -0.92223,-0.5993 -0.44865,-0.237 -0.77601,-0.539 -0.72746,-0.6711 0.0485,-0.132 -0.11635,-0.24 -0.36641,-0.24 -0.25007,0 -0.41706,-0.1024 -0.3711,-0.2274 0.046,-0.125 -0.12104,-0.2273 -0.3711,-0.2273 -0.25006,0 -0.42597,-0.078 -0.39092,-0.1734 0.0671,-0.1825 -0.0525,-0.2765 -1.51381,-1.1906 -0.49974,-0.3126 -0.91452,-0.645 -0.92173,-0.7388 -0.007,-0.094 -0.14708,-0.1705 -0.31084,-0.1705 -0.16375,0 -0.30044,-0.1681 -0.30376,-0.3736 -0.003,-0.2054 -0.0914,-0.311 -0.1958,-0.2347 -0.10436,0.076 -0.37163,-0.062 -0.59391,-0.3085 -0.22229,-0.2459 -0.57931,-0.4472 -0.79338,-0.4472 -0.21407,0 -0.55651,-0.2136 -0.76099,-0.4747 -0.20448,-0.2611 -0.65309,-0.6139 -0.9969,-0.7841 -0.34382,-0.1701 -0.58338,-0.4228 -0.53237,-0.5616 0.051,-0.1388 -0.0176,-0.1968 -0.15249,-0.1288 -0.13489,0.068 -0.56173,-0.232 -0.94855,-0.6664 -0.3868,-0.4344 -0.80489,-0.7918 -0.92907,-0.7941 -0.19801,-0.01 -0.84625,-0.7249 -2.58159,-2.8721 -0.25783,-0.319 -0.65879,-0.6893 -0.89101,-0.8229 -0.23223,-0.1335 -0.39164,-0.326 -0.35423,-0.4278 0.0596,-0.1622 -0.85232,-0.87858 -1.11841,-0.87858 -0.055,0 -0.39191,0.74158 -0.74872,1.64808 -0.3568,0.9065 -1.01865,2.5688 -1.47076,3.6941 -0.45213,1.1253 -0.96131,2.3934 -1.13151,2.818 l -0.30947,0.772 -0.30693,-0.5565 c -0.465,-0.8432 -0.85237,-2.0105 -1.04451,-3.1472 -0.0951,-0.5626 -0.31684,-1.2325 -0.49276,-1.4886 -0.17593,-0.2561 -0.46402,-1.1254 -0.64022,-1.9317 -0.17619,-0.8063 -0.48779,-1.79408 -0.69244,-2.19498 -0.20465,-0.4009 -0.52622,-1.441 -0.71462,-2.3113 -0.18839,-0.8704 -0.40723,-1.6168 -0.4863,-1.6587 -0.23854,-0.1264 -0.71806,-1.5924 -0.93583,-2.861 -0.11268,-0.65636 -0.28365,-1.19343 -0.37993,-1.19343 -0.0963,0 -0.36909,-0.79282 -0.60624,-1.76181 -0.23716,-0.96899 -0.56913,-1.92375 -0.73772,-2.12176 -0.29355,-0.34464 -0.28852,-0.36032 0.11894,-0.37033 0.234,-0.006 0.85673,0.0723 1.38383,0.17331 0.52708,0.10109 1.74895,0.25095 2.71525,0.33307 0.9663,0.0821 2.96462,0.34735 4.44073,0.58934 2.47536,0.40581 6.57602,0.96258 9.19742,1.2488 0.59628,0.0651 1.64842,0.26408 2.33807,0.44219 0.68967,0.1781 1.8416,0.32536 2.55984,0.32718 1.20683,0.005 1.29039,0.0422 1.10129,0.51487 -0.11255,0.28133 -0.51575,0.81835 -0.896,1.19347 -0.38025,0.3751 -0.80883,0.8447 -0.95239,1.0437 -0.14356,0.1989 -0.90668,0.5388 -1.6958,0.7553 -1.67018,0.4582 -4.11173,1.4472 -4.61927,1.871 -0.46932,0.3919 0.0206,1.5846 0.93633,2.2795 0.62729,0.476 2.59186,1.7112 2.82797,1.7781 0.0566,0.016 0.43553,0.202 0.84204,0.4132 0.4065,0.2112 0.79527,0.38398 0.86393,0.38398 0.0687,0 0.23501,0.1494 0.36966,0.332 0.27041,0.3667 3.98106,1.8529 8.60036,3.4445 3.45035,1.1889 3.16564,1.1057 5.36666,1.5676 0.92861,0.195 1.96218,0.4444 2.2968,0.5546 0.96461,0.3173 5.92195,0.2804 6.95254,-0.052 1.29016,-0.4159 2.14985,-0.9017 2.29721,-1.2982 0.0701,-0.1888 0.36,-0.6045 0.64412,-0.924 0.55514,-0.6241 1.20191,-2.7727 1.15955,-3.85208 -0.022,-0.5612 0.10656,-2.4719 0.18613,-2.7658 0.0227,-0.083 -0.007,-0.2283 -0.0668,-0.3221 -0.0593,-0.094 -0.042,-0.3495 0.0384,-0.5683 0.0804,-0.2188 0.0556,-0.4323 -0.0552,-0.4744 -0.1108,-0.042 -0.15807,-0.3244 -0.10505,-0.6273 0.053,-0.303 0.0302,-0.6557 -0.0508,-0.7836 -0.0809,-0.128 -0.0841,-0.4043 -0.007,-0.614 0.0771,-0.2097 0.0335,-0.5087 -0.0968,-0.6644 -0.13033,-0.1556 -0.17368,-0.4551 -0.0963,-0.6656 0.0774,-0.2105 0.0123,-0.7293 -0.14452,-1.15298 -0.15686,-0.42369 -0.23775,-0.89938 -0.17978,-1.05706 0.058,-0.15772 -0.0118,-0.66358 -0.15511,-1.12421 -0.14327,-0.46058 -0.20891,-0.9778 -0.14587,-1.14934 0.063,-0.17148 -0.0742,-0.91125 -0.30504,-1.64394 -0.23081,-0.73268 -0.37516,-1.45322 -0.32076,-1.60121 0.0544,-0.14803 -0.0815,-0.85169 -0.30204,-1.56374 -0.22052,-0.71205 -0.48501,-1.95961 -0.58777,-2.77233 -0.10277,-0.81266 -0.29315,-1.68226 -0.42308,-1.93232 -0.28004,-0.53895 -0.66502,-2.57533 -0.54738,-2.89539 0.0453,-0.1231 -0.14394,-0.90304 -0.42043,-1.73316 -0.27652,-0.83014 -0.6351,-2.37866 -0.79688,-3.44115 -0.16179,-1.06249 -0.37379,-2.08547 -0.47112,-2.2733 -0.25454,-0.49119 -0.72852,-2.76062 -0.66289,-3.17398 0.0306,-0.19254 -0.19832,-1.21246 -0.50863,-2.26647 -0.31033,-1.05399 -0.5137,-2.05387 -0.45193,-2.22194 0.0618,-0.16806 -0.0544,-0.82607 -0.25817,-1.46223 -0.20377,-0.63618 -0.30411,-1.33728 -0.22298,-1.558 0.0811,-0.22071 0.0329,-0.53817 -0.10717,-0.70547 -0.14008,-0.16727 -0.32579,-0.9127 -0.41269,-1.6565 -0.0869,-0.7438 -0.23131,-1.51456 -0.3209,-1.71281 -0.0896,-0.19825 -0.20023,-0.64178 -0.24586,-0.98561 -0.0928,-0.69881 -0.36833,-0.74419 -1.79242,-0.29519 -0.92822,0.29266 -1.04003,0.273 -1.99688,-0.35097 -0.55748,-0.36355 -1.16835,-0.66099 -1.3575,-0.66099 -0.18915,0 -1.44149,0.30438 -2.783,0.6764 -2.15314,0.59711 -12.92514,3.49485 -16.68427,4.48818 -1.94871,0.51493 -2.06855,0.6072 -2.09572,1.61352 -0.0125,0.46059 -0.29846,1.51858 -0.63565,2.35108 -0.48506,1.19766 -0.76693,1.63805 -1.35016,2.10951 -1.17415,0.94917 -2.09944,1.24331 -3.66766,1.16597 -1.83455,-0.0905 -3.53102,-1.24134 -4.73766,-3.21394 -0.87402,-1.42885 -1.62799,-3.8177 -1.34202,-4.25207 0.0857,-0.1302 0.0875,-0.29726 0.004,-0.37123 -0.0835,-0.074 -0.003,-0.85967 0.17901,-1.74601 0.28705,-1.39812 0.43147,-1.74427 1.09084,-2.61428 1.60631,-2.11946 3.3076,-2.65739 5.62949,-1.78002 1.4157,0.53496 2.7005,1.50209 2.94942,2.22017 0.0785,0.22662 0.3394,0.57301 0.57966,0.76976 0.41135,0.33685 0.65016,0.30055 4.09329,-0.62218 6.43389,-1.72426 16.49828,-4.44272 17.368,-4.69121 0.69376,-0.19823 0.87418,-0.3467 1.02468,-0.84323 0.4779,-1.5768 0.61746,-1.68172 3.10737,-2.3341 0.60242,-0.15786 1.19039,-0.41356 1.30661,-0.56823 0.15187,-0.20215 -0.93444,-5.05496 -1.48695,-6.64258 -0.0146,-0.042 -0.94917,-0.16324 -2.07677,-0.26937 -2.85597,-0.2688 -4.09621,-0.48049 -4.15343,-0.70895 -0.0269,-0.10757 -0.32709,-0.19558 -0.667,-0.19558 -0.3399,0 -1.09176,-0.30372 -1.67079,-0.67493 -0.57904,-0.37122 -1.07234,-0.62176 -1.09623,-0.55676 -0.0239,0.065 -0.28965,-0.14277 -0.59057,-0.46171 -0.30092,-0.31894 -0.66358,-0.57989 -0.8059,-0.57989 -0.28895,0 -0.7387,-0.5539 -2.23219,-2.74905 -0.56082,-0.82431 -0.99347,-1.57001 -0.96146,-1.65711 0.032,-0.0871 -0.10441,-0.69003 -0.30316,-1.33984 -0.19877,-0.64981 -0.29509,-1.36186 -0.21405,-1.58233 0.081,-0.22048 0.0405,-0.40086 -0.0899,-0.40086 -0.13052,0 -0.16968,-0.12788 -0.087,-0.28417 0.0827,-0.15629 0.14839,-0.4376 0.14611,-0.62515 -0.0135,-1.10786 0.17055,-1.90546 0.83057,-3.59912 0.40598,-1.04178 0.89453,-2.0085 1.08567,-2.14826 0.19113,-0.13976 0.43131,-0.48209 0.53373,-0.76073 0.10241,-0.27865 0.37358,-0.64363 0.60258,-0.81108 0.22901,-0.16745 0.49532,-0.40493 0.59181,-0.52773 0.98638,-1.25534 4.99575,-3.9742 5.86056,-3.9742 0.19461,0 0.38586,-0.0871 0.425,-0.19359 0.0391,-0.10647 0.83305,-0.38779 1.76426,-0.62516 3.22125,-0.82108 9.07496,-0.44435 10.84563,0.698 0.29435,0.1899 0.70018,0.34591 0.90184,0.34668 0.20169,5.2e-4 0.55155,0.206 0.77754,0.45605 0.22598,0.25007 0.51531,0.45466 0.64295,0.45466 0.12764,0 0.32025,0.12788 0.42802,0.28417 0.10777,0.15629 0.42146,0.42769 0.69709,0.60311 0.27564,0.17543 0.85959,0.81322 1.29768,1.41731 0.43809,0.60408 0.87267,1.09992 0.96573,1.10184 0.0931,0.002 0.11281,0.15696 0.0439,0.34451 -0.0689,0.18754 -0.0427,0.34099 0.0582,0.34099 0.18132,0 0.94329,1.99931 0.80226,2.105 -0.0401,0.0301 0.0393,0.38034 0.17645,0.77843 0.13713,0.39809 0.24339,1.12736 0.23612,1.62061 -0.0218,1.48156 -1.01985,5.19537 -1.45502,5.41453 -0.12595,0.0634 -0.20271,0.22032 -0.17057,0.34863 0.0623,0.24891 -0.0986,0.46632 -1.88558,2.54715 -0.63018,0.73383 -1.2942,1.38414 -1.47557,1.44514 -0.18138,0.061 -0.36844,0.21609 -0.4157,0.34467 -0.10018,0.27254 -1.15446,1.02426 -2.23487,1.5935 -0.83895,0.44202 -0.90638,0.6958 -0.52338,1.96982 0.12844,0.42724 0.12977,0.88758 0.003,1.02298 -0.1268,0.13541 -0.12367,0.1738 0.007,0.0853 0.13062,-0.0885 0.48982,0.8322 0.79818,2.04596 0.30837,1.21375 0.57742,2.24553 0.59789,2.29284 0.0205,0.0473 0.5739,-0.0414 1.22984,-0.19721 2.26397,-0.53763 3.12945,-0.51338 3.88652,0.10896 0.38177,0.31381 0.84474,0.57058 1.02882,0.57058 0.38665,0 21.24593,-5.57832 21.46886,-5.74133 0.0815,-0.0596 0.32779,-0.83211 0.54727,-1.71668 0.8516,-3.43196 2.68112,-5.12953 5.31944,-4.93576 1.80094,0.13226 2.17019,0.25159 2.78059,0.89855 0.32299,0.34231 0.69787,0.56666 0.83312,0.49855 0.13524,-0.0681 0.52263,0.2688 0.86087,0.74868 0.33824,0.47988 0.68804,0.81909 0.77734,0.7538 0.0893,-0.0653 0.16536,0.0671 0.16904,0.29427 0.007,0.43002 0.0816,0.62105 0.74333,1.90226 0.21946,0.4249 0.33398,0.94943 0.25452,1.16564 -0.0795,0.21621 -0.0379,0.52046 0.0925,0.67611 0.13033,0.15565 0.16858,0.46903 0.085,0.6964 -0.0836,0.22738 -0.0791,0.47168 0.01,0.54288 0.089,0.0712 -0.0158,0.81176 -0.23304,1.64566 -0.6942,2.66508 -2.1393,4.15204 -4.40825,4.53593 -0.90422,0.153 -2.01842,0.0937 -2.19987,-0.11694 -0.0994,-0.11537 -0.56798,-0.33883 -1.04139,-0.49655 -0.4734,-0.15774 -0.82909,-0.37291 -0.7904,-0.47814 0.0387,-0.10525 -0.0574,-0.19185 -0.21343,-0.19244 -0.15611,0 -0.5291,-0.33306 -0.82894,-0.73882 -0.29985,-0.40576 -0.77454,-0.96276 -1.05485,-1.23783 l -0.50969,-0.50008 -3.75653,1.03055 c -2.06609,0.5668 -4.26604,1.16432 -4.88879,1.32784 -6.76073,1.77514 -12.44619,3.33041 -12.8739,3.52169 -0.41059,0.18361 -0.56054,0.39928 -0.6791,0.97679 -0.18391,0.89588 -0.76167,1.3266 -2.31887,1.72874 -1.22434,0.3162 -1.33796,0.48415 -0.9956,1.47169 0.13655,0.39387 0.30857,1.06949 0.38228,1.50137 0.0737,0.43191 0.34947,1.25072 0.61282,1.81959 0.26336,0.56889 0.52099,1.34554 0.57251,1.72591 0.0515,0.38034 0.32298,1.19132 0.60322,1.80217 0.28025,0.61086 0.60808,1.70625 0.7285,2.43422 0.12042,0.72798 0.30799,1.3236 0.41681,1.3236 0.10881,0 0.39132,0.79281 0.62777,1.76181 0.23645,0.96899 0.50293,1.86409 0.59216,1.98912 0.31398,0.43998 0.7635,1.82904 0.89724,2.77257 0.0744,0.5247 0.2389,1.03619 0.36563,1.13665 0.12672,0.10047 0.35117,0.67464 0.49876,1.27588 0.14761,0.60127 0.56351,1.89052 0.92424,2.86504 0.36073,0.97451 0.62222,1.8636 0.5811,1.97574 -0.0411,0.11216 0.14179,0.61313 0.40647,1.11325 0.2647,0.50015 0.54066,1.3185 0.61326,1.81862 0.0726,0.50013 0.28036,1.12005 0.4617,1.37765 0.18134,0.25756 0.43529,0.97363 0.56433,1.59131 0.12904,0.61768 0.41786,1.42988 0.6418,1.805 0.22396,0.37507 0.46287,1.05888 0.53092,1.51951 0.0681,0.46063 0.28548,1.12557 0.48317,1.47761 0.19768,0.35209 0.41782,1.04934 0.48918,1.54946 0.0714,0.50013 0.27152,1.04392 0.44478,1.20848 0.17326,0.16456 0.3724,0.70163 0.44254,1.19352 0.0701,0.49184 0.20734,0.89427 0.30489,0.89427 0.0976,0 0.29765,0.45464 0.44464,1.01036 0.147,0.55565 0.39631,1.18535 0.55401,1.39925 0.15771,0.2138 0.25353,0.4792 0.21293,0.5896 -0.1,0.272 2.48128,4.2753 2.7566,4.2753 0.12019,0 0.34435,0.199 0.49814,0.4422 0.37658,0.5954 1.99388,1.0936 3.27855,1.01 0.57644,-0.038 1.33676,-0.088 1.68959,-0.1128 0.35285,-0.024 0.67043,-0.1232 0.70574,-0.2192 0.0353,-0.096 0.39587,-0.2421 0.80125,-0.3245 0.40537,-0.082 0.76343,-0.2184 0.79568,-0.3022 0.0322,-0.084 0.56532,-0.3571 1.1846,-0.6071 0.61929,-0.2501 1.94143,-1.0429 2.93811,-1.7618 0.99667,-0.719 1.9055,-1.3072 2.01963,-1.3072 0.11412,0 0.24869,-0.1121 0.29905,-0.2491 0.0503,-0.1369 0.38386,-0.5206 0.74114,-0.8525 1.00345,-0.9321 2.50635,-2.53838 3.48912,-3.72914 0.49016,-0.59387 0.97432,-1.07983 1.07593,-1.07983 0.1016,0 0.25533,-0.19206 0.34162,-0.42681 0.0863,-0.23474 0.35714,-0.55416 0.6019,-0.70981 0.24476,-0.15564 0.50986,-0.45943 0.58911,-0.67505 0.0793,-0.21562 0.40965,-0.60705 0.73421,-0.86988 0.32456,-0.26288 0.87851,-0.91787 1.23102,-1.45562 0.3525,-0.53775 0.85975,-1.28461 1.12721,-1.65968 0.5605,-0.78609 1.34188,-2.05871 2.1634,-3.52361 0.67429,-1.2024 0.90455,-2.65938 0.50993,-3.22672 -0.1473,-0.21181 -0.26376,-0.50368 -0.2588,-0.64862 0.0168,-0.49017 -2.56001,-0.35702 -5.14194,0.26566 -1.23732,0.29841 -1.81056,0.34915 -2.06086,0.18238 -0.19073,-0.12707 -0.46104,-0.17349 -0.6007,-0.10316 -0.13966,0.0703 -0.27997,0.0239 -0.31179,-0.10314 -0.0318,-0.12707 -0.28143,-0.2326 -0.55467,-0.23451 -0.27323,-0.002 -0.60299,-0.0912 -0.73277,-0.19844 -0.31602,-0.26104 0.33424,-0.98215 1.70788,-1.89395 0.56277,-0.37356 1.07357,-0.81624 1.13515,-0.98374 0.0616,-0.16752 0.38597,-0.4572 0.7209,-0.64377 0.33493,-0.18655 1.47099,-1.0363 2.52457,-1.88836 1.05359,-0.85203 2.52666,-2.04324 3.27351,-2.64714 0.74685,-0.60389 1.80622,-1.41313 2.35415,-1.79832 0.54793,-0.38519 1.02784,-0.78631 1.06646,-0.89138 0.0386,-0.10509 0.59863,-0.58496 1.24446,-1.0664 0.64583,-0.48142 1.75825,-1.35095 2.47204,-1.93228 0.7138,-0.5813 1.55711,-1.26515 1.87402,-1.51965 0.31691,-0.25449 0.63859,-0.41283 0.71485,-0.35184 0.0762,0.061 0.22846,0.80636 0.33823,1.65642 0.10977,0.85005 0.45969,2.41509 0.77759,3.47786 0.71241,2.38158 1.41514,5.38235 1.32065,5.63942 -0.0387,0.10521 0.19504,1.10434 0.51933,2.22032 0.77306,2.6603 1.40623,5.52244 1.29537,5.85562 -0.0486,0.14595 0.19658,1.13248 0.54476,2.19219 0.34819,1.05976 0.58275,1.96361 0.52125,2.00858 -0.22952,0.16784 -1.49353,-0.72591 -1.59718,-1.12927 -0.0592,-0.23052 -0.28768,-0.41915 -0.50767,-0.41915 -0.21999,0 -0.53173,-0.20833 -0.69276,-0.46293 -0.16103,-0.25465 -0.43313,-0.39226 -0.60468,-0.30587 -0.17837,0.0898 -0.21132,0.055 -0.077,-0.0813 0.1333,-0.13522 -0.0929,-0.39217 -0.5229,-0.59387 -0.41681,-0.19551 -0.7846,-0.46241 -0.81733,-0.59306 -0.0327,-0.13059 -0.42364,-0.43677 -0.86874,-0.68032 -0.44509,-0.24355 -0.88255,-0.60132 -0.97212,-0.79506 -0.0896,-0.19368 -0.29126,-0.35224 -0.44818,-0.35224 -0.15693,0 -0.35139,-0.14288 -0.43214,-0.31749 -0.15823,-0.34224 -1.15444,-0.22459 -1.06664,0.12599 0.0291,0.11626 -0.12386,0.35908 -0.33999,0.53958 -0.21612,0.18044 -0.3905,0.47959 -0.3875,0.66473 0.003,0.18514 -0.12063,0.40013 -0.2747,0.47772 -0.15408,0.0776 -0.32593,0.31103 -0.38191,0.51881 -0.0559,0.2077 -0.1466,0.42879 -0.2014,0.49132 -0.23085,0.2633 -2.26074,4.9587 -3.78374,8.75218 -1.83506,4.57081 -2.43806,5.93591 -3.41404,7.72921 -0.47633,0.8752 -0.97702,1.847 -1.11263,2.1596 -0.1356,0.3126 -0.36668,0.7218 -0.51348,0.9093 -0.1468,0.1876 -0.43063,0.6479 -0.63074,1.02302 -0.50161,0.9403 -2.06238,3.0456 -2.48921,3.3577 -0.19321,0.1413 -0.41898,0.441 -0.5017,0.666 -0.0827,0.2251 -0.22944,0.4092 -0.32604,0.4092 -0.0966,0 -0.51795,0.3836 -0.93633,0.8525 -0.41838,0.4689 -0.8916,0.9277 -1.05159,1.0195 -0.17875,0.1026 -0.20615,0.1684 -0.0711,0.1705 0.12087,0 -0.0661,0.1628 -0.41552,0.3574 -0.34942,0.1946 -0.66344,0.4304 -0.69781,0.5239 -0.11405,0.3103 -3.73423,2.9328 -4.91901,3.5635 -0.64099,0.3412 -1.192,0.6926 -1.22448,0.781 -0.0325,0.088 -0.36211,0.2789 -0.73252,0.4235 -0.71683,0.2797 -0.89576,0.3813 -2.25742,1.2813 -0.4783,0.3161 -1.05928,0.5748 -1.29108,0.5748 -0.23181,0 -0.45907,0.1023 -0.50503,0.2273 -0.046,0.125 -0.23701,0.2273 -0.42456,0.2273 -0.18754,0 -0.37859,0.1023 -0.42454,0.2274 -0.046,0.125 -0.28816,0.2273 -0.53822,0.2273 -0.25006,0 -0.49226,0.1023 -0.53821,0.2273 -0.046,0.1251 -0.32678,0.2273 -0.62405,0.2273 -0.29726,0 -0.72423,0.1535 -0.94882,0.341 -0.22459,0.1876 -0.61793,0.341 -0.87409,0.341 -0.25617,0 -0.67616,0.1331 -0.93332,0.2957 -0.64095,0.4052 -3.9902,1.3231 -4.89413,1.3412 -0.40541,0.01 -0.94431,0.1045 -1.19757,0.2142 -0.25325,0.1097 -0.97105,0.2535 -1.5951,0.3196 -0.62405,0.066 -1.45882,0.1671 -1.85503,0.2246 -0.91345,0.1324 -9.26409,0.3157 -9.33421,0.2048 z m -8.55396,-86.36453 c 1.78381,-0.15684 2.56819,-0.36672 3.55358,-0.95085 0.49468,-0.29324 1.00704,-0.53317 1.13857,-0.53317 0.36469,0 3.05348,-2.25886 3.08636,-2.59286 0.008,-0.0769 0.28656,-0.44819 0.61996,-0.82505 0.33957,-0.38382 0.76306,-1.15768 0.9628,-1.75942 0.43174,-1.30051 0.73218,-3.23385 0.50255,-3.23385 -0.0915,0 -0.12358,-0.28879 -0.0714,-0.64176 0.1165,-0.78753 -1.61901,-3.79759 -2.54664,-4.4169 -1.46537,-0.97831 -2.05556,-1.30655 -2.3492,-1.30655 -0.16858,0 -0.38735,-0.12788 -0.48615,-0.28417 -0.21447,-0.33927 -0.69464,-0.40657 -3.45447,-0.48418 -2.15197,-0.0605 -3.39051,0.18828 -5.4203,1.08883 -1.45862,0.64714 -3.95071,2.6533 -4.22586,3.40186 -0.0693,0.18851 -0.26246,0.41148 -0.42926,0.49548 -0.1668,0.084 -0.32255,0.33447 -0.34611,0.55658 -0.0236,0.22211 -0.16196,0.5247 -0.30755,0.67243 -0.1456,0.14772 -0.32948,0.69611 -0.40862,1.21864 -0.18062,1.19246 -0.28964,1.78537 -0.39113,2.12729 -0.0438,0.14736 0.002,0.40311 0.10188,0.56833 0.0998,0.16522 0.2863,0.81189 0.41448,1.43704 0.23664,1.15409 0.61718,1.9323 0.9449,1.9323 0.0994,0 0.359,0.30934 0.57688,0.68742 0.21788,0.37808 0.74496,0.89138 1.1713,1.14066 0.42633,0.24928 0.89437,0.54635 1.04009,0.66015 0.31338,0.24475 0.92298,0.5209 1.36415,0.61798 0.17351,0.0382 0.77011,0.15722 1.32576,0.26453 0.55565,0.10731 1.04964,0.25735 1.09776,0.33344 0.0481,0.0761 0.37402,0.0912 0.72425,0.0337 0.35022,-0.0575 1.16535,-0.15109 1.81138,-0.20789 z"
       id="path2991"
       style="fill:#4085a5;fill-opacity:1" />
  </g>
</svg>
