<?xml version="1.0" encoding="utf-8"?>
<!-- Generator: Adobe Illustrator 16.0.0, SVG Export Plug-In . SVG Version: 6.00 Build 0)  -->
<!DOCTYPE svg PUBLIC "-//W3C//DTD SVG 1.1//EN" "http://www.w3.org/Graphics/SVG/1.1/DTD/svg11.dtd">
<svg version="1.1" id="svg2" xmlns:svg="http://www.w3.org/2000/svg"
	 xmlns="http://www.w3.org/2000/svg" xmlns:xlink="http://www.w3.org/1999/xlink" x="0px" y="0px" width="800.8px" height="200.8px"
	 viewBox="0 0 800.8 200.8" enable-background="new 0 0 800.8 200.8" xml:space="preserve">
<path id="rect2903" fill="none" d="M2.5,2.3h797v196.5H2.5V2.3z"/>
<g id="flowRoot11246" transform="matrix(4.0942852,0,0,4.0942852,135.58402,-45.35389)">
	<path id="path2910" fill="#FFFFFF" d="M12.52,49.696h2.96v-4.52l3.44-4.24l7.28,8.76h3.68l-9.08-10.88l8.52-11h-3.64l-10.2,13.28
		v-20.96h-2.96V49.696"/>
	<path id="path2912" fill="#FFFFFF" d="M54.518,39.736c0-3-0.4-4.84-1.48-6.76c-1.96-3.48-5.76-5.68-9.92-5.68
		c-6.36,0-11.36,5-11.36,11.36c0,6.48,5.08,11.56,11.56,11.56c2.8,0,5.44-1.04,7.44-2.92c1.56-1.48,2.6-3,3.2-4.8h-3.08
		c-1.24,3-4.32,5-7.64,5c-4.48,0-8.28-3.44-8.52-7.76H54.518 M34.798,37.056c0.8-4.2,4.12-7.04,8.28-7.04
		c4.24,0,7.48,2.68,8.48,7.04H34.798"/>
	<path id="path2914" fill="#FFFFFF" d="M80.894,27.816h-2.96v3.88c-2.16-3.04-4.84-4.4-8.64-4.4c-6.56,0-11.52,4.96-11.52,11.52
		c0,6.52,5,11.4,11.72,11.4c3.72,0,6.12-1.24,8.44-4.36v3.84h2.96V27.816 M69.374,30.016c4.8,0,8.56,3.76,8.56,8.64
		c0,4.96-3.68,8.84-8.4,8.84c-4.96,0-8.76-3.88-8.76-8.88C60.774,33.856,64.614,30.016,69.374,30.016"/>
</g>
<g id="flowRoot11246-5" transform="matrix(4.0942852,0,0,4.0942852,533.62575,-45.23163)">
	<path id="path2907" fill="#FFFFFF" d="M23.16,27.296c-6.48,0-11.48,4.92-11.48,11.32c0,6.72,4.92,11.6,11.72,11.6
		c6.4,0,11.12-4.84,11.12-11.4C34.52,32.136,29.72,27.296,23.16,27.296 M23.16,30.016c4.8,0,8.36,3.76,8.36,8.84
		c0,5-3.44,8.64-8.2,8.64c-5.04,0-8.64-3.68-8.64-8.8C14.68,33.736,18.32,30.016,23.16,30.016"/>
</g>
<g id="flowRoot11246-5-5-2-0" transform="matrix(4.0942852,0,0,4.2940593,639.06231,-51.12507)">
	<path id="path2904" fill="#FFFFFF" d="M28.555,43.023c0,0.99-0.196,1.875-0.586,2.656c-0.377,0.768-0.931,1.419-1.66,1.953
		c-0.729,0.521-1.628,0.925-2.695,1.211c-1.055,0.274-2.265,0.41-3.633,0.41c-1.224,0-2.331-0.098-3.321-0.293
		c-0.976-0.182-1.836-0.482-2.578-0.898c-0.742-0.417-1.367-0.964-1.875-1.641c-0.495-0.69-0.859-1.53-1.093-2.52l3.106-0.605
		c0.299,1.133,0.918,1.966,1.855,2.5c0.937,0.521,2.24,0.781,3.906,0.781c0.755,0,1.445-0.052,2.07-0.156
		c0.638-0.104,1.184-0.28,1.641-0.527c0.456-0.26,0.807-0.599,1.055-1.015c0.26-0.43,0.391-0.957,0.391-1.582
		c0-0.638-0.15-1.159-0.449-1.563c-0.3-0.417-0.716-0.762-1.25-1.035c-0.534-0.273-1.185-0.508-1.953-0.703
		c-0.755-0.208-1.589-0.436-2.5-0.684c-0.847-0.221-1.686-0.469-2.52-0.742s-1.589-0.632-2.265-1.074
		c-0.664-0.456-1.205-1.016-1.621-1.68c-0.416-0.664-0.625-1.497-0.625-2.5c0-1.927,0.684-3.392,2.051-4.394
		c1.38-1.016,3.386-1.523,6.016-1.523c2.33,0,4.179,0.41,5.547,1.23c1.381,0.82,2.253,2.135,2.618,3.945l-3.164,0.391
		c-0.117-0.547-0.332-1.003-0.644-1.367c-0.312-0.378-0.69-0.677-1.133-0.898c-0.443-0.234-0.944-0.397-1.504-0.488
		c-0.547-0.104-1.12-0.156-1.719-0.156c-1.589,0-2.761,0.241-3.516,0.723c-0.755,0.482-1.133,1.211-1.133,2.187
		c0,0.573,0.137,1.048,0.41,1.426c0.286,0.365,0.677,0.677,1.172,0.938c0.508,0.247,1.113,0.469,1.816,0.664
		c0.703,0.182,1.478,0.378,2.324,0.586c0.56,0.143,1.133,0.299,1.719,0.469c0.586,0.156,1.153,0.352,1.699,0.586
		c0.56,0.221,1.081,0.488,1.563,0.801c0.495,0.3,0.924,0.664,1.289,1.094c0.364,0.43,0.651,0.931,0.86,1.504
		C28.444,41.604,28.555,42.268,28.555,43.023"/>
</g>
<g id="flowRoot11246-5-5" transform="matrix(4.0942852,0,0,4.0942852,437.34062,-45.36744)">
	<path id="path2901" fill="#FFFFFF" d="M12.52,49.696h2.96v-12.04c0-2.44,0.32-3.72,1.16-4.96c1.16-1.68,3.2-2.68,5.52-2.68
		c2.16,0,4.12,0.88,5.32,2.36c1.04,1.36,1.44,2.96,1.44,5.84v11.48h2.96v-11.48c0-3.68-0.52-5.64-1.92-7.52
		c-1.72-2.16-4.36-3.4-7.44-3.4c-2.88,0-5.2,1.12-7.04,3.36v-2.84h-2.96V49.696"/>
</g>
<path id="path2908" fill="#FFFFFF" d="M119.53,160.085c-12.44-1.056-22.942-5.82-30.854-13.996
	c-2.112-2.184-3.324-3.684-4.985-6.174c-1.739-2.604-2.521-4.08-2.521-4.754c0-2.368,4.744-6.164,8.092-6.475
	c1.353-0.125,1.773,0.125,2.394,1.43c2.674,5.621,7.305,10.774,12.538,13.951c4.066,2.469,9.187,4.227,14.276,4.902
	c2.291,0.305,7.757,0.244,10.063-0.11c11.169-1.716,19.818-8.03,24.674-18.015c1.713-3.521,2.895-7.529,3.472-11.781
	c0.326-2.396,0.28-8.615-0.081-11.066c-2.507-17.014-14.333-28.724-30.615-30.316c-2.459-0.24-6.245-0.119-8.827,0.284
	c-10.578,1.649-19.286,7.579-24.477,16.667c-1.021,1.786-1.321,2.063-2.437,2.243c-1.464,0.235-5.46-0.814-7.458-1.958
	c-1.216-0.697-2.322-1.823-2.322-2.366c0-0.249,0.485-1.327,1.079-2.394c6.119-11.004,16.562-18.971,28.934-22.072
	c4.505-1.13,6.926-1.413,12.148-1.418c5.107-0.006,7.25,0.212,11.388,1.156c8.197,1.871,15.315,5.691,21.197,11.375
	c7.612,7.355,12.169,16.835,13.556,28.2c0.428,3.506,0.391,9.363-0.082,12.977c-1.413,10.801-5.796,19.9-13.08,27.154
	c-6.747,6.719-15.556,10.932-25.717,12.298C127.539,160.142,121.867,160.285,119.53,160.085L119.53,160.085L119.53,160.085z"/>
<g id="flowRoot11246-5-7-2" transform="matrix(4.0909675,0.16478939,-0.16478939,4.0909675,8.4513809,-42.33364)">
	<path id="path2898" fill="#A2CCD0" d="M30.44,34.096c-1.36,2.32-2.52,3.28-3.8,3.28c-0.8,0-1.48-0.2-3.2-0.92l-2.6-1.08
		c-1.2-0.52-2.24-0.76-3.08-0.76c-2.24,0-3.8,1.36-5.72,4.8l1.68,1.88c0.76-1.28,0.96-1.6,1.4-2.2c0.68-0.88,1.64-1.4,2.64-1.4
		c0.8,0,1.2,0.12,2.92,0.84l2.2,0.88c1.76,0.76,2.8,1.04,3.72,1.04c2.04,0,4.24-1.8,5.6-4.48L30.44,34.096"/>
</g>
</svg>
