<?xml version="1.0" encoding="UTF-8" standalone="no"?>
<!-- Created with Inkscape (http://www.inkscape.org/) -->

<svg
   xmlns:svg="http://www.w3.org/2000/svg"
   xmlns="http://www.w3.org/2000/svg"
   version="1.2"
   width="800.79999"
   height="200.8"
   id="svg2">
  <defs
     id="defs4" />
  <g
     transform="translate(0,-851.56218)"
     id="layer1">
    <g
       transform="matrix(4.0942852,0,0,4.0942852,135.58402,806.20829)"
       id="flowRoot11246"
       style="font-size:40px;font-style:normal;font-variant:normal;font-weight:normal;font-stretch:normal;fill:#4085a5;fill-opacity:1;stroke:none;display:inline;font-family:URW Gothic L;-inkscape-font-specification:URW Gothic L Book">
      <path
         d="m 12.52,49.696078 2.96,0 0,-4.52 3.44,-4.24 7.28,8.76 3.68,0 -9.08,-10.88 8.52,-11 -3.64,0 -10.2,13.28 0,-20.96 -2.96,0 0,29.56"
         id="path2954" />
      <path
         d="m 54.518125,39.736078 c 0,-2.999997 -0.400001,-4.840001 -1.48,-6.76 -1.959998,-3.479996 -5.760004,-5.68 -9.92,-5.68 -6.359994,0 -11.36,5.000007 -11.36,11.36 0,6.479994 5.080006,11.56 11.56,11.56 2.799997,0 5.440002,-1.040001 7.44,-2.92 1.559998,-1.479998 2.600001,-3.000001 3.2,-4.8 l -3.08,0 c -1.239999,2.999997 -4.320003,5 -7.64,5 -4.479996,0 -8.28,-3.440004 -8.52,-7.76 l 19.8,0 m -19.72,-2.68 c 0.799999,-4.199995 4.120004,-7.04 8.28,-7.04 4.239996,0 7.480001,2.680005 8.48,7.04 l -16.76,0"
         id="path2956" />
      <path
         d="m 80.89375,27.816078 -2.96,0 0,3.88 c -2.159998,-3.039997 -4.840004,-4.4 -8.64,-4.4 -6.559993,0 -11.52,4.960007 -11.52,11.52 0,6.519994 5.000007,11.4 11.72,11.4 3.719996,0 6.120002,-1.240003 8.44,-4.36 l 0,3.84 2.96,0 0,-21.88 m -11.52,2.2 c 4.799995,0 8.56,3.760005 8.56,8.64 0,4.959995 -3.680005,8.84 -8.4,8.84 -4.959995,0 -8.76,-3.880005 -8.76,-8.88 0,-4.759995 3.840005,-8.6 8.6,-8.6"
         id="path2958" />
    </g>
    <g
       transform="matrix(4.0942852,0,0,4.0942852,533.62575,806.33055)"
       id="flowRoot11246-5"
       style="font-size:40px;font-style:normal;font-variant:normal;font-weight:normal;font-stretch:normal;fill:#4085a5;fill-opacity:1;stroke:none;display:inline;font-family:URW Gothic L;-inkscape-font-specification:URW Gothic L Book">
      <path
         d="m 23.16,27.296078 c -6.479994,0 -11.48,4.920007 -11.48,11.32 0,6.719994 4.920007,11.6 11.72,11.6 6.399994,0 11.12,-4.840006 11.12,-11.4 0,-6.679993 -4.800007,-11.52 -11.36,-11.52 m 0,2.72 c 4.799995,0 8.36,3.760006 8.36,8.84 0,4.999995 -3.440005,8.64 -8.2,8.64 -5.039995,0 -8.64,-3.680005 -8.64,-8.8 0,-4.959995 3.640005,-8.68 8.48,-8.68"
         id="path2951" />
    </g>
    <g
       transform="matrix(4.0942852,0,0,4.2940593,639.06231,800.43711)"
       id="flowRoot11246-5-5-2-0"
       style="font-size:40px;font-style:normal;font-variant:normal;font-weight:normal;font-stretch:normal;fill:#4085a5;fill-opacity:1;stroke:none;display:inline;font-family:URW Gothic L;-inkscape-font-specification:URW Gothic L Book">
      <path
         d="m 28.554687,43.023214 c -1.8e-5,0.989588 -0.19533,1.875004 -0.585937,2.65625 -0.377622,0.768231 -0.931007,1.419272 -1.660156,1.953125 -0.729182,0.520834 -1.627619,0.924479 -2.695313,1.210937 -1.0547,0.273437 -2.265636,0.410156 -3.632812,0.410156 -1.223967,0 -2.330737,-0.09766 -3.320313,-0.292968 -0.976568,-0.182292 -1.835942,-0.481771 -2.578125,-0.898438 -0.742191,-0.416665 -1.36719,-0.96354 -1.875,-1.640625 -0.494793,-0.690101 -0.859376,-1.529944 -1.09375,-2.519531 l 3.105469,-0.605469 c 0.299475,1.132817 0.917964,1.96615 1.855469,2.5 0.937493,0.520836 2.239575,0.781252 3.90625,0.78125 0.755197,2e-6 1.445301,-0.05208 2.070312,-0.15625 0.638008,-0.104164 1.184883,-0.279945 1.640625,-0.527344 0.455715,-0.260413 0.807277,-0.598954 1.054688,-1.015625 0.260401,-0.429683 0.39061,-0.957026 0.390625,-1.582031 -1.5e-5,-0.638015 -0.149755,-1.158847 -0.449219,-1.5625 -0.299494,-0.416659 -0.71616,-0.761711 -1.25,-1.035156 -0.533867,-0.273429 -1.184908,-0.507804 -1.953125,-0.703125 -0.755219,-0.208324 -1.588552,-0.436189 -2.5,-0.683594 -0.846362,-0.221344 -1.686205,-0.46874 -2.519531,-0.742187 -0.833339,-0.273427 -1.588547,-0.6315 -2.265625,-1.074219 -0.664066,-0.455718 -1.20443,-1.015613 -1.621094,-1.679688 -0.416669,-0.664048 -0.625002,-1.497381 -0.625,-2.5 -2e-6,-1.927066 0.683591,-3.391908 2.050781,-4.394531 1.380203,-1.015604 3.38541,-1.523416 6.015625,-1.523437 2.330717,2.1e-5 4.179674,0.410177 5.546875,1.230468 1.380192,0.820332 2.252587,2.135435 2.617188,3.945313 L 25.019531,32.96462 C 24.902329,32.417761 24.687485,31.962033 24.375,31.597432 c -0.312514,-0.377586 -0.690118,-0.677065 -1.132813,-0.898437 -0.442721,-0.234357 -0.944022,-0.397117 -1.503906,-0.488281 -0.546886,-0.104148 -1.119802,-0.156232 -1.71875,-0.15625 -1.58855,1.8e-5 -2.760424,0.240904 -3.515625,0.722656 -0.755214,0.481788 -1.132818,1.210954 -1.132812,2.1875 -6e-6,0.572932 0.136713,1.048192 0.410156,1.425781 0.286452,0.364598 0.677077,0.677097 1.171875,0.9375 0.507805,0.247409 1.113273,0.468763 1.816406,0.664063 0.703116,0.182304 1.477855,0.377616 2.324219,0.585937 0.559884,0.143241 1.1328,0.299491 1.71875,0.46875 0.585924,0.156262 1.15233,0.351574 1.699219,0.585938 0.559881,0.221365 1.080713,0.488292 1.5625,0.800781 0.494775,0.299489 0.924462,0.664072 1.289062,1.09375 0.364566,0.429696 0.651024,0.930998 0.859375,1.503906 0.221336,0.572924 0.332013,1.236986 0.332031,1.992188"
         id="path2948"
         style="fill:#4085a5;font-family:Liberation Sans;-inkscape-font-specification:Liberation Sans" />
    </g>
    <g
       transform="matrix(4.0942852,0,0,4.0942852,437.34062,806.19474)"
       id="flowRoot11246-5-5"
       style="font-size:40px;font-style:normal;font-variant:normal;font-weight:normal;font-stretch:normal;fill:#4085a5;fill-opacity:1;stroke:none;display:inline;font-family:URW Gothic L;-inkscape-font-specification:URW Gothic L Book">
      <path
         d="m 12.52,49.696078 2.96,0 0,-12.04 c 0,-2.439997 0.320001,-3.720001 1.16,-4.96 1.159999,-1.679998 3.200002,-2.68 5.52,-2.68 2.159998,0 4.120001,0.880002 5.32,2.36 1.039999,1.359999 1.44,2.960003 1.44,5.84 l 0,11.48 2.96,0 0,-11.48 c 0,-3.679996 -0.520001,-5.640001 -1.92,-7.52 -1.719998,-2.159997 -4.360003,-3.4 -7.44,-3.4 -2.879997,0 -5.200002,1.120003 -7.04,3.36 l 0,-2.84 -2.96,0 0,21.88"
         id="path2945" />
    </g>
    <path
       d="m 119.74293,160.08547 c -13.64105,-1.00296 -25.330813,-6.78508 -33.412372,-16.52679 -1.519102,-1.83116 -3.189849,-4.26817 -4.493617,-6.55456 -0.683719,-1.19902 -0.763911,-1.38681 -0.763911,-1.78892 0,-0.87114 0.538522,-1.85525 1.654316,-3.02314 2.123507,-2.22265 5.432729,-3.82131 7.40103,-3.57539 0.534836,0.0668 1.004381,0.33586 1.168099,0.66929 1.36026,2.77029 1.765629,3.50037 2.790563,5.02587 6.511522,9.69169 17.642222,15.16488 30.163702,14.83208 6.27253,-0.16671 11.84601,-1.76518 16.91197,-4.85035 7.54786,-4.59666 13.02676,-12.67948 14.95845,-22.06768 0.95609,-4.64665 1.09521,-9.958 0.38582,-14.72964 -1.42916,-9.613136 -6.1918,-17.89259 -13.42952,-23.346092 -4.89905,-3.691349 -10.83433,-5.913712 -17.32412,-6.486711 -1.36252,-0.1203 -4.81945,-0.120151 -6.18718,2.66e-4 -9.44096,0.831198 -17.59598,5.005789 -23.454829,12.00662 -1.456108,1.739928 -2.993447,4.048371 -4.013144,6.026068 -0.345484,0.670067 -0.433561,0.774541 -0.814574,0.966235 -0.349752,0.175965 -0.596961,0.221798 -1.363516,0.2528 -3.18511,0.128816 -8.221009,-1.923225 -9.390569,-3.826491 -0.334015,-0.543554 -0.24873,-0.797307 1.054598,-3.137786 6.012807,-10.797629 16.274139,-18.674413 28.480284,-21.861981 4.21265,-1.100111 7.97891,-1.57107 12.59534,-1.57501 6.31518,-0.0054 11.75102,0.93349 17.31514,2.990674 12.22682,4.520531 21.58798,13.972644 26.15837,26.412531 4.01075,10.916617 4.03018,24.228627 0.0512,35.090177 -2.87882,7.85843 -7.6018,14.49159 -13.91462,19.54228 -6.26911,5.01571 -13.99045,8.22672 -22.31806,9.28123 -3.01984,0.3824 -7.08904,0.4838 -10.20886,0.25442 z"
       transform="translate(0,851.56218)"
       id="path3771"
       style="fill:#4085a5;fill-opacity:1;stroke:none" />
    <g
       transform="matrix(4.0909675,0.16478939,-0.16478939,4.0909675,8.4513809,809.22854)"
       id="flowRoot11246-5-7-2"
       style="font-size:40px;font-style:normal;font-variant:normal;font-weight:normal;font-stretch:normal;fill:#93c4c8;fill-opacity:1;stroke:none;display:inline;font-family:URW Gothic L;-inkscape-font-specification:URW Gothic L Book">
      <path
         d="m 30.44,34.096078 c -1.359999,2.319998 -2.520001,3.28 -3.8,3.28 -0.799999,0 -1.480002,-0.2 -3.2,-0.92 l -2.6,-1.08 c -1.199999,-0.519999 -2.240001,-0.76 -3.08,-0.76 -2.239998,0 -3.800002,1.360004 -5.72,4.8 l 1.68,1.88 c 0.759999,-1.279998 0.96,-1.6 1.4,-2.2 0.679999,-0.879999 1.640001,-1.4 2.64,-1.4 0.799999,0 1.200002,0.120001 2.92,0.84 l 2.2,0.88 c 1.759998,0.76 2.800001,1.04 3.72,1.04 2.039998,0 4.240001,-1.800002 5.6,-4.48 l -1.76,-1.88"
         id="path2942" />
    </g>
  </g>
</svg>
