<?xml version="1.0" encoding="UTF-8" standalone="no"?>
<!-- Generator: Adobe Illustrator 16.0.0, SVG Export Plug-In . SVG Version: 6.00 Build 0)  -->

<svg
   xmlns:dc="http://purl.org/dc/elements/1.1/"
   xmlns:cc="http://creativecommons.org/ns#"
   xmlns:rdf="http://www.w3.org/1999/02/22-rdf-syntax-ns#"
   xmlns:svg="http://www.w3.org/2000/svg"
   xmlns="http://www.w3.org/2000/svg"
   xmlns:sodipodi="http://sodipodi.sourceforge.net/DTD/sodipodi-0.dtd"
   xmlns:inkscape="http://www.inkscape.org/namespaces/inkscape"
   version="1.1"
   id="svg2"
   x="0px"
   y="0px"
   width="202.8px"
   height="169.8px"
   viewBox="0 0 202.8 169.8"
   enable-background="new 0 0 202.8 169.8"
   xml:space="preserve"
   inkscape:version="0.48.4 r9939"
   sodipodi:docname="o_icon_powered_by.svg"><metadata
     id="metadata10"><rdf:RDF><cc:Work
         rdf:about=""><dc:format>image/svg+xml</dc:format><dc:type
           rdf:resource="http://purl.org/dc/dcmitype/StillImage" /></cc:Work></rdf:RDF></metadata><defs
     id="defs8" /><sodipodi:namedview
     pagecolor="#ffffff"
     bordercolor="#666666"
     borderopacity="1"
     objecttolerance="10"
     gridtolerance="10"
     guidetolerance="10"
     inkscape:pageopacity="0"
     inkscape:pageshadow="2"
     inkscape:window-width="958"
     inkscape:window-height="1062"
     id="namedview6"
     showgrid="false"
     inkscape:zoom="1.3898704"
     inkscape:cx="58.406836"
     inkscape:cy="84.900002"
     inkscape:window-x="960"
     inkscape:window-y="16"
     inkscape:window-maximized="0"
     inkscape:current-layer="svg2" /><g
     id="g2991"
     transform="translate(-8.7378191,0)"><path
       style="fill:#4085a5"
       inkscape:connector-curvature="0"
       d="m 105.53,141.085 c -12.44,-1.056 -22.942,-5.82 -30.854,-13.997 -2.112,-2.183 -3.324,-3.684 -4.985,-6.173 -1.739,-2.604 -2.521,-4.08 -2.521,-4.755 0,-2.368 4.744,-6.163 8.092,-6.474 1.353,-0.126 1.773,0.125 2.394,1.43 2.674,5.621 7.305,10.773 12.538,13.951 4.066,2.469 9.187,4.227 14.276,4.902 2.29,0.304 7.757,0.244 10.063,-0.111 11.169,-1.715 19.818,-8.03 24.674,-18.014 1.713,-3.522 2.895,-7.529 3.473,-11.781 0.325,-2.396 0.279,-8.615 -0.082,-11.066 -2.507,-17.014 -14.332,-28.724 -30.615,-30.316 -2.459,-0.241 -6.244,-0.119 -8.826,0.284 -10.578,1.649 -19.286,7.579 -24.477,16.667 -1.021,1.787 -1.321,2.063 -2.437,2.243 -1.464,0.235 -5.46,-0.813 -7.458,-1.958 -1.216,-0.697 -2.322,-1.823 -2.322,-2.366 0,-0.25 0.485,-1.327 1.079,-2.394 6.119,-11.004 16.562,-18.97 28.934,-22.072 4.505,-1.13 6.926,-1.412 12.148,-1.418 5.106,-0.006 7.25,0.212 11.388,1.157 8.197,1.871 15.316,5.691 21.197,11.375 7.612,7.355 12.17,16.834 13.557,28.199 0.428,3.506 0.391,9.364 -0.082,12.978 -1.414,10.801 -5.797,19.9 -13.08,27.153 -6.746,6.72 -15.556,10.932 -25.717,12.298 -2.348,0.315 -8.02,0.458 -10.357,0.258 l 0,0 0,0 z"
       id="path2908" /><g
       transform="matrix(4.0909675,0.16478939,-0.16478939,4.0909675,-5.5486191,-61.33389)"
       id="flowRoot11246-5-7-2"><path
         style="fill:#a2ccd0"
         inkscape:connector-curvature="0"
         d="m 30.44,34.096 c -1.36,2.32 -2.52,3.28 -3.8,3.28 -0.8,0 -1.48,-0.2 -3.2,-0.92 l -2.6,-1.08 c -1.2,-0.52 -2.24,-0.76 -3.08,-0.76 -2.24,0 -3.8,1.36 -5.72,4.8 l 1.68,1.88 c 0.76,-1.28 0.96,-1.6 1.4,-2.2 0.68,-0.88 1.64,-1.4 2.64,-1.4 0.8,0 1.2,0.12 2.92,0.84 l 2.2,0.88 c 1.76,0.76 2.8,1.04 3.72,1.04 2.04,0 4.24,-1.8 5.6,-4.48 l -1.76,-1.88"
         id="path2898" /></g></g><g
     transform="translate(-186.21048,-20.585704)"
     style="font-size:28px;font-style:normal;font-variant:normal;font-weight:bold;font-stretch:normal;line-height:125%;letter-spacing:0px;word-spacing:0px;fill:#204356;fill-opacity:1;stroke:none;font-family:'BPG Nateli Condenced GPL&amp;GNU';-inkscape-font-specification:'BPG Nateli Condenced GPL&amp;GNU Bold'"
     id="text2987-8"><g
       id="g4713"
       transform="matrix(0.5,0,0,0.5,140.26287,27.603443)"><path
         id="path4554"
         style="letter-spacing:-0.17px;fill:#204356;font-family:'BPG Mrgvlovani GPL&amp;GNU';-inkscape-font-specification:'BPG Mrgvlovani GPL&amp;GNU Bold'"
         d="m 213.56471,52.634621 0,8.121093 -2.52929,0 0,-21.136718 2.52929,0 0,2.324218 c 0.52864,-0.911444 1.19401,-1.585923 1.9961,-2.023437 0.81119,-0.446599 1.77733,-0.669906 2.89843,-0.669922 1.85937,1.6e-5 3.36783,0.738296 4.52539,2.214844 1.16666,1.476574 1.74999,3.417979 1.75,5.824219 -1e-5,2.406255 -0.58334,4.347659 -1.75,5.824218 -1.15756,1.476563 -2.66602,2.214844 -4.52539,2.214844 -1.1211,0 -2.08724,-0.21875 -2.89843,-0.65625 -0.80209,-0.446614 -1.46746,-1.12565 -1.9961,-2.037109 m 8.5586,-5.345703 c -2e-5,-1.850251 -0.38283,-3.299469 -1.14844,-4.347657 -0.75652,-1.057278 -1.80014,-1.585924 -3.13086,-1.585937 -1.33074,1.3e-5 -2.37891,0.528659 -3.14453,1.585937 -0.75652,1.048188 -1.13477,2.497406 -1.13477,4.347657 0,1.850266 0.37825,3.30404 1.13477,4.361328 0.76562,1.048179 1.81379,1.572267 3.14453,1.572265 1.33072,2e-6 2.37434,-0.524086 3.13086,-1.572265 0.76561,-1.057288 1.14842,-2.511062 1.14844,-4.361328"
         inkscape:connector-curvature="0" /><path
         id="path4556"
         style="letter-spacing:-0.17px;fill:#204356;font-family:'BPG Mrgvlovani GPL&amp;GNU';-inkscape-font-specification:'BPG Mrgvlovani GPL&amp;GNU Bold'"
         d="m 234.49042,41.382668 c -1.34897,1.3e-5 -2.41537,0.528658 -3.19922,1.585937 -0.78386,1.048188 -1.17579,2.488291 -1.17578,4.320313 -1e-5,1.832037 0.38736,3.276697 1.1621,4.333984 0.78385,1.048179 1.85482,1.572267 3.2129,1.572266 1.33983,10e-7 2.40168,-0.528644 3.18554,-1.585938 0.78384,-1.057287 1.17577,-2.49739 1.17578,-4.320312 -1e-5,-1.813793 -0.39194,-3.249339 -1.17578,-4.306641 -0.78386,-1.066393 -1.84571,-1.599596 -3.18554,-1.599609 m 0,-2.132813 c 2.18748,1.6e-5 3.90558,0.710953 5.15429,2.132813 1.24869,1.421887 1.87303,3.390635 1.87305,5.90625 -2e-5,2.506515 -0.62436,4.475263 -1.87305,5.90625 -1.24871,1.421875 -2.96681,2.132812 -5.15429,2.132812 -2.19663,0 -3.91928,-0.710937 -5.16797,-2.132812 -1.23959,-1.430987 -1.85938,-3.399735 -1.85938,-5.90625 0,-2.515615 0.61979,-4.484363 1.85938,-5.90625 1.24869,-1.42186 2.97134,-2.132797 5.16797,-2.132813"
         inkscape:connector-curvature="0" /><path
         id="path4558"
         style="letter-spacing:-0.17px;fill:#204356;font-family:'BPG Mrgvlovani GPL&amp;GNU';-inkscape-font-specification:'BPG Mrgvlovani GPL&amp;GNU Bold'"
         d="m 244.21885,39.618996 2.51563,0 3.14453,11.949218 3.13086,-11.949218 2.9668,0 3.14453,11.949218 3.13086,-11.949218 2.51562,0 -4.00586,15.3125 -2.9668,0 -3.29492,-12.550782 -3.30859,12.550782 -2.9668,0 -4.00586,-15.3125"
         inkscape:connector-curvature="0" /><path
         id="path4560"
         style="letter-spacing:-0.17px;fill:#204356;font-family:'BPG Mrgvlovani GPL&amp;GNU';-inkscape-font-specification:'BPG Mrgvlovani GPL&amp;GNU Bold'"
         d="m 281.52346,46.646339 0,1.230469 -11.5664,0 c 0.10937,1.731776 0.6289,3.05339 1.55859,3.964844 0.9388,0.902346 2.24218,1.353517 3.91016,1.353516 0.96613,10e-7 1.90038,-0.118488 2.80273,-0.355469 0.91145,-0.236977 1.81379,-0.592445 2.70703,-1.066406 l 0,2.378906 c -0.90235,0.382813 -1.82748,0.674479 -2.77539,0.875 -0.94793,0.20052 -1.90951,0.300781 -2.88476,0.300781 -2.44272,0 -4.37957,-0.710937 -5.81055,-2.132812 -1.42188,-1.421872 -2.13281,-3.345047 -2.13281,-5.769532 0,-2.5065 0.67447,-4.493477 2.02344,-5.960937 1.35806,-1.476548 3.18554,-2.214828 5.48242,-2.214844 2.05988,1.6e-5 3.68683,0.66538 4.88086,1.996094 1.20311,1.321627 1.80467,3.121755 1.80468,5.40039 m -2.51562,-0.738281 c -0.0182,-1.376292 -0.40561,-2.474598 -1.16211,-3.294922 -0.74741,-0.820299 -1.7409,-1.230455 -2.98047,-1.230468 -1.40365,1.3e-5 -2.5293,0.396497 -3.37695,1.189453 -0.83855,0.79298 -1.32162,1.909515 -1.44922,3.349609 l 8.96875,-0.01367"
         inkscape:connector-curvature="0" /><path
         id="path4562"
         style="letter-spacing:-0.17px;fill:#204356;font-family:'BPG Mrgvlovani GPL&amp;GNU';-inkscape-font-specification:'BPG Mrgvlovani GPL&amp;GNU Bold'"
         d="m 294.35542,41.970558 c -0.28257,-0.164049 -0.59246,-0.282539 -0.92969,-0.355469 -0.32814,-0.08202 -0.69272,-0.123033 -1.09375,-0.123046 -1.42189,1.3e-5 -2.51563,0.464856 -3.28125,1.394531 -0.75652,0.920584 -1.13477,2.246754 -1.13477,3.978515 l 0,8.066407 -2.52929,0 0,-15.3125 2.52929,0 0,2.378906 c 0.52864,-0.929674 1.21679,-1.617824 2.06446,-2.064453 0.84764,-0.455714 1.87759,-0.683578 3.08984,-0.683594 0.17317,1.6e-5 0.36457,0.01369 0.57422,0.04102 0.20962,0.01824 0.44204,0.05015 0.69726,0.0957 l 0.0137,2.583984"
         inkscape:connector-curvature="0" /><path
         id="path4564"
         style="letter-spacing:-0.17px;fill:#204356;font-family:'BPG Mrgvlovani GPL&amp;GNU';-inkscape-font-specification:'BPG Mrgvlovani GPL&amp;GNU Bold'"
         d="m 309.34753,46.646339 0,1.230469 -11.56641,0 c 0.10937,1.731776 0.6289,3.05339 1.55859,3.964844 0.9388,0.902346 2.24218,1.353517 3.91016,1.353516 0.96614,10e-7 1.90038,-0.118488 2.80273,-0.355469 0.91145,-0.236977 1.81379,-0.592445 2.70704,-1.066406 l 0,2.378906 c -0.90236,0.382813 -1.82749,0.674479 -2.77539,0.875 -0.94793,0.20052 -1.90952,0.300781 -2.88477,0.300781 -2.44272,0 -4.37956,-0.710937 -5.81055,-2.132812 -1.42187,-1.421872 -2.13281,-3.345047 -2.13281,-5.769532 0,-2.5065 0.67448,-4.493477 2.02344,-5.960937 1.35807,-1.476548 3.18554,-2.214828 5.48242,-2.214844 2.05988,1.6e-5 3.68684,0.66538 4.88086,1.996094 1.20311,1.321627 1.80467,3.121755 1.80469,5.40039 m -2.51563,-0.738281 c -0.0182,-1.376292 -0.40561,-2.474598 -1.16211,-3.294922 -0.7474,-0.820299 -1.74089,-1.230455 -2.98047,-1.230468 -1.40365,1.3e-5 -2.5293,0.396497 -3.37695,1.189453 -0.83855,0.79298 -1.32162,1.909515 -1.44922,3.349609 l 8.96875,-0.01367"
         inkscape:connector-curvature="0" /><path
         id="path4566"
         style="letter-spacing:-0.17px;fill:#204356;font-family:'BPG Mrgvlovani GPL&amp;GNU';-inkscape-font-specification:'BPG Mrgvlovani GPL&amp;GNU Bold'"
         d="m 323.38261,41.943214 0,-8.285156 2.51562,0 0,21.273438 -2.51562,0 0,-2.296875 c -0.52866,0.911459 -1.19858,1.590495 -2.00977,2.037109 -0.80209,0.4375 -1.76824,0.65625 -2.89844,0.65625 -1.85026,0 -3.35873,-0.738281 -4.52539,-2.214844 -1.15755,-1.476559 -1.73633,-3.417963 -1.73633,-5.824218 0,-2.40624 0.57878,-4.347645 1.73633,-5.824219 1.16666,-1.476548 2.67513,-2.214828 4.52539,-2.214844 1.1302,1.6e-5 2.09635,0.223323 2.89844,0.669922 0.81119,0.437514 1.48111,1.111993 2.00977,2.023437 m -8.57227,5.345704 c 0,1.850266 0.37825,3.30404 1.13477,4.361328 0.76562,1.048179 1.81379,1.572267 3.14453,1.572265 1.33072,2e-6 2.37889,-0.524086 3.14453,-1.572265 0.76561,-1.057288 1.14842,-2.511062 1.14844,-4.361328 -2e-5,-1.850251 -0.38283,-3.299469 -1.14844,-4.347657 -0.76564,-1.057278 -1.81381,-1.585924 -3.14453,-1.585937 -1.33074,1.3e-5 -2.37891,0.528659 -3.14453,1.585937 -0.75652,1.048188 -1.13477,2.497406 -1.13477,4.347657"
         inkscape:connector-curvature="0" /><path
         id="path4568"
         style="letter-spacing:-0.17px;fill:#204356;font-family:'BPG Mrgvlovani GPL&amp;GNU';-inkscape-font-specification:'BPG Mrgvlovani GPL&amp;GNU Bold'"
         d="m 350.64612,47.288918 c -2e-5,-1.850251 -0.38283,-3.299469 -1.14844,-4.347657 -0.75652,-1.057278 -1.80014,-1.585924 -3.13086,-1.585937 -1.33074,1.3e-5 -2.37891,0.528659 -3.14453,1.585937 -0.75652,1.048188 -1.13477,2.497406 -1.13477,4.347657 0,1.850266 0.37825,3.30404 1.13477,4.361328 0.76562,1.048179 1.81379,1.572267 3.14453,1.572265 1.33072,2e-6 2.37434,-0.524086 3.13086,-1.572265 0.76561,-1.057288 1.14842,-2.511062 1.14844,-4.361328 m -8.5586,-5.345704 c 0.52864,-0.911444 1.19401,-1.585923 1.9961,-2.023437 0.81119,-0.446599 1.77733,-0.669906 2.89844,-0.669922 1.85936,1.6e-5 3.36782,0.738296 4.52539,2.214844 1.16665,1.476574 1.74998,3.417979 1.75,5.824219 -2e-5,2.406255 -0.58335,4.347659 -1.75,5.824218 -1.15757,1.476563 -2.66603,2.214844 -4.52539,2.214844 -1.12111,0 -2.08725,-0.21875 -2.89844,-0.65625 -0.80209,-0.446614 -1.46746,-1.12565 -1.9961,-2.037109 l 0,2.296875 -2.52929,0 0,-21.273438 2.52929,0 0,8.285156"
         inkscape:connector-curvature="0" /><path
         id="path4570"
         style="letter-spacing:-0.17px;fill:#204356;font-family:'BPG Mrgvlovani GPL&amp;GNU';-inkscape-font-specification:'BPG Mrgvlovani GPL&amp;GNU Bold'"
         d="m 363.62846,56.353371 c -0.71094,1.822913 -1.40365,3.012365 -2.07812,3.568359 -0.67449,0.555984 -1.57683,0.833979 -2.70703,0.833984 l -2.00977,0 0,-2.105468 1.47656,0 c 0.69271,-4e-6 1.23047,-0.164066 1.61329,-0.492188 0.3828,-0.328128 0.80663,-1.102867 1.27148,-2.324219 l 0.45117,-1.148437 -6.19336,-15.066406 2.66602,0 4.78515,11.976562 4.78516,-11.976562 2.66602,0 -6.72657,16.734375"
         inkscape:connector-curvature="0" /></g></g></svg>