<?xml version="1.0" encoding="utf-8"?>
<!-- Generator: Adobe Illustrator 16.0.0, SVG Export Plug-In . SVG Version: 6.00 Build 0)  -->
<!DOCTYPE svg PUBLIC "-//W3C//DTD SVG 1.1//EN" "http://www.w3.org/Graphics/SVG/1.1/DTD/svg11.dtd">
<svg version="1.1" id="svg2" xmlns:svg="http://www.w3.org/2000/svg"
	 xmlns="http://www.w3.org/2000/svg" xmlns:xlink="http://www.w3.org/1999/xlink" x="0px" y="0px" width="202.8px" height="169.8px"
	 viewBox="0 0 202.8 169.8" enable-background="new 0 0 202.8 169.8" xml:space="preserve">
<path id="path2908" fill="#FFFFFF" d="M105.53,133.085c-12.44-1.056-22.942-5.82-30.854-13.997
	c-2.112-2.183-3.324-3.684-4.985-6.173c-1.739-2.604-2.521-4.08-2.521-4.755c0-2.368,4.744-6.163,8.092-6.474
	c1.353-0.126,1.773,0.125,2.394,1.43c2.674,5.621,7.305,10.773,12.538,13.951c4.066,2.469,9.187,4.227,14.276,4.902
	c2.29,0.304,7.757,0.244,10.063-0.111c11.169-1.715,19.818-8.03,24.674-18.014c1.713-3.522,2.895-7.529,3.473-11.781
	c0.325-2.396,0.279-8.615-0.082-11.066c-2.507-17.014-14.332-28.724-30.615-30.316c-2.459-0.241-6.244-0.119-8.826,0.284
	c-10.578,1.649-19.286,7.579-24.477,16.667c-1.021,1.787-1.321,2.063-2.437,2.243c-1.464,0.235-5.46-0.813-7.458-1.958
	c-1.216-0.697-2.322-1.823-2.322-2.366c0-0.25,0.485-1.327,1.079-2.394c6.119-11.004,16.562-18.97,28.934-22.072
	c4.505-1.13,6.926-1.412,12.148-1.418c5.106-0.006,7.25,0.212,11.388,1.157c8.197,1.871,15.316,5.691,21.197,11.375
	c7.612,7.355,12.17,16.834,13.557,28.199c0.428,3.506,0.391,9.364-0.082,12.978c-1.414,10.801-5.797,19.9-13.08,27.153
	c-6.746,6.72-15.556,10.932-25.717,12.298C113.539,133.142,107.867,133.285,105.53,133.085L105.53,133.085L105.53,133.085z"/>
<g id="flowRoot11246-5-7-2" transform="matrix(4.0909675,0.16478939,-0.16478939,4.0909675,-5.5486191,-69.33389)">
	<path id="path2898" fill="#A2CCD0" d="M30.44,34.096c-1.36,2.32-2.52,3.28-3.8,3.28c-0.8,0-1.48-0.2-3.2-0.92l-2.6-1.08
		c-1.2-0.52-2.24-0.76-3.08-0.76c-2.24,0-3.8,1.36-5.72,4.8l1.68,1.88c0.76-1.28,0.96-1.6,1.4-2.2c0.68-0.88,1.64-1.4,2.64-1.4
		c0.8,0,1.2,0.12,2.92,0.84l2.2,0.88c1.76,0.76,2.8,1.04,3.72,1.04c2.04,0,4.24-1.8,5.6-4.48L30.44,34.096"/>
</g>
</svg>
