<?xml version="1.0" encoding="utf-8"?>
<!-- Generator: Adobe Illustrator 16.0.0, SVG Export Plug-In . SVG Version: 6.00 Build 0)  -->
<!DOCTYPE svg PUBLIC "-//W3C//DTD SVG 1.1//EN" "http://www.w3.org/Graphics/SVG/1.1/DTD/svg11.dtd">
<svg version="1.1" id="Layer_1" xmlns="http://www.w3.org/2000/svg" xmlns:xlink="http://www.w3.org/1999/xlink" x="0px" y="0px"
	 width="613.717px" height="236.463px" viewBox="0 0 613.717 236.463" enable-background="new 0 0 613.717 236.463"
	 xml:space="preserve">
<path fill="#152F55" d="M118.219,236.463C53.033,236.463,0,183.426,0,118.234C0,53.04,53.033,0,118.219,0
	c65.192,0,118.226,53.04,118.226,118.234C236.445,183.426,183.411,236.463,118.219,236.463 M118.219,3.55
	C54.991,3.55,3.553,54.996,3.553,118.234c0,63.236,51.438,114.679,114.666,114.679c63.233,0,114.676-51.443,114.676-114.679
	C232.895,54.996,181.452,3.55,118.219,3.55"/>
<path fill="#152F55" d="M50.458,60.065c0.442,0.295,0.923,0.625,1.466,1.014c0.53,0.373,1.03,0.825,1.499,1.333
	c0.468,0.511,0.854,1.11,1.179,1.778c0.324,0.676,0.489,1.44,0.529,2.289c0.03,0.865-0.122,1.839-0.46,2.922
	c-0.341,1.083-0.937,2.286-1.786,3.622l3.651,2.331l-1.95,3.042l-3.654-2.328c-1.28,2.009-2.544,3.387-3.793,4.143
	c-1.24,0.743-2.419,1.118-3.537,1.11c-1.117,0-2.139-0.245-3.089-0.724c-0.94-0.463-1.757-0.934-2.446-1.368l-8.801-5.634
	l1.967-3.076l8.444,5.4c0.484,0.311,1.043,0.633,1.682,0.968c0.636,0.341,1.317,0.522,2.041,0.567
	c0.719,0.04,1.464-0.157,2.238-0.575c0.764-0.415,1.531-1.221,2.276-2.408c0.013-0.019-0.048-0.112-0.189-0.277
	c-0.16-0.165-0.221-0.269-0.192-0.303l-13.096-8.384l1.953-3.049l13.089,8.38c0.026-0.043,0.135-0.024,0.348,0.053
	c0.208,0.08,0.328,0.096,0.354,0.054c0.751-1.187,1.171-2.223,1.235-3.098c0.064-0.884-0.072-1.646-0.41-2.286
	c-0.34-0.642-0.795-1.179-1.37-1.613c-0.573-0.434-1.094-0.814-1.579-1.118l-8.441-5.4l1.937-3.05L50.458,60.065z"/>
<polygon fill="#152F55" points="79.353,53.271 72.96,44.161 64.556,50.071 70.949,59.182 67.992,61.26 54.262,41.724 57.216,39.637 
	62.595,47.288 70.996,41.377 65.626,33.731 68.591,31.652 82.32,51.189 "/>
<path fill="#152F55" d="M109.666,30.004c0.293,1.328,0.348,2.627,0.149,3.912c-0.21,1.283-0.631,2.478-1.283,3.569
	c-0.652,1.102-1.525,2.047-2.629,2.845c-1.097,0.798-2.406,1.368-3.923,1.716l0.564,2.409l-3.523,0.822l-0.559-2.408
	c-1.491,0.346-2.896,0.407-4.205,0.173c-1.323-0.234-2.512-0.692-3.58-1.397c-1.067-0.692-1.977-1.568-2.712-2.632
	c-0.745-1.076-1.266-2.262-1.57-3.591c-0.303-1.301-0.354-2.592-0.146-3.864c0.202-1.277,0.636-2.446,1.285-3.521
	c0.666-1.064,1.531-2.001,2.611-2.789c1.078-0.79,2.353-1.362,3.819-1.7L93.6,21.979l3.518-0.822l0.362,1.567
	c1.493-0.346,2.906-0.407,4.242-0.173c1.341,0.224,2.541,0.668,3.622,1.342c1.078,0.668,1.985,1.527,2.738,2.573
	C108.828,27.518,109.356,28.708,109.666,30.004 M94.73,26.861c-1.089,0.25-1.994,0.657-2.702,1.195
	c-0.705,0.545-1.248,1.168-1.62,1.871c-0.373,0.702-0.597,1.456-0.668,2.273c-0.07,0.814-0.008,1.612,0.17,2.397
	c0.215,0.913,0.559,1.728,1.019,2.454c0.466,0.721,1.03,1.32,1.698,1.77c0.668,0.46,1.424,0.764,2.289,0.902
	c0.854,0.147,1.786,0.101,2.778-0.13L94.73,26.861z M106.128,30.821c-0.197-0.886-0.543-1.674-1.011-2.377
	c-0.474-0.691-1.041-1.264-1.727-1.689c-0.692-0.424-1.472-0.711-2.337-0.849c-0.868-0.147-1.807-0.096-2.8,0.13l2.968,12.732
	c1-0.234,1.846-0.615,2.57-1.126c0.706-0.527,1.275-1.144,1.69-1.874c0.421-0.718,0.695-1.509,0.793-2.358
	C106.383,32.572,106.344,31.713,106.128,30.821"/>
<polygon fill="#152F55" points="120.963,42.668 122.022,18.807 125.644,18.961 124.577,42.825 "/>
<path fill="#152F55" d="M149.8,48.615l-0.615-6.283l-9.727-3.114l-4.325,4.708l-3.683-1.179l19.002-20.585l3.103,27.659
	L149.8,48.615z M147.911,29.85l-5.985,6.579l6.896,2.209L147.911,29.85z"/>
<polygon fill="#152F55" points="169.261,61.114 168.779,47.507 167.739,47.618 161.82,55.523 158.914,53.356 173.256,34.253 
	176.151,36.43 170.429,44.039 183.715,42.104 187.406,44.877 172.292,47.054 173.125,64.018 "/>
<polygon fill="#152F55" points="185.365,80.539 194.584,74.306 188.841,65.787 179.609,72.017 177.591,69.018 197.378,55.653 
	199.406,58.652 191.656,63.879 197.413,72.401 205.152,67.174 207.182,70.163 187.385,83.538 "/>
<polygon fill="#152F55" points="56.907,197.346 56.916,183.73 55.88,183.815 49.674,191.496 46.852,189.216 61.884,170.649 
	64.691,172.928 58.701,180.33 72.042,178.877 75.629,181.779 60.452,183.408 60.67,200.396 "/>
<path fill="#152F55" d="M90.323,213.778l-0.383-6.308l-9.578-3.483l-4.514,4.532l-3.633-1.314l19.774-19.828l2.025,27.748
	L90.323,213.778z M89.16,194.963l-6.233,6.336l6.795,2.48L89.16,194.963z"/>
<polygon fill="#152F55" points="125.861,217.612 118.457,201.213 110.742,217.463 106.739,217.432 118.614,192.91 129.869,217.657 
	"/>
<polygon fill="#152F55" points="160.089,209.636 153.316,190.264 141.691,194.339 148.464,213.7 145.026,214.904 137.127,192.335 
	155.602,185.859 163.506,208.441 "/>
<polygon fill="#152F55" points="190.44,190.378 183.398,181.763 175.435,188.27 182.496,196.885 179.696,199.176 164.569,180.685 
	167.366,178.398 173.288,185.638 181.248,179.126 175.326,171.897 178.126,169.598 193.258,188.092 "/>
<path fill="#152F55" d="M166.518,145.878H70.037V90.584h96.481V145.878z M73.59,142.328h89.375V94.131H73.59V142.328z"/>
<polygon fill="#152F55" points="118.289,127.79 70.779,93.802 72.842,90.917 118.289,123.423 163.707,90.917 165.77,93.802 "/>
<polygon fill="#152F55" points="163.356,145.221 136.857,112.434 139.625,110.203 166.121,142.988 "/>
<polygon fill="#152F55" points="73.091,145.221 70.326,142.988 96.822,110.203 99.59,112.434 "/>
<polygon fill="#152F55" points="298.764,121.225 341.268,121.225 341.268,133.842 276.851,133.842 320.283,57.87 283.892,57.87 
	283.892,45.25 342.332,45.25 "/>
<polygon fill="#152F55" points="376.868,133.843 376.868,45.248 425.743,45.248 425.743,57.87 390.284,57.87 390.284,79.118 
	424.683,79.118 424.683,91.738 390.284,91.738 390.284,121.227 425.743,121.227 425.743,133.843 "/>
<polygon fill="#152F55" points="494.553,95.591 494.553,133.843 481.132,133.843 481.132,95.591 452.179,45.248 467.585,45.248 
	487.775,80.712 508.099,45.248 523.505,45.248 "/>
<polygon fill="#152F55" points="542.494,133.843 573.71,88.422 543.028,45.12 608.507,45.12 608.507,57.735 567.728,57.735 
	589.907,88.422 566.94,121.227 611.164,121.227 611.164,133.843 "/>
<g>
	<path fill="#152F55" d="M522.863,199.725c0,5.533-1.137,8.844-3.409,10.969c-2.371,2.124-5.731,2.865-8.745,2.865
		c-2.865,0-6.027-0.691-7.955-1.977l1.088-3.359c1.581,1.037,4.051,1.927,7.016,1.927c4.446,0,7.707-2.322,7.707-8.399v-2.619
		h-0.099c-1.284,2.225-3.903,4.003-7.608,4.003c-5.929,0-10.178-5.04-10.178-11.71c0-8.104,5.286-12.648,10.82-12.648
		c4.149,0,6.373,2.125,7.46,4.102h0.099l0.148-3.559h3.854c-0.148,1.681-0.198,3.607-0.198,6.522V199.725z M518.515,188.707
		c0-0.692-0.05-1.334-0.247-1.928c-0.791-2.568-2.866-4.645-6.077-4.645c-4.15,0-7.115,3.508-7.115,9.092
		c0,4.645,2.422,8.597,7.065,8.597c2.718,0,5.139-1.68,6.028-4.496c0.247-0.692,0.346-1.532,0.346-2.322V188.707z"/>
	<path fill="#152F55" d="M531.063,186.779c0-2.816-0.05-5.236-0.197-7.461h3.804l0.198,4.694h0.147
		c1.088-3.212,3.756-5.237,6.671-5.237c0.444,0,0.79,0.049,1.186,0.148v4.051c-0.494-0.049-0.938-0.098-1.532-0.098
		c-3.062,0-5.236,2.322-5.83,5.533c-0.099,0.643-0.147,1.334-0.147,2.075v12.747h-4.349L531.063,186.779z"/>
	<path fill="#152F55" d="M548.157,185.791c0-2.52-0.049-4.496-0.197-6.473h3.854l0.247,3.904h0.099
		c1.187-2.224,3.953-4.447,7.905-4.447c3.311,0,8.449,1.977,8.449,10.178v14.279h-4.348v-13.785c0-3.854-1.434-7.114-5.534-7.114
		c-2.816,0-5.039,2.025-5.83,4.446c-0.197,0.544-0.296,1.334-0.296,2.025v14.428h-4.349V185.791z"/>
	<path fill="#152F55" d="M579.035,192.017c0.099,5.88,3.805,8.301,8.152,8.301c3.112,0,5.04-0.544,6.621-1.187l0.79,3.064
		c-1.531,0.691-4.199,1.531-8.004,1.531c-7.312,0-11.759-4.892-11.759-12.056c0-7.263,4.298-12.944,11.265-12.944
		c7.807,0,9.832,6.867,9.832,11.265c0,0.89-0.05,1.581-0.148,2.075L579.035,192.017z M591.733,188.904
		c0.049-2.718-1.137-7.065-5.979-7.065c-4.447,0-6.324,4.052-6.67,7.065H591.733z"/>
	<path fill="#152F55" d="M607.492,173.588v5.73h6.226v3.311h-6.226v12.896c0,2.964,0.84,4.644,3.261,4.644
		c1.187,0,1.878-0.099,2.521-0.296l0.197,3.311c-0.84,0.296-2.174,0.592-3.854,0.592c-2.026,0-3.656-0.691-4.694-1.828
		c-1.186-1.334-1.68-3.458-1.68-6.274v-13.044h-3.705v-3.311h3.705v-4.396L607.492,173.588z"/>
</g>
<g opacity="0.6">
	<path fill="#152F55" d="M282.546,178.289c1.512-0.289,3.491-0.504,6.011-0.504c3.095,0,5.363,0.719,6.803,2.016
		c1.332,1.151,2.16,2.915,2.16,5.075c0,2.195-0.648,3.923-1.908,5.183c-1.656,1.764-4.355,2.664-7.416,2.664
		c-0.936,0-1.799-0.035-2.52-0.216v9.719h-3.131V178.289z M285.678,189.951c0.684,0.18,1.584,0.252,2.592,0.252
		c3.815,0,6.083-1.871,6.083-5.147c0-3.239-2.268-4.787-5.723-4.787c-1.368,0-2.412,0.144-2.952,0.252V189.951z"/>
	<path fill="#152F55" d="M311.165,202.621c-6.443,0-10.907-4.967-10.907-12.311c0-7.703,4.751-12.742,11.23-12.742
		c6.659,0,10.942,5.076,10.942,12.275c0,8.314-5.075,12.777-11.23,12.777H311.165z M311.309,200.066
		c4.967,0,7.774-4.572,7.774-10.079c0-4.823-2.52-9.862-7.739-9.862s-7.811,4.859-7.811,10.114c0,5.111,2.808,9.827,7.739,9.827
		H311.309z"/>
	<path fill="#152F55" d="M330.461,202.226l-6.155-24.261h3.312l2.88,12.274c0.72,3.06,1.367,6.047,1.8,8.387h0.071
		c0.396-2.411,1.152-5.292,1.98-8.423l3.239-12.238h3.275l2.952,12.311c0.684,2.916,1.331,5.759,1.691,8.314h0.072
		c0.504-2.664,1.188-5.363,1.943-8.387l3.204-12.238h3.203l-6.875,24.261h-3.275l-3.06-12.599c-0.756-3.131-1.26-5.508-1.584-7.955
		h-0.072c-0.396,2.447-0.972,4.787-1.871,7.92l-3.456,12.634H330.461z"/>
	<path fill="#152F55" d="M369.484,190.852h-9.395v8.746H370.6v2.628h-13.679v-24.261h13.139v2.627h-9.971v7.668h9.395V190.852z"/>
	<path fill="#152F55" d="M374.669,178.324c1.584-0.324,3.888-0.539,6.012-0.539c3.348,0,5.543,0.647,7.055,2.016
		c1.188,1.043,1.908,2.699,1.908,4.607c0,3.167-2.052,5.291-4.571,6.154v0.108c1.835,0.647,2.951,2.376,3.563,4.896
		c0.792,3.384,1.367,5.723,1.836,6.659h-3.24c-0.396-0.685-0.936-2.771-1.584-5.796c-0.72-3.348-2.052-4.607-4.895-4.715h-2.952
		v10.511h-3.132V178.324z M377.801,189.34h3.204c3.347,0,5.471-1.836,5.471-4.607c0-3.133-2.268-4.5-5.579-4.5
		c-1.512,0-2.556,0.145-3.096,0.288V189.34z"/>
	<path fill="#152F55" d="M406.563,190.852h-9.395v8.746h10.511v2.628H394v-24.261h13.139v2.627h-9.971v7.668h9.395V190.852z"/>
	<path fill="#152F55" d="M411.712,178.289c1.944-0.289,4.212-0.504,6.695-0.504c4.5,0,7.703,1.008,9.827,2.987
		c2.195,1.979,3.455,4.823,3.455,8.747c0,3.959-1.26,7.199-3.491,9.431c-2.304,2.268-6.047,3.491-10.763,3.491
		c-2.268,0-4.104-0.072-5.724-0.287V178.289z M414.88,199.777c0.792,0.145,1.943,0.145,3.168,0.145
		c6.695,0.036,10.33-3.744,10.33-10.295c0.036-5.795-3.203-9.358-9.826-9.358c-1.62,0-2.844,0.144-3.672,0.323V199.777z"/>
	<path fill="#152F55" d="M443.356,178.324c1.368-0.324,3.563-0.539,5.724-0.539c3.132,0,5.147,0.539,6.623,1.764
		c1.26,0.936,2.052,2.375,2.052,4.283c0,2.375-1.584,4.428-4.104,5.327v0.108c2.304,0.539,5.004,2.447,5.004,6.047
		c0,2.088-0.828,3.672-2.088,4.859c-1.656,1.548-4.392,2.268-8.352,2.268c-2.159,0-3.815-0.145-4.859-0.287V178.324z
		 M446.488,188.26h2.844c3.275,0,5.22-1.764,5.22-4.104c0-2.809-2.124-3.96-5.292-3.96c-1.439,0-2.268,0.108-2.771,0.216V188.26z
		 M446.488,199.85c0.648,0.108,1.512,0.145,2.628,0.145c3.239,0,6.227-1.188,6.227-4.716c0-3.275-2.843-4.679-6.263-4.679h-2.592
		V199.85z"/>
	<path fill="#152F55" d="M468.267,202.226v-10.295l-7.703-13.966h3.6l3.42,6.695c0.899,1.836,1.655,3.311,2.411,5.003h0.072
		c0.648-1.583,1.512-3.167,2.448-5.003l3.491-6.695h3.527l-8.099,13.93v10.331H468.267z"/>
</g>
</svg>
