<?xml version="1.0" encoding="utf-8"?>
<!-- Generator: Adobe Illustrator 16.0.0, SVG Export Plug-In . SVG Version: 6.00 Build 0)  -->
<!DOCTYPE svg PUBLIC "-//W3C//DTD SVG 1.1//EN" "http://www.w3.org/Graphics/SVG/1.1/DTD/svg11.dtd">
<svg version="1.1" id="Layer_1" xmlns="http://www.w3.org/2000/svg" xmlns:xlink="http://www.w3.org/1999/xlink" x="0px" y="0px"
	 width="160px" height="160px" viewBox="0 0 160 160" enable-background="new 0 0 160 160" xml:space="preserve">
<path fill="#00A551" d="M138.023,75.692c-13.877-6.992-28.569-11.965-43.258-16.997c-6.123-2.102-12.324-3.961-18.528-5.792
	c3.116-0.655,13.922-4.031,24.963-4.35c12.908-0.351,17.042,0.761,29.148,4.279c18.161,5.288,41.605-20.923,18.436-30.375
	c-21.949-8.943-44.189-8.829-67.01-4.071C58.533,23.228,28.95,34.865,13.827,54.208c-3.509,4.518-5.425,11.948-1.962,17.05
	c7.364,10.758,21.684,12.245,33.623,14.48c19.456,3.615,42.745,11.744,60.198,21.184c-5.932,1.154-11.994,1.773-17.914,2.35
	c-19.482,1.916-35.763-2.397-54.098-8.142c-17.82-5.599-47.564,27.369-23.894,34.812c27.553,8.644,50.727,10.744,79.513,7.324
	c20.209-2.401,51.628-10.422,63.723-28.834C165.93,94.744,156.574,85.039,138.023,75.692z"/>
</svg>
