<?xml version="1.0" encoding="UTF-8" standalone="no"?>
<!-- Created with Inkscape (http://www.inkscape.org/) -->

<svg
   xmlns:dc="http://purl.org/dc/elements/1.1/"
   xmlns:cc="http://creativecommons.org/ns#"
   xmlns:rdf="http://www.w3.org/1999/02/22-rdf-syntax-ns#"
   xmlns:svg="http://www.w3.org/2000/svg"
   xmlns="http://www.w3.org/2000/svg"
   xmlns:xlink="http://www.w3.org/1999/xlink"
   version="1.1"
   width="1743.155"
   height="478.83273"
   id="svg2">
  <metadata
     id="metadata8">
    <rdf:RDF>
      <cc:Work
         rdf:about="">
        <dc:format>image/svg+xml</dc:format>
        <dc:type
           rdf:resource="http://purl.org/dc/dcmitype/StillImage" />
        <dc:title></dc:title>
      </cc:Work>
    </rdf:RDF>
  </metadata>
  <defs
     id="defs6">
    <linearGradient
       x1="200.00404"
       y1="331.03073"
       x2="279.98737"
       y2="331.03073"
       id="linearGradient3936"
       xlink:href="#linearGradient3437"
       gradientUnits="userSpaceOnUse"
       gradientTransform="matrix(0.56429464,0,0,1.1225121,-19.694478,530.85877)" />
    <linearGradient
       id="linearGradient3437">
      <stop
         id="stop3439"
         style="stop-color:#ff6600;stop-opacity:1"
         offset="0" />
      <stop
         id="stop3441"
         style="stop-color:#b84400;stop-opacity:1"
         offset="1" />
    </linearGradient>
    <linearGradient
       x1="190.00456"
       y1="342.16382"
       x2="279.98581"
       y2="342.16382"
       id="linearGradient3932"
       xlink:href="#linearGradient3437"
       gradientUnits="userSpaceOnUse"
       gradientTransform="matrix(0.56429464,0,0,0.70414047,-16.872701,674.87246)" />
    <linearGradient
       id="linearGradient3222">
      <stop
         id="stop3224"
         style="stop-color:#ff6600;stop-opacity:1"
         offset="0" />
      <stop
         id="stop3226"
         style="stop-color:#b84400;stop-opacity:1"
         offset="1" />
    </linearGradient>
    <linearGradient
       x1="180.00658"
       y1="357.43338"
       x2="309.97949"
       y2="357.43338"
       id="linearGradient3928"
       xlink:href="#linearGradient3437"
       gradientUnits="userSpaceOnUse"
       gradientTransform="matrix(0.56429464,0,0,1.1687805,-22.51444,514.53246)" />
    <linearGradient
       id="linearGradient3229">
      <stop
         id="stop3231"
         style="stop-color:#ff6600;stop-opacity:1"
         offset="0" />
      <stop
         id="stop3233"
         style="stop-color:#b84400;stop-opacity:1"
         offset="1" />
    </linearGradient>
    <linearGradient
       x1="160.0081"
       y1="387.43338"
       x2="319.97476"
       y2="387.43338"
       id="linearGradient3924"
       xlink:href="#linearGradient3437"
       gradientUnits="userSpaceOnUse"
       gradientTransform="matrix(0.56429464,0,0,1.3506955,-19.692058,427.05673)" />
    <linearGradient
       id="linearGradient3236">
      <stop
         id="stop3238"
         style="stop-color:#ff6600;stop-opacity:1"
         offset="0" />
      <stop
         id="stop3240"
         style="stop-color:#b84400;stop-opacity:1"
         offset="1" />
    </linearGradient>
    <linearGradient
       x1="150.00912"
       y1="424.96896"
       x2="329.97159"
       y2="424.96896"
       id="linearGradient3920"
       xlink:href="#linearGradient3437"
       gradientUnits="userSpaceOnUse"
       gradientTransform="matrix(0.56429464,0,0,1.0217391,-19.691452,534.22151)" />
    <linearGradient
       id="linearGradient3243">
      <stop
         id="stop3245"
         style="stop-color:#ff6600;stop-opacity:1"
         offset="0" />
      <stop
         id="stop3247"
         style="stop-color:#b84400;stop-opacity:1"
         offset="1" />
    </linearGradient>
    <linearGradient
       x1="170.00658"
       y1="472.50458"
       x2="305.00269"
       y2="474.45435"
       id="linearGradient3916"
       xlink:href="#linearGradient3437"
       gradientUnits="userSpaceOnUse"
       gradientTransform="matrix(0.56429464,0,0,0.63214328,-16.87149,688.70261)" />
    <linearGradient
       id="linearGradient3250">
      <stop
         id="stop3252"
         style="stop-color:#ff6600;stop-opacity:1"
         offset="0" />
      <stop
         id="stop3254"
         style="stop-color:#b84400;stop-opacity:1"
         offset="1" />
    </linearGradient>
    <linearGradient
       x1="200.00404"
       y1="514.96899"
       x2="279.98737"
       y2="514.96899"
       id="linearGradient3912"
       xlink:href="#linearGradient3437"
       gradientUnits="userSpaceOnUse"
       gradientTransform="matrix(0.56429464,0,0,0.63214328,-19.694478,679.91084)" />
    <linearGradient
       id="linearGradient3257">
      <stop
         id="stop3259"
         style="stop-color:#ff6600;stop-opacity:1"
         offset="0" />
      <stop
         id="stop3261"
         style="stop-color:#b84400;stop-opacity:1"
         offset="1" />
    </linearGradient>
    <linearGradient
       x1="190.00249"
       y1="339.86221"
       x2="279.98581"
       y2="339.86221"
       id="linearGradient3908"
       xlink:href="#linearGradient3437"
       gradientUnits="userSpaceOnUse"
       gradientTransform="matrix(0.75243453,0,0,1.390751,-61.083887,417.66372)" />
    <linearGradient
       id="linearGradient3264">
      <stop
         id="stop3266"
         style="stop-color:#ff6600;stop-opacity:1"
         offset="0" />
      <stop
         id="stop3268"
         style="stop-color:#b84400;stop-opacity:1"
         offset="1" />
    </linearGradient>
  </defs>
  <path
     d="m 96.158916,284.25926 c 0,-33.1786 0,-44.35717 0,-77.53575 l -25.9127,-0.022 c -23.84548,-0.0202 -20.43092,-0.17244 -23.16345,-1.90813 -6.41366,-4.07395 -8.79104,-16.79428 -4.61069,-24.66987 3.64247,-6.86224 83.271724,-77.25449 85.364734,-78.34835 3.72292,-1.945684 7.82674,-1.27543 11.25084,1.83752 4.17362,3.79436 83.10953,74.65843 84.59578,78.81113 2.91785,8.15267 -0.58108,19.86098 -6.943,23.23305 -1.28947,0.68351 -5.52098,1.06665 -21.98111,1.06665 l -25.68745,0 c 0,32.77476 0,43.54952 0,76.32425 -0.1387,12.39514 -29.77391,12.64155 -36.86087,12.6315 -12.89066,-0.28198 -35.972024,0.33935 -36.052084,-11.42 z"
     id="path2987"
     style="fill:#4085a5;fill-opacity:1" />
  <path
     d="m 235.75796,251.7129 c -4.9705,-4.49601 -12.54281,-12.70977 -13.79462,-14.96317 -0.84795,-1.52638 -0.82528,-3.68002 0.0563,-5.34873 1.24284,-2.35257 26.78351,-27.39776 28.32744,-27.77792 2.33057,-0.57384 4.07651,0.22016 6.46996,2.94239 31.7185,40.22832 84.82815,28.73075 115.16318,6.37112 16.57179,-12.41743 28.86359,-31.33259 34.24699,-52.70068 2.1475,-8.52409 2.9373,-23.01529 1.7784,-32.62905 -2.8976,-24.03589 -16.7181,-48.000594 -36.02539,-62.467814 -28.15595,-21.09765 -64.9725,-24.85711 -96.29216,-9.83275 -8.02621,3.85028 -15.64723,8.90946 -21.27366,14.12246 l -1.62162,1.50246 13.22631,13.50152 c 13.33308,13.61048 15.10162,15.854584 15.12443,19.191314 0.0325,4.74843 -4.34405,10.79189 -8.44305,11.65888 -1.07166,0.22667 -21.13,0.41213 -44.57406,0.41213 -47.7736,0 -43.89383,0.30057 -48.09604,-3.72608 -3.50825,-3.3617 -3.41022,-1.96601 -3.40705,-48.506664 0.002,-28.53224 0.17742,-42.28494 0.55727,-43.6756 1.23014,-4.50345 5.39516,-7.76552 10.50687,-8.22903 2.28833,-0.2075 3.3713,-0.0503 4.83841,0.70238 1.03959,0.53335 7.65444,6.58082 14.69968,13.43881 l 12.8095,12.46911 2.26961,-2.02844 c 14.9601,-13.37049 32.97631,-23.67926 52.02757,-29.7698803 21.93464,-7.01243005 46.64229,-8.2823 69.53688,-3.5739 29.78136,6.12471 58.5708,23.2123103 77.827,46.1932803 14.18408,16.92766 25.05588,38.64433 29.74468,59.415904 2.6425,11.70622 3.0086,15.49343 2.9853,30.8866 -0.024,15.83779 -0.6047,20.99691 -3.7696,33.49178 -6.6386,26.20818 -22.11458,52.05721 -41.50108,69.31782 -21.5063,19.14788 -47.91243,31.2998 -75.91773,34.93679 -32.59821,4.02909 -73.77081,-6.65692 -97.47972,-25.32504 z m 36.64961,-78.70902 c -2.47705,-1.34403 -2.9242,-2.99977 -2.9242,-10.82794 0,-7.64412 0.34646,-9.11589 2.48859,-10.57158 1.19733,-0.81365 3.24626,-0.90861 22.5032,-1.04298 l 21.18592,-0.14782 0.0361,-5.68786 c 0.0199,-3.12833 0.0238,-17.32417 0.009,-31.54634 -0.0161,-15.231754 0.17525,-26.610784 0.46562,-27.689154 0.27113,-1.00688 1.08411,-2.3867 1.80661,-3.06628 1.24515,-1.17115 1.69166,-1.24409 8.56178,-1.39872 5.65605,-0.12731 7.65774,0.008 9.11298,0.61606 3.48868,1.45766 3.35068,-0.42554 3.35068,45.725174 0,46.00004 0.12333,44.27363 -3.26384,45.68888 -2.67313,1.11691 -61.2667,1.06933 -63.33225,-0.0514 z"
     id="path2987-4"
     style="fill:#4085a5;fill-opacity:1;stroke:none" />
  <path
     d="m 17.737916,417.07058 c -7.59371,-2.27487 -14.6301399,-9.88282 -16.6195199,-17.96941 -0.75319001,-3.06165 -1.01228001,-19.68262 -0.81058001,-52 0.67209,-24.64183 -5.18972999,-38.66517 14.79645991,-49.63805 8.23326,-2.96818 13.38542,-1.65268 34.72967,-2.43478 l 2.80854,5.78641 c 3.57544,7.36644 15.09397,19.0563 22.46179,22.79589 10.46103,5.30957 12.11965,5.46585 58.144684,5.47866 39.73333,0.0111 43.08347,-0.12366 49.07213,-1.97337 12.64265,-3.90492 27.82054,-12.20221 30.64125,-25.8998 l 3.25924,-6.11496 148.25986,0 c 64.71273,0 64.76331,0.005 72.32861,6.48014 10.24197,9.97546 8.89984,16.35621 9.09058,45.85452 0.34831,55.04715 0.36403,54.92501 -8.13244,63.18633 -3.15174,3.06451 -6.76776,5.49989 -9.27991,6.25 -3.20042,0.95562 -49.02466,1.20989 -206,1.14306 -111.03619,-0.0473 -203.173864,-0.47236 -204.750364,-0.94464 z M 331.7892,383.03755 c 3.8309,-1.44741 8.27321,-5.76278 9.93826,-9.65426 4.71525,-11.02026 -3.87629,-23.28212 -16.31313,-23.28212 -5.81851,0 -10.46504,2.62238 -14.03623,7.92168 -3.29535,4.88996 -3.17789,13.28357 0.25662,18.3379 4.44147,6.5362 13.01194,9.37544 20.15448,6.6768 z m 70.35382,-0.95613 c 10.13018,-5.16803 12.36527,-18.24106 4.58632,-26.82526 -7.67624,-8.47086 -22.50204,-6.2377 -27.52899,4.1466 -3.42455,7.07416 -2.51169,13.48004 2.71757,19.07019 5.40297,5.77587 13.23693,7.17356 20.2251,3.60847 z"
     id="path2987-7"
     style="fill:#4085a5;fill-opacity:1" />
  <g
     transform="translate(6.0826727e-6,-4.3513902e-6)"
     id="text3016"
     style="font-size:109.11958313px;font-style:normal;font-variant:normal;font-weight:normal;font-stretch:normal;text-align:start;line-height:101.99999809%;letter-spacing:0px;word-spacing:0px;writing-mode:lr-tb;text-anchor:start;fill:#4085a5;fill-opacity:1;stroke:none;font-family:Georgia;-inkscape-font-specification:Georgia">
    <path
       d="m 529.39557,35.060834 c 0,-13.094054 5.59237,-19.641223 16.77714,-19.641526 l 50.33141,0 c 33.28137,3.03e-4 58.78805,7.502267 76.52011,22.505916 15.27658,13.094617 22.91494,29.598939 22.91511,49.513013 -1.7e-4,14.731363 -4.22855,28.371293 -12.68515,40.919843 -8.45692,12.27613 -19.36886,20.46009 -32.73588,24.55191 22.09658,3.81935 39.41929,13.6401 51.96821,29.46229 11.45737,14.45847 17.18614,31.37198 17.18633,50.74061 -1.9e-4,22.91517 -7.50215,42.42028 -22.50591,58.51538 -16.64089,17.73194 -38.73759,26.5979 -66.29015,26.5979 l -77.74771,0 c -9.00238,0 -15.00395,-1.0912 -18.00473,-3.27359 -3.81919,-2.45519 -5.72878,-8.04756 -5.72878,-16.77714 l 0,-263.114606 m 30.28068,253.293846 60.97057,0 c 20.73261,3e-5 36.96414,-5.59234 48.69462,-16.77714 10.91181,-10.3663 16.36778,-23.05144 16.36794,-38.05545 -1.6e-4,-16.91344 -6.68373,-31.50817 -20.05073,-43.78424 -14.73126,-13.63981 -34.50917,-20.45977 -59.33377,-20.45992 l -46.64863,0 0,119.07675 m 36.82787,-145.67465 c 21.82382,1.7e-4 38.87374,-5.0466 51.1498,-15.14034 10.91183,-9.00217 16.36781,-20.32332 16.36794,-33.963476 -1.3e-4,-12.821315 -5.04691,-23.869662 -15.14034,-33.145075 -10.91207,-10.093294 -25.0976,-15.14007 -42.55664,-15.140343 l -46.64863,0 0,97.389234 36.82787,0"
       id="path3062"
       style="font-size:409.19845581px;fill:#4085a5;font-family:MgOpen Modata;-inkscape-font-specification:MgOpen Modata" />
    <path
       d="m 846.88243,297.76624 c 21.0054,2e-5 37.91892,-9.82073 50.7406,-29.46229 11.45741,-17.73186 17.18618,-39.14656 17.18634,-64.24415 -1.6e-4,-24.27897 -5.59254,-44.73888 -16.77714,-61.37977 -12.54888,-18.55014 -29.5988,-27.82529 -51.1498,-27.8255 -19.36881,2.1e-4 -34.78193,9.41176 -46.23943,28.2347 -10.0936,17.18649 -15.14037,38.19199 -15.14034,63.01656 -3e-5,24.82479 5.04674,45.83029 15.14034,63.01656 11.4575,19.09596 26.87062,28.64391 46.23943,28.64389 m 0,-214.010789 c 13.63984,2.34e-4 26.73417,3.546617 39.28305,10.639159 12.8214,7.09299 22.09656,15.95895 27.82549,26.5979 -1.6e-4,-3.81898 -0.13656,-10.22975 -0.4092,-19.23233 -1.6e-4,-13.094118 5.18302,-19.641287 15.54955,-19.641523 10.09337,2.36e-4 15.14015,6.274606 15.14034,18.823133 l 0,208.69121 c -1.9e-4,8.18397 -4.91057,12.27595 -14.73115,12.27595 -9.82093,0 -14.8677,-3.81918 -15.14034,-11.45755 -0.27296,-7.91116 -0.40936,-13.77633 -0.4092,-17.59554 -9.54811,12.00317 -20.32366,20.18713 -32.32668,24.55191 -9.82088,3.81918 -23.32441,5.72877 -40.51064,5.72878 -28.37115,-10e-6 -50.74065,-11.73035 -67.10855,-35.19107 -14.45835,-21.00547 -21.68752,-47.19414 -21.68752,-78.5661 0,-33.28134 8.04757,-61.9252 24.14271,-85.93168 17.73189,-26.461278 41.19258,-39.692015 70.38214,-39.692249"
       id="path3064"
       style="font-size:409.19845581px;fill:#4085a5;font-family:MgOpen Modata;-inkscape-font-specification:MgOpen Modata" />
    <path
       d="m 1120.5659,129.99488 c -2.4554,1.8e-4 -7.9113,-2.3186 -16.368,-6.95638 -8.184,-4.91018 -16.5044,-7.36537 -24.9611,-7.36557 -21.2784,2e-4 -38.3283,9.54816 -51.1498,28.64389 -11.7304,17.18649 -17.5955,37.91919 -17.5955,62.19817 0,23.188 5.4559,42.55671 16.3679,58.10618 12.2759,17.45917 29.1894,26.18873 50.7406,26.1887 7.0927,3e-5 15.6859,-1.63677 25.7795,-4.91038 10.0935,-3.54635 16.095,-5.31954 18.0048,-5.31958 10.0934,4e-5 15.1402,4.77401 15.1403,14.32194 -10e-5,6.0016 -2.5917,11.18477 -7.7748,15.54955 -10.6393,8.72956 -26.1888,13.09434 -46.6486,13.09435 -33.0087,-10e-6 -59.1974,-12.41235 -78.5661,-37.23706 -17.18633,-22.09667 -25.77948,-49.37654 -25.77948,-81.83969 0,-32.46294 8.72955,-60.152 26.18868,-83.06729 19.0959,-25.097285 44.8754,-37.646025 77.3385,-37.646259 7.0927,2.34e-4 15.2766,1.227828 24.5519,3.682786 10.9119,3.001016 19.2322,6.956597 24.9611,11.866755 4.6375,3.819398 6.9563,8.456978 6.9564,13.912748 -10e-5,4.36498 -1.6369,8.32056 -4.9104,11.86675 -3.2737,3.27378 -7.3657,4.91057 -12.2759,4.91039"
       id="path3066"
       style="font-size:409.19845581px;fill:#4085a5;font-family:MgOpen Modata;-inkscape-font-specification:MgOpen Modata" />
    <path
       d="m 1156.7799,30.559651 c 0,-10.093264 5.0468,-15.14004 15.1404,-15.140343 9.8207,3.03e-4 14.7311,5.047079 14.7311,15.140343 l 0,138.718279 97.3892,-77.33851 c 3.0007,-2.454962 6.2743,-3.682556 9.8208,-3.682786 4.0918,2.3e-4 7.7746,1.637022 11.0483,4.910381 3.2735,3.27381 4.9103,7.092995 4.9104,11.457555 -10e-5,5.45619 -2.8645,10.36657 -8.5931,14.73115 l -91.2513,69.97293 101.4812,97.38923 c 6.547,6.27441 9.8206,12.54878 9.8208,18.82313 -2e-4,9.27517 -4.7742,13.91275 -14.322,13.91275 -6.5473,0 -12.958,-3.13719 -19.2323,-9.41156 l -101.072,-96.57084 0,90.02366 c 0,9.82077 -5.0468,14.73115 -15.1403,14.73115 -9.8208,0 -14.7312,-4.91038 -14.7312,-14.73115 l 0,-272.935369"
       id="path3068"
       style="font-size:409.19845581px;fill:#4085a5;font-family:MgOpen Modata;-inkscape-font-specification:MgOpen Modata" />
    <path
       d="m 1345.3948,106.26137 c 0,-10.093344 4.9104,-15.14012 14.7312,-15.140347 10.0935,2.27e-4 15.1403,5.047003 15.1403,15.140347 l 0,132.1711 c 0,18.27759 5.7288,32.59952 17.1864,42.96583 10.3663,9.548 22.915,14.32197 37.6462,14.32195 15.2767,2e-5 28.2346,-4.77395 38.8739,-14.32195 11.7302,-10.91191 17.5954,-25.23384 17.5955,-42.96583 l 0,-132.1711 c -10e-5,-10.093344 4.9102,-15.14012 14.7311,-15.140347 10.0934,2.27e-4 15.1402,5.047003 15.1404,15.140347 l 0,141.99186 c -2e-4,31.09912 -14.7313,53.05942 -44.1934,65.88095 -27.5528,12.00315 -55.1055,12.13955 -82.6581,0.4092 -29.4623,-12.82154 -44.1935,-34.91823 -44.1935,-66.29015 l 0,-141.99186"
       id="path3070"
       style="font-size:409.19845581px;fill:#4085a5;font-family:MgOpen Modata;-inkscape-font-specification:MgOpen Modata" />
    <path
       d="m 1549.1949,98.486595 c 0,-10.093332 5.1832,-15.140108 15.5495,-15.140343 10.0936,2.35e-4 15.1403,5.592608 15.1404,16.777138 l -0.4092,22.50591 c 20.4598,-25.915677 41.8745,-38.873615 64.2441,-38.873849 31.099,2.34e-4 55.9237,12.685374 74.4741,38.055459 16.6406,23.18808 24.961,51.14995 24.9612,83.88568 -2e-4,32.19036 -8.1842,59.33383 -24.552,81.43049 -18.2776,24.55192 -43.2387,36.82786 -74.8833,36.82786 -23.4608,0 -44.8755,-11.04835 -64.2441,-33.14507 l 0,106.8008 c -10e-5,10.09347 -5.1832,15.14024 -15.5496,15.14034 -9.8207,-1e-4 -14.7311,-5.04687 -14.7311,-15.14034 l 0,-299.124075 m 94.5248,198.870445 c 19.9142,3e-5 35.7366,-9.82073 47.467,-29.46228 10.6391,-17.45907 15.9586,-38.87377 15.9588,-64.24416 -2e-4,-25.09737 -5.1833,-46.23927 -15.5496,-63.42576 -11.7304,-19.36853 -27.6892,-29.05289 -47.8762,-29.05309 -20.46,2e-4 -36.5551,9.54816 -48.2854,28.64389 -10.6392,16.9137 -15.9588,37.9192 -15.9587,63.01656 -10e-5,25.3704 5.4559,46.92149 16.3679,64.65336 12.0031,19.91435 27.9618,29.87151 47.8762,29.87148"
       id="path3072"
       style="font-size:409.19845581px;fill:#4085a5;font-family:MgOpen Modata;-inkscape-font-specification:MgOpen Modata" />
  </g>
  <g
     id="text3035"
     style="font-size:150.56724548px;font-style:normal;font-variant:normal;font-weight:normal;font-stretch:normal;text-align:start;line-height:101.99999809%;letter-spacing:0.03px;word-spacing:0px;writing-mode:lr-tb;text-anchor:start;fill:#4085a5;fill-opacity:1;stroke:none;font-family:MgOpen Modata;-inkscape-font-specification:MgOpen Modata">
    <path
       d="m 565.68021,469.04587 c 10.23852,1e-5 18.82085,-5.82192 25.747,-17.4658 6.42413,-10.84081 8.8332,-21.58126 7.22722,-32.22139 -1.70649,-11.54342 -7.92993,-17.31516 -18.67034,-17.31523 -8.73294,7e-5 -16.2111,4.96878 -22.43451,14.90615 -5.72158,9.13447 -8.58236,19.02171 -8.58234,29.66175 -2e-5,6.5246 1.3049,11.79445 3.91475,15.80956 3.01132,4.41665 7.27739,6.62497 12.79822,6.62496 m 16.71296,-78.44554 c 4.91847,9e-5 9.43549,1.30501 13.55105,3.91475 4.21581,2.60991 6.92602,5.8722 8.13063,9.78687 0.30106,-1.40522 0.80295,-3.86448 1.50568,-7.37779 0.90332,-4.41656 3.21202,-6.62487 6.92609,-6.62496 3.01126,9e-5 4.51693,1.50576 4.51702,4.51702 -9e-5,0.50197 -0.0503,1.00386 -0.15057,1.50567 l -16.5624,77.54213 c -0.70271,3.2121 -2.86084,4.81815 -6.47439,4.81815 -3.81443,0 -5.42048,-1.50567 -4.81815,-4.51701 0.40145,-1.30492 0.95353,-3.41286 1.65624,-6.32383 -4.51707,4.31627 -9.13447,7.32761 -13.85219,9.03404 -3.91479,1.30491 -9.03407,1.95737 -15.35786,1.95737 -8.33141,0 -14.65523,-2.81059 -18.97147,-8.43177 -3.91476,-5.11927 -5.87213,-11.94498 -5.87212,-20.47714 -10e-6,-13.85215 4.26606,-26.95148 12.79821,-39.29805 9.33514,-13.35022 20.32654,-20.02536 32.97423,-20.02545"
       id="path3146"
       style="font-style:italic;letter-spacing:8px" />
    <path
       d="m 633.42952,457.30162 c 1.40528,2.60985 4.36643,5.01893 8.88347,7.22723 4.61737,2.10795 9.28495,3.16192 14.00275,3.16191 9.63626,10e-6 15.408,-4.46681 17.31524,-13.40048 0.2007,-0.60225 0.30108,-1.2547 0.30113,-1.95737 -5e-5,-3.91472 -3.31253,-7.57852 -9.93744,-10.99141 -6.22348,-3.01131 -12.39673,-6.02265 -18.51977,-9.03404 -6.62498,-4.21583 -9.93745,-9.13436 -9.93744,-14.75559 -10e-6,-1.20448 0.10037,-2.40901 0.30114,-3.61361 1.70641,-7.82943 5.72153,-13.80192 12.04538,-17.9175 5.62114,-3.61353 12.24609,-5.42034 19.87487,-5.42043 10.84079,9e-5 19.22235,2.96124 25.14473,8.88347 1.00371,1.00386 1.5056,2.30877 1.50568,3.91475 -8e-5,1.80688 -0.65254,3.46312 -1.95738,4.96872 -1.20461,1.50574 -2.66009,2.25857 -4.36645,2.25851 -1.10423,6e-5 -2.15819,-0.35126 -3.16191,-1.05397 -2.40914,-1.80674 -5.62124,-3.46298 -9.6363,-4.96872 -4.71783,-1.80673 -9.03409,-2.71014 -12.94879,-2.71021 -7.72915,7e-5 -12.34654,3.56349 -13.85218,10.69027 -0.70268,3.11179 2.25847,6.42426 8.88346,9.93744 12.54722,6.52463 19.02161,9.93748 19.42318,10.23857 7.02641,4.81819 10.53964,10.23861 10.53971,16.26127 -7e-5,1.20456 -0.10045,2.45929 -0.30114,3.76418 -1.80687,8.23102 -6.37407,14.70541 -13.70162,19.42317 -6.52463,4.21588 -14.05298,6.32382 -22.58509,6.32383 -12.64766,-10e-6 -21.53112,-3.96494 -26.6504,-11.89482 -0.60227,-0.90339 -0.9034,-1.95736 -0.9034,-3.16191 0,-2.00755 0.75283,-3.91473 2.25851,-5.72155 1.50566,-1.90717 3.06152,-2.86076 4.66758,-2.86078 1.40528,2e-5 2.50944,0.80304 3.31248,2.40907"
       id="path3148"
       style="font-style:italic;letter-spacing:8px" />
    <path
       d="m 784.35895,469.04587 c 10.23852,1e-5 18.82085,-5.82192 25.747,-17.4658 6.42413,-10.84081 8.8332,-21.58126 7.22722,-32.22139 -1.70649,-11.54342 -7.92993,-17.31516 -18.67033,-17.31523 -8.73295,7e-5 -16.21111,4.96878 -22.43452,14.90615 -5.72158,9.13447 -8.58236,19.02171 -8.58234,29.66175 -2e-5,6.5246 1.3049,11.79445 3.91475,15.80956 3.01132,4.41665 7.27739,6.62497 12.79822,6.62496 m 16.71296,-78.44554 c 4.91847,9e-5 9.43549,1.30501 13.55105,3.91475 4.21582,2.60991 6.92602,5.8722 8.13064,9.78687 0.30106,-1.40522 0.80295,-3.86448 1.50567,-7.37779 0.90332,-4.41656 3.21202,-6.62487 6.92609,-6.62496 3.01126,9e-5 4.51693,1.50576 4.51702,4.51702 -9e-5,0.50197 -0.0503,1.00386 -0.15057,1.50567 l -16.5624,77.54213 c -0.70271,3.2121 -2.86084,4.81815 -6.47439,4.81815 -3.81443,0 -5.42048,-1.50567 -4.81815,-4.51701 0.40145,-1.30492 0.95353,-3.41286 1.65624,-6.32383 -4.51707,4.31627 -9.13446,7.32761 -13.85219,9.03404 -3.91479,1.30491 -9.03407,1.95737 -15.35786,1.95737 -8.33141,0 -14.65522,-2.81059 -18.97147,-8.43177 -3.91476,-5.11927 -5.87213,-11.94498 -5.87212,-20.47714 -1e-5,-13.85215 4.26606,-26.95148 12.79822,-39.29805 9.33514,-13.35022 20.32653,-20.02536 32.97422,-20.02545"
       id="path3150"
       style="font-style:italic;letter-spacing:8px" />
    <path
       d="m 957.90639,378.70552 c -4.21595,-3.71389 -9.78693,-5.57088 -16.71297,-5.57099 -5.21971,1.1e-4 -9.73672,1.25483 -13.55105,3.76419 -4.31629,2.91106 -7.07669,7.07675 -8.2812,12.49708 -0.20078,0.80311 -0.30116,1.65632 -0.30113,2.55964 -3e-5,4.61748 3.71396,8.93373 11.14198,12.94878 13.24986,7.12692 20.17594,10.89109 20.77828,11.29255 7.42791,5.52085 11.1419,12.44694 11.14197,20.77828 -7e-5,2.40911 -0.30121,4.91856 -0.9034,7.52836 -2.30877,10.94124 -7.92994,19.52356 -16.86353,25.747 -8.03031,5.72155 -17.11452,8.58233 -27.25267,8.58233 -9.63633,0 -17.76695,-2.55964 -24.3919,-7.67893 -1.90719,-1.40529 -2.86078,-3.1619 -2.86078,-5.26985 0,-1.70642 0.60227,-3.21209 1.80681,-4.51702 1.30491,-1.3049 2.86077,-1.95736 4.66759,-1.95737 1.60604,1e-5 3.26227,0.60228 4.96871,1.8068 5.82192,4.2159 12.59744,6.32384 20.32658,6.32383 6.52454,10e-6 12.14571,-1.70642 16.86353,-5.11929 5.42037,-3.91473 8.9336,-9.63628 10.53971,-17.16467 0.40145,-1.80677 0.60221,-3.5132 0.60227,-5.11928 -6e-5,-6.52454 -3.66386,-11.84458 -10.99141,-15.96013 -6.82576,-3.21205 -13.65147,-6.47433 -20.47714,-9.78687 -7.32763,-4.41657 -10.99143,-10.28869 -10.99141,-17.61637 -2e-5,-1.9071 0.25092,-3.96485 0.75283,-6.17326 2.00754,-9.33507 6.57475,-16.61248 13.70162,-21.83225 6.42416,-4.71766 13.80195,-7.07654 22.13339,-7.07666 8.83321,1.2e-4 16.211,2.60995 22.13338,7.8295 1.90711,1.70653 2.8607,3.61372 2.86078,5.72156 -8e-5,1.50577 -0.55216,2.86087 -1.65624,4.06531 -1.10424,1.10426 -2.40915,1.65634 -3.91475,1.65624 -1.80688,1e-4 -3.56349,-0.75274 -5.26985,-2.25851"
       id="path3152"
       style="font-style:italic;letter-spacing:8px" />
    <path
       d="m 1028.1777,390.44977 c 8.9336,8e-5 15.8095,2.40916 20.6277,7.22723 4.9185,4.71784 7.3777,11.29261 7.3778,19.7243 -10e-5,3.31254 -0.4016,6.87596 -1.2045,10.69028 -1.7065,8.13067 -3.9149,12.19598 -6.625,12.19595 l -54.35477,0 c -0.40153,1.70646 -0.60229,3.51326 -0.60227,5.42042 -2e-5,6.22347 1.90716,11.59369 5.72155,16.11069 3.91469,4.81816 8.83329,7.22724 14.75559,7.22723 5.5208,1e-5 11.4933,-2.05774 17.9175,-6.17326 6.4241,-4.21586 10.0879,-6.3238 10.9914,-6.32382 3.0113,2e-5 4.517,1.55588 4.517,4.66758 0,1.50569 -0.6023,2.86079 -1.8068,4.06532 -8.9337,9.03404 -20.1258,13.55105 -33.5765,13.55105 -10.3389,0 -18.21863,-3.2121 -23.63903,-9.6363 -4.81816,-5.72155 -7.22723,-13.30009 -7.22722,-22.73566 -10e-6,-13.55101 4.36643,-26.04807 13.09935,-37.49124 9.3351,-12.34644 20.6779,-18.51969 34.0282,-18.51977 m -31.7697,38.39464 47.1276,0 c 0.6022,-2.81053 0.9033,-5.52074 0.9034,-8.13063 -10e-5,-6.32376 -1.7567,-11.19209 -5.2699,-14.60502 -3.4129,-3.41278 -7.7292,-5.11921 -12.9488,-5.11929 -6.3239,8e-5 -12.196,2.30878 -17.6163,6.9261 -6.1231,5.21973 -10.18846,12.196 -12.196,20.92884"
       id="path3154"
       style="font-style:italic;letter-spacing:8px" />
    <path
       d="m 1079.2564,396.77359 c 0.9034,-4.2158 3.2121,-6.32374 6.9261,-6.32382 2.9109,8e-5 4.3664,1.45557 4.3665,4.36645 -10e-5,0.50197 -0.05,1.05405 -0.1506,1.65624 l -2.2585,10.69027 c 9.2347,-11.04152 16.8635,-16.56231 22.8862,-16.5624 4.3162,9e-5 6.4743,2.05784 6.4744,6.17326 -1e-4,0.60235 -0.05,1.20462 -0.1506,1.80681 -0.5019,2.50953 -3.3125,4.66766 -8.4317,6.47439 -7.0266,2.40915 -11.9451,4.66765 -14.7556,6.77553 -5.6212,4.4167 -9.3854,11.04165 -11.2926,19.87487 l -8.4317,39.44862 c -0.8031,3.71399 -3.0114,5.57099 -6.625,5.57099 -3.0113,0 -4.517,-1.40529 -4.517,-4.21588 0,-0.50189 0.05,-0.95359 0.1505,-1.35511 l 15.8096,-74.38022"
       id="path3156"
       style="font-style:italic;letter-spacing:8px" />
    <path
       d="m 1144.8554,399.78494 6.625,58.42009 32.5225,-58.57066 c 2.409,-4.31618 5.069,-6.47431 7.9801,-6.47439 2.5094,8e-5 3.7641,1.35519 3.7642,4.06531 -10e-5,1.10424 -0.3514,2.30878 -1.054,3.61362 l -39.7498,71.51944 c -1.7064,3.11172 -4.2159,4.66758 -7.5283,4.66758 -3.0114,0 -4.7178,-1.55586 -5.1193,-4.66758 l -8.7329,-71.36888 c -0.2008,-2.20824 0.2509,-4.01504 1.3551,-5.42042 1.2045,-1.40521 2.66,-2.10785 4.3664,-2.10794 3.2121,9e-5 5.0691,2.10802 5.571,6.32383"
       id="path3158"
       style="font-style:italic;letter-spacing:8px" />
    <path
       d="m 1228.5178,365.15447 c 4.2159,1.1e-4 6.3238,2.10805 6.3238,6.32382 0,2.40918 -0.803,4.46693 -2.409,6.17326 -1.9073,1.90728 -4.3665,2.86088 -7.3778,2.86078 -4.0152,10e-5 -6.0227,-2.10784 -6.0227,-6.32383 0,-2.30859 0.8532,-4.36634 2.5596,-6.17325 1.7064,-1.90708 4.0151,-2.86067 6.9261,-2.86078 m -12.0454,31.01685 c 0.7027,-3.71391 2.911,-5.5709 6.625,-5.57099 3.8143,9e-5 5.32,1.85708 4.517,5.57099 l -15.9601,75.13306 c -0.8031,3.81437 -3.0616,5.72155 -6.7755,5.72155 -3.0114,0 -4.5171,-1.45548 -4.5171,-4.36645 0,-0.4015 0.05,-0.85321 0.1506,-1.3551 l 15.9601,-75.13306"
       id="path3160"
       style="font-style:italic;letter-spacing:8px" />
    <path
       d="m 1299.4079,407.61443 c -1.0039,7e-5 -2.8107,-0.85314 -5.4205,-2.55964 -2.6098,-1.80673 -5.4706,-2.71014 -8.5823,-2.71021 -10.2386,7e-5 -18.8711,5.57106 -25.8976,16.71296 -6.4242,10.339 -8.8834,20.67794 -7.3777,31.01686 1.8067,11.14199 8.0804,16.71297 18.8209,16.71296 2.7101,1e-5 6.0226,-0.60226 9.9374,-1.80681 3.9147,-1.3049 6.2234,-1.95736 6.9261,-1.95737 3.1117,10e-6 4.6675,1.35512 4.6676,4.06532 -10e-5,2.60983 -1.4054,4.91853 -4.2159,6.92609 -4.6175,3.2121 -10.6401,4.81815 -18.0681,4.81815 -10.1382,0 -17.8673,-3.2121 -23.1873,-9.6363 -4.8182,-5.72155 -7.2273,-13.2499 -7.2273,-22.58509 0,-13.65139 4.4167,-26.14846 13.25,-37.49124 9.6362,-12.34644 21.4808,-18.51969 35.5338,-18.51978 2.6098,9e-5 5.4706,0.45179 8.5824,1.35511 3.8143,1.10424 6.5747,2.55973 8.2812,4.36645 1.104,1.10424 1.6561,2.40915 1.6562,3.91475 -10e-5,1.80688 -0.8031,3.51331 -2.4091,5.11928 -1.5057,1.50575 -3.2623,2.25858 -5.2698,2.25851"
       id="path3162"
       style="font-style:italic;letter-spacing:8px" />
    <path
       d="m 1355.3436,390.44977 c 8.9336,8e-5 15.8095,2.40916 20.6277,7.22723 4.9184,4.71784 7.3777,11.29261 7.3778,19.7243 -10e-5,3.31254 -0.4016,6.87596 -1.2045,10.69028 -1.7066,8.13067 -3.9149,12.19598 -6.625,12.19595 l -54.3548,0 c -0.4015,1.70646 -0.6023,3.51326 -0.6022,5.42042 -10e-5,6.22347 1.9071,11.59369 5.7215,16.11069 3.9147,4.81816 8.8333,7.22724 14.7556,7.22723 5.5208,1e-5 11.4932,-2.05774 17.9175,-6.17326 6.4241,-4.21586 10.0879,-6.3238 10.9914,-6.32382 3.0113,2e-5 4.517,1.55588 4.517,4.66758 0,1.50569 -0.6023,2.86079 -1.8068,4.06532 -8.9337,9.03404 -20.1259,13.55105 -33.5765,13.55105 -10.339,0 -18.2186,-3.2121 -23.639,-9.6363 -4.8182,-5.72155 -7.2273,-13.30009 -7.2273,-22.73566 0,-13.55101 4.3665,-26.04807 13.0994,-37.49124 9.3351,-12.34644 20.6778,-18.51969 34.0282,-18.51977 m -31.7697,38.39464 47.1275,0 c 0.6022,-2.81053 0.9034,-5.52074 0.9034,-8.13063 0,-6.32376 -1.7566,-11.19209 -5.2698,-14.60502 -3.4129,-3.41278 -7.7292,-5.11921 -12.9488,-5.11929 -6.3239,8e-5 -12.196,2.30878 -17.6164,6.9261 -6.1231,5.21973 -10.1884,12.196 -12.1959,20.92884"
       id="path3164"
       style="font-style:italic;letter-spacing:8px" />
  </g>
</svg>
