<?xml version="1.0" encoding="UTF-8" standalone="no"?>
<!-- Created with Inkscape (http://www.inkscape.org/) -->

<svg
   xmlns:dc="http://purl.org/dc/elements/1.1/"
   xmlns:cc="http://creativecommons.org/ns#"
   xmlns:rdf="http://www.w3.org/1999/02/22-rdf-syntax-ns#"
   xmlns:svg="http://www.w3.org/2000/svg"
   xmlns="http://www.w3.org/2000/svg"
   xmlns:sodipodi="http://sodipodi.sourceforge.net/DTD/sodipodi-0.dtd"
   xmlns:inkscape="http://www.inkscape.org/namespaces/inkscape"
   width="454.42709"
   height="418.02527"
   id="svg3048"
   version="1.1"
   inkscape:version="0.48.4 r9939"
   sodipodi:docname="New document 2">
  <defs
     id="defs3050" />
  <sodipodi:namedview
     id="base"
     pagecolor="#ffffff"
     bordercolor="#666666"
     borderopacity="1.0"
     inkscape:pageopacity="0.0"
     inkscape:pageshadow="2"
     inkscape:zoom="0.35"
     inkscape:cx="225.07069"
     inkscape:cy="129.01263"
     inkscape:document-units="px"
     inkscape:current-layer="layer1"
     showgrid="false"
     fit-margin-top="0"
     fit-margin-left="0"
     fit-margin-right="0"
     fit-margin-bottom="0"
     inkscape:window-width="1362"
     inkscape:window-height="352"
     inkscape:window-x="556"
     inkscape:window-y="16"
     inkscape:window-maximized="0" />
  <metadata
     id="metadata3053">
    <rdf:RDF>
      <cc:Work
         rdf:about="">
        <dc:format>image/svg+xml</dc:format>
        <dc:type
           rdf:resource="http://purl.org/dc/dcmitype/StillImage" />
        <dc:title></dc:title>
      </cc:Work>
    </rdf:RDF>
  </metadata>
  <g
     inkscape:label="Layer 1"
     inkscape:groupmode="layer"
     id="layer1"
     transform="translate(-149.92931,-243.34955)">
    <path
       inkscape:connector-curvature="0"
       d="m 246.08823,527.60881 c 0,-33.1786 0,-44.35717 0,-77.53575 l -25.9127,-0.022 c -23.84548,-0.0202 -20.43092,-0.17244 -23.16345,-1.90813 -6.41366,-4.07395 -8.79104,-16.79428 -4.61069,-24.66987 3.64247,-6.86224 83.27172,-77.25449 85.36473,-78.34835 3.72292,-1.94568 7.82674,-1.27543 11.25084,1.83752 4.17362,3.79436 83.10953,74.65843 84.59578,78.81113 2.91785,8.15267 -0.58108,19.86098 -6.943,23.23305 -1.28947,0.68351 -5.52098,1.06665 -21.98111,1.06665 l -25.68745,0 c 0,32.77476 0,43.54952 0,76.32425 -0.1387,12.39514 -29.77391,12.64155 -36.86087,12.6315 -12.89066,-0.28198 -35.97202,0.33935 -36.05208,-11.42 z"
       id="path2987"
       style="fill:#4085a5;fill-opacity:1" />
    <path
       inkscape:connector-curvature="0"
       d="m 385.68727,495.06245 c -4.9705,-4.49601 -12.54281,-12.70977 -13.79462,-14.96317 -0.84795,-1.52638 -0.82528,-3.68002 0.0563,-5.34873 1.24284,-2.35257 26.78351,-27.39776 28.32744,-27.77792 2.33057,-0.57384 4.07651,0.22016 6.46996,2.94239 31.7185,40.22832 84.82815,28.73075 115.16318,6.37112 16.57179,-12.41743 28.86359,-31.33259 34.24699,-52.70068 2.1475,-8.52409 2.9373,-23.01529 1.7784,-32.62905 -2.8976,-24.03589 -16.7181,-48.00059 -36.02539,-62.46781 -28.15595,-21.09765 -64.9725,-24.85711 -96.29216,-9.83275 -8.02621,3.85028 -15.64723,8.90946 -21.27366,14.12246 l -1.62162,1.50246 13.22631,13.50152 c 13.33308,13.61048 15.10162,15.85458 15.12443,19.19131 0.0325,4.74843 -4.34405,10.79189 -8.44305,11.65888 -1.07166,0.22667 -21.13,0.41213 -44.57406,0.41213 -47.7736,0 -43.89383,0.30057 -48.09604,-3.72608 -3.50825,-3.3617 -3.41022,-1.96601 -3.40705,-48.50666 0.002,-28.53224 0.17742,-42.28494 0.55727,-43.6756 1.23014,-4.50345 5.39516,-7.76552 10.50687,-8.22903 2.28833,-0.2075 3.3713,-0.0503 4.83841,0.70238 1.03959,0.53335 7.65444,6.58082 14.69968,13.43881 l 12.8095,12.46911 2.26961,-2.02844 c 14.9601,-13.37049 32.97631,-23.67926 52.02757,-29.76988 21.93464,-7.01243 46.64229,-8.2823 69.53688,-3.5739 29.78136,6.12471 58.5708,23.21231 77.827,46.19328 14.18408,16.92766 25.05588,38.64433 29.74468,59.4159 2.6425,11.70622 3.0086,15.49343 2.9853,30.8866 -0.024,15.83779 -0.6047,20.99691 -3.7696,33.49178 -6.6386,26.20818 -22.11458,52.05721 -41.50108,69.31782 -21.5063,19.14788 -47.91243,31.2998 -75.91773,34.93679 -32.59821,4.02909 -73.77081,-6.65692 -97.47972,-25.32504 z m 36.64961,-78.70902 c -2.47705,-1.34403 -2.9242,-2.99977 -2.9242,-10.82794 0,-7.64412 0.34646,-9.11589 2.48859,-10.57158 1.19733,-0.81365 3.24626,-0.90861 22.5032,-1.04298 l 21.18592,-0.14782 0.0361,-5.68786 c 0.0199,-3.12833 0.0238,-17.32417 0.009,-31.54634 -0.0161,-15.23175 0.17525,-26.61078 0.46562,-27.68915 0.27113,-1.00688 1.08411,-2.3867 1.80661,-3.06628 1.24515,-1.17115 1.69166,-1.24409 8.56178,-1.39872 5.65605,-0.12731 7.65774,0.008 9.11298,0.61606 3.48868,1.45766 3.35068,-0.42554 3.35068,45.72517 0,46.00004 0.12333,44.27363 -3.26384,45.68888 -2.67313,1.11691 -61.2667,1.06933 -63.33225,-0.0514 z"
       id="path2987-4"
       style="fill:#4085a5;fill-opacity:1;stroke:none" />
    <path
       inkscape:connector-curvature="0"
       d="m 167.66723,660.42013 c -7.59371,-2.27487 -14.63014,-9.88282 -16.61952,-17.96941 -0.75319,-3.06165 -1.01228,-19.68262 -0.81058,-52 0.67209,-24.64183 -5.18973,-38.66517 14.79646,-49.63805 8.23326,-2.96818 13.38542,-1.65268 34.72967,-2.43478 l 2.80854,5.78641 c 3.57544,7.36644 15.09397,19.0563 22.46179,22.79589 10.46103,5.30957 12.11965,5.46585 58.14468,5.47866 39.73333,0.0111 43.08347,-0.12366 49.07213,-1.97337 12.64265,-3.90492 27.82054,-12.20221 30.64125,-25.8998 l 3.25924,-6.11496 148.25986,0 c 64.71273,0 64.76331,0.005 72.32861,6.48014 10.24197,9.97546 8.89984,16.35621 9.09058,45.85452 0.34831,55.04715 0.36403,54.92501 -8.13244,63.18633 -3.15174,3.06451 -6.76776,5.49989 -9.27991,6.25 -3.20042,0.95562 -49.02466,1.20989 -206,1.14306 -111.03619,-0.0473 -203.17386,-0.47236 -204.75036,-0.94464 z M 481.71851,626.3871 c 3.8309,-1.44741 8.27321,-5.76278 9.93826,-9.65426 4.71525,-11.02026 -3.87629,-23.28212 -16.31313,-23.28212 -5.81851,0 -10.46504,2.62238 -14.03623,7.92168 -3.29535,4.88996 -3.17789,13.28357 0.25662,18.3379 4.44147,6.5362 13.01194,9.37544 20.15448,6.6768 z m 70.35382,-0.95613 c 10.13018,-5.16803 12.36527,-18.24106 4.58632,-26.82526 -7.67624,-8.47086 -22.50204,-6.2377 -27.52899,4.1466 -3.42455,7.07416 -2.51169,13.48004 2.71757,19.07019 5.40297,5.77587 13.23693,7.17356 20.2251,3.60847 z"
       id="path2987-7"
       style="fill:#4085a5;fill-opacity:1" />
  </g>
</svg>
