<?xml version="1.0" encoding="utf-8"?>
<!-- Generator: Adobe Illustrator 16.0.0, SVG Export Plug-In . SVG Version: 6.00 Build 0)  -->
<!DOCTYPE svg PUBLIC "-//W3C//DTD SVG 1.1//EN" "http://www.w3.org/Graphics/SVG/1.1/DTD/svg11.dtd">
<svg version="1.1" id="Layer_1" xmlns="http://www.w3.org/2000/svg" xmlns:xlink="http://www.w3.org/1999/xlink" x="0px" y="0px"
	 width="181px" height="47px" viewBox="0 0 181 47" enable-background="new 0 0 181 47" xml:space="preserve">
<g>
	<path fill="#00A551" d="M132.4,19.033c-3.392,0.023-11.842,0.546-14.684-2.657c2.872-0.221,5.698-0.739,8.415-1.812
		c2.444-0.965,6.925-3.011,7.173-6.13c0.461-5.827-10.561-4.702-13.656-3.649c-5.703,1.941-12.553,8.734-8.146,14.909
		c3.729,5.223,15.436,4.363,16.966,4.163c1.707-0.224,4.171-0.882,5.177-2.316C134.484,20.344,133.947,19.022,132.4,19.033z
		 M125.217,9.23c2.434,0.852,0.492,1.267-0.953,1.738c-2.035,0.664-4.312,0.727-6.428,0.751c-0.229,0.002-0.461,0.021-0.691,0.05
		c0.035-0.107,0.072-0.215,0.115-0.328C118.498,8.196,122.551,8.296,125.217,9.23z"/>
	<path fill="#00A551" d="M52.508,4.474c-4.553-2.441-8.83,2.924-11.981,5.967c-1.914,1.844-3.589,3.916-5.639,5.588
		c-0.409-0.739-0.418-2.247-0.511-3.465c-0.079-2.729,0.02-3.596,0.07-6.048c0.077-3.721-7.031-2.451-7.095,0.687
		c-0.096,4.583,0.209,9.563,1.626,13.207c1.469,2.427,5.147,2.216,7.317,1.39c3.104-1.184,5.482-5.405,7.782-7.822
		c0.717-0.756,1.411-1.538,2.145-2.278c-0.806,3.703-2.405,9.243-2.568,9.914c-1.764,7.259-3.834,14.458-4.919,21.872
		c-0.519,3.582,6.638,2.465,7.095-0.687c1.217-8.319,3.627-16.389,5.562-24.544C52.024,15.596,55.877,6.281,52.508,4.474z"/>
	<path fill="#00A551" d="M105.629,10.08c-0.609-2.74-1.893-5.474-5.117-5.292c-3.35,0.188-6.182,2.794-8.089,5.331
		c-0.401,0.538-0.786,1.085-1.165,1.638c-0.007-0.059-0.016-0.12-0.023-0.181c-0.376-2.615-0.827-5.14-1.732-7.625
		c-0.191-0.529-1.149-0.667-1.593-0.603c-0.184,0.028-0.369,0.055-0.554,0.08c-1.718,0.248-3.476,1.09-4.433,2.611
		C82.334,6.971,82.562,8,83.449,8.276c0.763,2.352,1.059,4.791,1.412,7.238c0.27,1.868,0.025,3.662,0.225,5.496
		c0.176,1.614,2.396,1.071,3.36,0.695c4.666-1.813,6.502-7.317,9.207-11.179c0.086-0.121,0.177-0.241,0.267-0.356
		c0.031,0.017,0.062,0.036,0.097,0.053c0.903,1.088,1.129,2.776,1.379,4.115c0.625,3.335,1.461,6.636,2.017,9.985
		c0.478,2.878,6.954-0.284,6.552-2.702C107.322,17.773,106.475,13.891,105.629,10.08z"/>
	<path fill="#00A551" d="M79.527,10.08c-0.607-2.74-1.89-5.474-5.115-5.292c-3.349,0.188-6.182,2.794-8.088,5.331
		c-0.405,0.538-0.788,1.085-1.165,1.641c-0.007-0.062-0.016-0.123-0.024-0.184c-0.377-2.615-0.826-5.14-1.733-7.625
		c-0.191-0.529-1.147-0.667-1.591-0.603c-0.184,0.028-0.369,0.055-0.555,0.08c-1.717,0.248-3.474,1.09-4.432,2.611
		C56.235,6.971,56.462,8,57.35,8.276c0.763,2.352,1.058,4.791,1.411,7.238c0.27,1.868,0.026,3.657,0.224,5.496
		c0.178,1.614,2.398,1.071,3.361,0.695c4.664-1.813,6.505-7.317,9.208-11.179c0.085-0.121,0.175-0.241,0.266-0.355
		c0.03,0.015,0.062,0.034,0.094,0.051c0.905,1.088,1.13,2.776,1.38,4.115c0.625,3.335,1.458,6.636,2.014,9.985
		c0.479,2.878,6.955-0.284,6.553-2.702C81.221,17.773,80.374,13.891,79.527,10.08z"/>
	<path fill="#00A551" d="M179.311,11.37c-2.031-3.176-6.91-4.686-10.338-5.48c-3.832-0.89-8.195-0.542-11.883,0.766
		c-2.535,0.898-1.43,1.463,0.291,1.661c-1.074,0.956-1.924,2.183-2.501,3.579c-0.125-0.031-0.246-0.05-0.362-0.05
		c-3.25,0-6.5,0-9.75,0c-0.259,0-0.527-0.009-0.806-0.022c0.653-2.189,1.529-4.125,2.698-5.181c1.156,2.024,5.226,3.443,6.449,1.28
		c2.871-5.075-4.449-9.01-8.812-7.125c-5.822,2.512-7.402,8.796-8.387,14.546c-1.113,6.527-1.074,13.598,0.234,20.08
		c0.58,2.87,0.727,5.137,3.686,6.609c1.822,0.91,3.835,0.76,4.875-1.059c0.775-1.354-0.387-2.84-1.965-3.668
		c-0.448-1.873-0.534-4.688-0.627-5.678c-0.276-2.936-0.036-6.02,0.104-8.96c0.048-1.015,0.239-3.469,0.698-6.196
		c0.842-0.245,2.234,0.047,3.059,0.047c1.791,0,3.584,0,5.377,0c0.893,0,1.785,0,2.68,0c0.369,6.694,10.187,7.599,15.125,6.929
		C174.879,22.674,183.718,18.264,179.311,11.37z M167.623,20.292c-3.521-0.163-6.15-2.777-6.37-5.906
		c-0.081-1.154,0.425-2.218,0.905-3.247c0.285-0.612,0.584-1.125,0.994-1.761c0.257-0.4,0.798-0.929,1.39-1.351
		c3.033,0.575,6.201,2.564,7.868,4.394C175.188,15.462,171.514,20.473,167.623,20.292z"/>
	<path fill="#00A551" d="M20.943,13.294c-2.068-1.044-4.261-1.784-6.453-2.535c-0.913-0.313-1.839-0.593-2.764-0.865
		c0.463-0.097,2.078-0.603,3.724-0.648c1.928-0.053,2.542,0.113,4.35,0.639c2.709,0.789,6.207-3.123,2.749-4.533
		c-3.273-1.334-6.594-1.318-9.998-0.606C9.084,5.468,4.67,7.204,2.416,10.089c-0.524,0.674-0.812,1.784-0.294,2.542
		c1.101,1.606,3.235,1.83,5.017,2.162c2.902,0.539,6.377,1.751,8.98,3.16c-0.884,0.174-1.789,0.266-2.671,0.352
		c-2.908,0.286-5.337-0.357-8.072-1.215c-2.66-0.836-7.098,4.083-3.564,5.194c4.111,1.29,7.568,1.604,11.862,1.094
		c3.017-0.358,7.702-1.555,9.508-4.304C25.107,16.138,23.713,14.689,20.943,13.294z"/>
</g>
</svg>
